<svg width="601" height="201" viewBox="0 0 601 201" fill="none" xmlns="http://www.w3.org/2000/svg">
<g clip-path="url(#clip0_193_993)">
<g clip-path="url(#clip1_193_993)">
<path d="M452.876 114.451H147.637C143.584 114.451 140.299 117.69 140.299 121.684V180.506C140.299 184.5 143.584 187.739 147.637 187.739H452.876C456.929 187.739 460.214 184.5 460.214 180.506V121.684C460.214 117.69 456.929 114.451 452.876 114.451Z" fill="#303030"/>
<path d="M165.262 129.88H161.319C158.355 129.88 155.952 132.248 155.952 135.17V139.056C155.952 141.977 158.355 144.346 161.319 144.346H165.262C168.226 144.346 170.629 141.977 170.629 139.056V135.17C170.629 132.248 168.226 129.88 165.262 129.88Z" fill="#29342B"/>
<path d="M165.247 133.256H161.334C160.253 133.256 159.377 134.119 159.377 135.184V139.041C159.377 140.107 160.253 140.97 161.334 140.97H165.247C166.328 140.97 167.204 140.107 167.204 139.041V135.184C167.204 134.119 166.328 133.256 165.247 133.256Z" fill="#A2CEAD"/>
<path d="M165.262 129.88H161.319C158.355 129.88 155.952 132.248 155.952 135.17V139.056C155.952 141.977 158.355 144.346 161.319 144.346H165.262C168.226 144.346 170.629 141.977 170.629 139.056V135.17C170.629 132.248 168.226 129.88 165.262 129.88Z" stroke="#3A523E" stroke-width="0.968367"/>
<path d="M181.432 131.385V142.416H180.023V131.385H181.432ZM187.28 134.332C188.062 134.332 188.704 134.554 189.205 134.995C189.706 135.427 189.956 136.07 189.956 136.924V142.416H188.704V137.232C188.704 136.688 188.563 136.25 188.281 135.921C188 135.582 187.561 135.412 186.967 135.412C186.267 135.412 185.699 135.608 185.26 135.998C184.832 136.389 184.619 136.893 184.619 137.51V142.416H183.366V134.548H184.619V135.489H184.65C184.9 135.16 185.245 134.887 185.683 134.671C186.121 134.445 186.654 134.332 187.28 134.332ZM194.876 137.742C194.97 137.762 195.33 137.85 195.956 138.004C196.592 138.148 197.078 138.41 197.412 138.791C197.746 139.172 197.913 139.66 197.913 140.256C197.913 140.729 197.777 141.146 197.506 141.506C197.234 141.866 196.858 142.144 196.379 142.339C195.909 142.535 195.371 142.632 194.767 142.632C193.587 142.632 192.695 142.381 192.09 141.876C191.485 141.372 191.161 140.678 191.12 139.794H192.372C192.424 140.338 192.607 140.77 192.92 141.09C193.243 141.398 193.859 141.552 194.767 141.552C195.393 141.552 195.863 141.429 196.176 141.182C196.498 140.925 196.661 140.642 196.661 140.334C196.661 140.025 196.583 139.784 196.426 139.608C196.277 139.432 196.082 139.298 195.863 139.223C195.552 139.106 195.233 139.013 194.908 138.945L194.469 138.852C194.317 138.82 194.166 138.784 194.015 138.744C193.564 138.656 193.12 138.537 192.685 138.39C192.339 138.255 192.032 138.037 191.793 137.757C191.552 137.469 191.433 137.072 191.433 136.569C191.433 136.157 191.552 135.782 191.793 135.443C192.032 135.103 192.377 134.835 192.826 134.64C193.286 134.435 193.817 134.332 194.422 134.332C195.371 134.332 196.123 134.563 196.677 135.026C197.229 135.489 197.537 136.08 197.6 136.8H196.348C196.278 136.425 196.092 136.08 195.816 135.813C195.554 135.546 195.09 135.412 194.422 135.412C193.869 135.412 193.441 135.509 193.139 135.705C192.836 135.901 192.685 136.158 192.685 136.476C192.685 136.723 192.757 136.919 192.904 137.063C193.051 137.207 193.233 137.314 193.452 137.387C193.681 137.459 194 137.541 194.407 137.634L194.876 137.742ZM200.883 135.628V140.364C200.883 140.735 200.971 140.991 201.149 141.136C201.326 141.28 201.619 141.352 202.026 141.352C202.203 141.352 202.344 141.347 202.449 141.336V142.416C202.14 142.481 201.825 142.512 201.509 142.509C200.915 142.509 200.45 142.36 200.116 142.062C199.793 141.763 199.631 141.239 199.631 140.488V135.628H198.457V134.548H199.631V131.925H200.883V134.548H202.449V135.628H200.883ZM208.641 136.554C208.641 135.792 208.099 135.412 207.014 135.412C206.262 135.412 205.736 135.53 205.433 135.767C205.13 136.003 204.958 136.41 204.916 136.986H203.664C203.706 136.173 203.998 135.529 204.54 135.057C205.083 134.574 205.908 134.332 207.014 134.332C207.87 134.332 208.563 134.528 209.095 134.918C209.628 135.299 209.894 135.931 209.894 136.816V140.642C209.894 140.951 209.936 141.177 210.019 141.321C210.113 141.455 210.296 141.522 210.567 141.522C210.661 141.522 210.739 141.517 210.802 141.506V142.37C210.565 142.45 210.316 142.492 210.066 142.494C209.67 142.494 209.357 142.421 209.127 142.278C208.908 142.123 208.746 141.841 208.641 141.429H208.61C208.339 141.818 207.966 142.127 207.53 142.324C207.082 142.529 206.539 142.632 205.902 142.632C205.099 142.632 204.457 142.427 203.977 142.015C203.507 141.604 203.272 141.064 203.272 140.395C203.272 139.82 203.408 139.362 203.679 139.022C203.951 138.683 204.321 138.425 204.791 138.251C205.271 138.066 205.902 137.901 206.685 137.757C207.076 137.692 207.463 137.605 207.843 137.495C208.104 137.413 208.303 137.299 208.438 137.155C208.574 137.011 208.641 136.811 208.641 136.554ZM206.027 141.552C206.81 141.552 207.442 141.372 207.921 141.012C208.402 140.642 208.641 140.096 208.641 139.377V138.066C208.433 138.271 207.818 138.477 206.794 138.683C205.98 138.857 205.396 139.064 205.041 139.3C204.697 139.536 204.525 139.881 204.525 140.334C204.525 141.146 205.026 141.552 206.027 141.552ZM215.651 134.332C216.434 134.332 217.076 134.554 217.576 134.995C218.077 135.427 218.328 136.07 218.328 136.924V142.416H217.076V137.232C217.076 136.688 216.935 136.25 216.653 135.921C216.371 135.582 215.933 135.412 215.338 135.412C214.639 135.412 214.07 135.608 213.632 135.998C213.203 136.389 212.99 136.893 212.99 137.51V142.416H211.738V134.548H212.99V135.489H213.021C213.272 135.16 213.616 134.887 214.055 134.671C214.493 134.445 215.025 134.332 215.651 134.332ZM225.674 137.387C225.633 136.874 225.418 136.391 225.064 136.014C224.698 135.612 224.15 135.412 223.42 135.412C222.543 135.412 221.886 135.716 221.448 136.322C221.019 136.93 220.806 137.649 220.806 138.482C220.806 139.315 221.019 140.035 221.448 140.642C221.886 141.25 222.543 141.552 223.42 141.552C224.161 141.552 224.708 141.352 225.064 140.951C225.429 140.55 225.632 140.071 225.674 139.516H226.926C226.904 140.083 226.728 140.633 226.417 141.111C226.106 141.588 225.671 141.975 225.158 142.231C224.646 142.498 224.067 142.632 223.42 142.632C222.647 142.632 221.969 142.458 221.385 142.108C220.799 141.757 220.327 141.248 220.023 140.642C219.71 140.015 219.554 139.295 219.554 138.482C219.554 137.669 219.71 136.949 220.023 136.322C220.327 135.716 220.799 135.208 221.385 134.856C221.969 134.506 222.647 134.332 223.42 134.332C224.067 134.332 224.641 134.466 225.142 134.733C225.653 134.99 226.06 135.35 226.363 135.813C226.676 136.276 226.864 136.8 226.926 137.387H225.674ZM231.522 141.552C232.231 141.552 232.774 141.388 233.149 141.059C233.525 140.73 233.76 140.374 233.854 139.994H235.106C234.907 140.744 234.475 141.413 233.87 141.907C233.275 142.39 232.508 142.632 231.569 142.632C230.775 142.632 230.081 142.463 229.487 142.123C228.903 141.774 228.435 141.265 228.14 140.658C227.827 140.031 227.671 139.305 227.671 138.482C227.671 137.186 228.015 136.173 228.704 135.443C229.393 134.702 230.326 134.332 231.506 134.332C232.737 134.332 233.666 134.722 234.292 135.504C234.918 136.285 235.231 137.387 235.231 138.806H228.923C228.923 139.3 229.022 139.758 229.221 140.179C229.418 140.591 229.711 140.925 230.097 141.182C230.493 141.429 230.968 141.552 231.522 141.552ZM231.506 135.412C231.015 135.412 230.572 135.515 230.175 135.72C229.797 135.918 229.479 136.211 229.252 136.569C229.033 136.916 228.919 137.318 228.923 137.726H233.979C233.979 137.305 233.874 136.919 233.666 136.569C233.469 136.21 233.17 135.915 232.805 135.72C232.429 135.515 231.996 135.412 231.506 135.412ZM239.542 135.489C239.542 134.327 239.871 133.38 240.528 132.65C241.185 131.91 242.156 131.539 243.44 131.539C244.066 131.539 244.64 131.668 245.161 131.925C245.683 132.172 246.101 132.537 246.414 133.02C246.727 133.504 246.883 134.074 246.883 134.733C246.883 135.37 246.732 135.932 246.429 136.415C246.127 136.887 245.756 137.284 245.318 137.603C244.89 137.911 244.321 138.271 243.612 138.683C242.808 139.136 242.192 139.536 241.765 139.886C241.362 140.213 241.072 140.655 240.935 141.151V141.182H246.727V142.416H239.229C239.229 140.596 240.304 139.068 242.453 137.834L243.079 137.479C243.726 137.12 244.202 136.831 244.504 136.615C244.798 136.419 245.044 136.161 245.224 135.859C245.391 135.56 245.474 135.191 245.474 134.748C245.474 134.204 245.318 133.741 245.005 133.36C244.692 132.969 244.16 132.774 243.408 132.774C242.521 132.774 241.89 133.02 241.514 133.514C241.138 134.008 240.951 134.666 240.951 135.489H239.542Z" fill="white"/>
<path d="M186.849 167.006H185.815C185.71 166.468 185.398 165.991 184.944 165.675C184.728 165.52 184.486 165.403 184.23 165.329C183.965 165.252 183.69 165.213 183.413 165.214C182.896 165.214 182.428 165.343 182.008 165.6C181.591 165.858 181.26 166.237 181.012 166.739C180.768 167.24 180.645 167.855 180.645 168.583C180.645 169.312 180.768 169.927 181.012 170.429C181.26 170.93 181.591 171.309 182.008 171.567C182.429 171.824 182.896 171.952 183.413 171.952C183.697 171.952 183.969 171.914 184.23 171.838C184.491 171.761 184.729 171.648 184.944 171.497C185.395 171.177 185.707 170.7 185.815 170.162H186.848C186.779 170.569 186.635 170.96 186.423 171.316C186.021 171.987 185.381 172.488 184.626 172.722C184.249 172.844 183.844 172.906 183.413 172.906C182.685 172.906 182.038 172.732 181.47 172.381C180.903 172.03 180.458 171.532 180.133 170.885C179.807 170.239 179.644 169.471 179.644 168.583C179.644 167.696 179.807 166.929 180.133 166.282C180.458 165.636 180.904 165.137 181.47 164.787C182.038 164.436 182.685 164.26 183.413 164.26C183.844 164.26 184.249 164.322 184.626 164.446C185.008 164.569 185.35 164.75 185.656 164.988C185.962 165.224 186.218 165.511 186.423 165.851C186.629 166.188 186.771 166.573 186.848 167.006H186.849ZM192.421 170.211V166.479H193.406V172.791H192.421V171.723H192.355C192.198 172.051 191.957 172.333 191.654 172.541C191.337 172.762 190.937 172.873 190.454 172.873C190.053 172.873 189.698 172.787 189.387 172.615C189.067 172.431 188.811 172.156 188.653 171.826C188.475 171.472 188.386 171.027 188.386 170.491V166.479H189.37V170.424C189.37 170.885 189.5 171.251 189.761 171.525C190.026 171.8 190.362 171.937 190.77 171.937C191.015 171.937 191.264 171.875 191.517 171.752C191.773 171.628 191.986 171.439 192.159 171.185C192.333 170.93 192.421 170.605 192.421 170.211ZM195.208 172.791V166.48H196.158V167.433H196.224C196.342 167.12 196.553 166.867 196.858 166.673C197.166 166.478 197.526 166.376 197.892 166.381C198.065 166.382 198.237 166.388 198.409 166.397V167.384C198.333 167.368 198.257 167.356 198.18 167.347C198.063 167.328 197.939 167.318 197.808 167.318C197.498 167.318 197.219 167.383 196.975 167.511C196.735 167.632 196.534 167.816 196.396 168.044C196.257 168.271 196.186 168.532 196.191 168.797V172.791H195.208ZM199.575 172.791V166.48H200.526V167.433H200.592C200.712 167.117 200.935 166.85 201.226 166.673C201.535 166.478 201.894 166.376 202.261 166.381C202.433 166.382 202.605 166.388 202.777 166.397V167.384C202.701 167.369 202.625 167.356 202.548 167.347C202.431 167.328 202.307 167.318 202.176 167.318C201.865 167.318 201.587 167.383 201.343 167.511C201.103 167.632 200.903 167.816 200.764 168.044C200.626 168.271 200.555 168.532 200.559 168.797V172.791H199.575ZM206.433 172.923C205.817 172.923 205.285 172.789 204.836 172.52C204.39 172.247 204.033 171.854 203.807 171.386C203.568 170.899 203.448 170.332 203.448 169.684C203.448 169.038 203.568 168.469 203.807 167.976C204.027 167.504 204.377 167.103 204.816 166.817C205.249 166.537 205.755 166.397 206.333 166.397C206.67 166.397 207.004 166.453 207.321 166.561C207.646 166.671 207.943 166.85 208.21 167.096C208.476 167.34 208.689 167.663 208.848 168.065C209.006 168.469 209.085 168.964 209.085 169.553V169.964H204.149V169.125H208.084C208.084 168.77 208.012 168.452 207.867 168.172C207.732 167.9 207.521 167.671 207.259 167.511C206.98 167.345 206.659 167.261 206.333 167.269C205.942 167.269 205.602 167.365 205.316 167.556C205.035 167.742 204.81 167.997 204.661 168.296C204.509 168.6 204.43 168.935 204.432 169.274V169.833C204.432 170.309 204.516 170.713 204.683 171.045C204.852 171.373 205.087 171.624 205.387 171.797C205.707 171.972 206.068 172.06 206.434 172.052C206.692 172.052 206.925 172.016 207.134 171.946C207.345 171.871 207.527 171.762 207.68 171.616C207.833 171.468 207.95 171.285 208.035 171.066L208.985 171.329C208.885 171.647 208.716 171.926 208.481 172.168C208.244 172.405 207.952 172.592 207.605 172.726C207.23 172.862 206.833 172.929 206.433 172.923ZM211.565 168.994V172.791H210.581V166.48H211.532V167.466H211.615C211.766 167.146 211.994 166.887 212.3 166.694C212.605 166.497 213 166.397 213.484 166.397C213.916 166.397 214.296 166.485 214.622 166.66C214.946 166.833 215.199 167.096 215.38 167.449C215.561 167.8 215.651 168.244 215.651 168.78V172.791H214.668V168.847C214.668 168.351 214.537 167.964 214.275 167.687C214.014 167.408 213.656 167.269 213.199 167.269C212.886 167.269 212.605 167.336 212.358 167.47C212.113 167.605 211.92 167.8 211.778 168.058C211.636 168.315 211.565 168.627 211.565 168.994ZM220.233 166.48V167.302H216.916V166.48H220.233ZM217.882 164.967H218.867V170.983C218.867 171.257 218.907 171.463 218.987 171.601C219.058 171.724 219.17 171.819 219.304 171.871C219.435 171.915 219.572 171.937 219.717 171.937C219.824 171.937 219.914 171.931 219.984 171.921L220.15 171.887L220.351 172.759C220.259 172.79 220.166 172.815 220.071 172.833C219.922 172.863 219.769 172.876 219.617 172.873C219.339 172.873 219.066 172.816 218.8 172.697C218.535 172.579 218.308 172.393 218.141 172.159C217.969 171.918 217.882 171.613 217.882 171.247V164.967ZM225.15 172.791V164.376H228.035C228.702 164.376 229.25 164.488 229.677 164.714C230.106 164.935 230.423 165.24 230.628 165.63C230.834 166.018 230.937 166.461 230.937 166.957C230.937 167.452 230.834 167.892 230.628 168.276C230.423 168.659 230.108 168.96 229.682 169.179C229.256 169.396 228.713 169.504 228.052 169.504H225.717V168.583H228.018C228.474 168.583 228.841 168.518 229.119 168.387C229.38 168.273 229.595 168.076 229.728 167.827C229.855 167.583 229.92 167.293 229.92 166.957C229.92 166.619 229.855 166.325 229.728 166.073C229.595 165.817 229.379 165.611 229.115 165.49C228.834 165.35 228.463 165.28 228.001 165.28H226.184V172.791H225.15ZM229.169 169.011L231.269 172.791H230.068L228 169.011H229.169ZM235.059 172.923C234.481 172.923 233.973 172.788 233.538 172.516C233.097 172.237 232.745 171.843 232.52 171.378C232.278 170.89 232.157 170.321 232.157 169.668C232.157 169.011 232.278 168.437 232.519 167.947C232.743 167.48 233.096 167.084 233.537 166.804C233.974 166.533 234.481 166.397 235.059 166.397C235.636 166.397 236.143 166.532 236.576 166.804C237.013 167.075 237.352 167.456 237.594 167.947C237.838 168.437 237.961 169.011 237.961 169.668C237.961 170.32 237.838 170.89 237.594 171.378C237.352 171.866 237.013 172.246 236.576 172.516C236.143 172.788 235.637 172.923 235.059 172.923ZM235.059 172.052C235.498 172.052 235.859 171.941 236.143 171.719C236.427 171.497 236.636 171.205 236.772 170.844C236.909 170.482 236.977 170.09 236.977 169.668C236.977 169.247 236.909 168.853 236.772 168.489C236.649 168.143 236.431 167.837 236.143 167.605C235.859 167.381 235.497 167.268 235.059 167.268C234.62 167.268 234.259 167.381 233.975 167.605C233.691 167.83 233.482 168.124 233.346 168.489C233.207 168.867 233.137 169.266 233.14 169.668C233.14 170.09 233.209 170.482 233.346 170.845C233.482 171.205 233.691 171.497 233.975 171.719C234.259 171.941 234.62 172.052 235.059 172.052ZM240.447 164.376V172.791H239.462V164.376H240.447ZM243.232 164.376V172.791H242.249V164.376H243.232ZM247.635 172.923C247.057 172.923 246.55 172.788 246.114 172.516C245.674 172.237 245.321 171.843 245.097 171.378C244.855 170.89 244.734 170.321 244.734 169.668C244.734 169.011 244.855 168.437 245.097 167.947C245.341 167.456 245.681 167.075 246.114 166.804C246.55 166.533 247.057 166.397 247.635 166.397C248.213 166.397 248.719 166.532 249.153 166.804C249.595 167.082 249.949 167.478 250.17 167.947C250.415 168.437 250.537 169.011 250.537 169.668C250.537 170.32 250.415 170.89 250.17 171.378C249.947 171.844 249.594 172.239 249.153 172.516C248.719 172.788 248.213 172.923 247.635 172.923ZM247.635 172.052C248.075 172.052 248.437 171.941 248.719 171.719C249.003 171.497 249.213 171.205 249.349 170.844C249.488 170.467 249.557 170.069 249.554 169.668C249.554 169.247 249.485 168.853 249.349 168.489C249.226 168.143 249.008 167.837 248.719 167.605C248.437 167.381 248.075 167.268 247.635 167.268C247.196 167.268 246.835 167.381 246.551 167.605C246.263 167.837 246.045 168.143 245.922 168.489C245.784 168.867 245.714 169.266 245.718 169.668C245.718 170.09 245.786 170.482 245.922 170.845C246.058 171.205 246.269 171.497 246.551 171.719C246.835 171.941 247.196 172.052 247.635 172.052ZM256.074 170.21V166.48H257.059V172.791H256.074V171.723H256.008C255.851 172.051 255.61 172.333 255.307 172.541C254.99 172.762 254.59 172.873 254.107 172.873C253.707 172.873 253.351 172.787 253.04 172.615C252.72 172.431 252.464 172.156 252.306 171.826C252.128 171.472 252.039 171.027 252.039 170.491V166.479H253.023V170.424C253.023 170.885 253.154 171.251 253.415 171.525C253.679 171.8 254.015 171.937 254.424 171.937C254.668 171.937 254.917 171.875 255.17 171.752C255.426 171.628 255.64 171.439 255.812 171.185C255.987 170.93 256.074 170.604 256.074 170.21ZM261.646 166.48V167.302H258.327V166.48H261.646ZM259.294 164.967H260.278V170.983C260.278 171.257 260.318 171.463 260.399 171.601C260.47 171.724 260.582 171.819 260.715 171.871C260.847 171.915 260.985 171.937 261.128 171.937C261.237 171.937 261.326 171.931 261.395 171.921L261.562 171.887L261.762 172.759C261.671 172.79 261.577 172.815 261.482 172.833C261.333 172.863 261.181 172.877 261.029 172.873C260.751 172.873 260.478 172.816 260.212 172.697C259.947 172.579 259.719 172.393 259.552 172.159C259.38 171.918 259.294 171.613 259.294 171.247V164.967Z" fill="#A1A1A1"/>
<path d="M304.659 165.077H274.33C272.439 165.077 270.906 166.588 270.906 168.452C270.906 170.316 272.439 171.827 274.33 171.827H304.659C306.55 171.827 308.083 170.316 308.083 168.452C308.083 166.588 306.55 165.077 304.659 165.077Z" fill="#484848"/>
<path d="M437.222 135.666H421.569C417.246 135.666 413.742 139.12 413.742 143.381V158.809C413.742 163.07 417.246 166.524 421.569 166.524H437.222C441.545 166.524 445.049 163.07 445.049 158.809V143.381C445.049 139.12 441.545 135.666 437.222 135.666Z" fill="#484848"/>
<path d="M426.46 145.309L432.33 151.095L426.46 156.881" stroke="white" stroke-width="0.971281"/>
<path d="M452.876 114.451H147.637C143.584 114.451 140.299 117.69 140.299 121.684V180.506C140.299 184.5 143.584 187.739 147.637 187.739H452.876C456.929 187.739 460.214 184.5 460.214 180.506V121.684C460.214 117.69 456.929 114.451 452.876 114.451Z" stroke="#484848" stroke-width="0.968367"/>
</g>
</g>
<g clip-path="url(#clip2_193_993)">
<g clip-path="url(#clip3_193_993)">
<path d="M452.876 27.0012H147.637C143.584 27.0012 140.299 30.2395 140.299 34.2343V93.0557C140.299 97.0504 143.584 100.289 147.637 100.289H452.876C456.929 100.289 460.214 97.0504 460.214 93.0557V34.2343C460.214 30.2395 456.929 27.0012 452.876 27.0012Z" fill="#303030"/>
<path d="M165.262 42.4297H161.319C158.355 42.4297 155.952 44.7982 155.952 47.7198V51.6059C155.952 54.5275 158.355 56.896 161.319 56.896H165.262C168.226 56.896 170.629 54.5275 170.629 51.6059V47.7198C170.629 44.7982 168.226 42.4297 165.262 42.4297Z" fill="#29342B"/>
<path d="M165.247 45.8057H161.334C160.253 45.8057 159.377 46.6691 159.377 47.7343V51.5914C159.377 52.6565 160.253 53.52 161.334 53.52H165.247C166.328 53.52 167.204 52.6565 167.204 51.5914V47.7343C167.204 46.6691 166.328 45.8057 165.247 45.8057Z" fill="#A2CEAD"/>
<path d="M165.262 42.4297H161.319C158.355 42.4297 155.952 44.7982 155.952 47.7198V51.6059C155.952 54.5275 158.355 56.896 161.319 56.896H165.262C168.226 56.896 170.629 54.5275 170.629 51.6059V47.7198C170.629 44.7982 168.226 42.4297 165.262 42.4297Z" stroke="#3A523E" stroke-width="0.968367"/>
<path d="M181.432 43.935V54.9664H180.023V43.935H181.432ZM187.28 46.8819C188.062 46.8819 188.704 47.1036 189.205 47.5453C189.706 47.9773 189.956 48.6205 189.956 49.4739V54.9664H188.704V49.7824C188.704 49.2376 188.563 48.7998 188.281 48.471C188 48.1316 187.561 47.9619 186.967 47.9619C186.267 47.9619 185.699 48.1576 185.26 48.5481C184.832 48.9387 184.619 49.443 184.619 50.0601V54.9664H183.366V47.0979H184.619V48.039H184.65C184.9 47.7102 185.245 47.4373 185.683 47.2213C186.121 46.9947 186.654 46.8819 187.28 46.8819ZM194.876 50.2916C194.97 50.3118 195.33 50.3996 195.956 50.5539C196.592 50.6985 197.078 50.9598 197.412 51.3407C197.746 51.7216 197.913 52.2095 197.913 52.8064C197.913 53.2789 197.777 53.6965 197.506 54.0561C197.234 54.4158 196.858 54.6935 196.379 54.8893C195.909 55.085 195.371 55.1824 194.767 55.1824C193.587 55.1824 192.695 54.9307 192.09 54.4264C191.485 53.9221 191.161 53.2278 191.12 52.3436H192.372C192.424 52.8884 192.607 53.3204 192.92 53.6396C193.243 53.9481 193.859 54.1024 194.767 54.1024C195.393 54.1024 195.863 53.979 196.176 53.7321C196.498 53.4747 196.661 53.1921 196.661 52.8836C196.661 52.575 196.583 52.3339 196.426 52.1584C196.277 51.9818 196.082 51.8484 195.863 51.7727C195.552 51.6561 195.233 51.5633 194.908 51.495L194.469 51.4024C194.317 51.3703 194.166 51.3343 194.015 51.2944C193.564 51.206 193.12 51.0875 192.685 50.9396C192.339 50.8048 192.032 50.5874 191.793 50.307C191.552 50.0187 191.433 49.6224 191.433 49.119C191.433 48.7072 191.552 48.3321 191.793 47.9927C192.032 47.6533 192.377 47.3852 192.826 47.1904C193.286 46.985 193.817 46.8819 194.422 46.8819C195.371 46.8819 196.123 47.1133 196.677 47.5761C197.229 48.039 197.537 48.6301 197.6 49.3504H196.348C196.278 48.975 196.092 48.63 195.816 48.363C195.554 48.0959 195.09 47.9619 194.422 47.9619C193.869 47.9619 193.441 48.0592 193.139 48.255C192.836 48.4507 192.685 48.7082 192.685 49.0264C192.685 49.2733 192.757 49.469 192.904 49.6127C193.051 49.7574 193.233 49.8644 193.452 49.9367C193.681 50.009 194 50.091 194.407 50.1836L194.876 50.2916ZM200.883 48.1779V52.9144C200.883 53.2847 200.971 53.5412 201.149 53.6859C201.326 53.8305 201.619 53.9019 202.026 53.9019C202.203 53.9019 202.344 53.897 202.449 53.8864V54.9664C202.14 55.0309 201.825 55.0619 201.509 55.059C200.915 55.059 200.45 54.9095 200.116 54.6116C199.793 54.3126 199.631 53.789 199.631 53.0379V48.1779H198.457V47.0979H199.631V44.475H200.883V47.0979H202.449V48.1779H200.883ZM208.641 49.1036C208.641 48.3418 208.099 47.9619 207.014 47.9619C206.262 47.9619 205.736 48.0805 205.433 48.3167C205.13 48.553 204.958 48.9599 204.916 49.5356H203.664C203.706 48.7227 203.998 48.0795 204.54 47.607C205.083 47.1239 205.908 46.8819 207.014 46.8819C207.87 46.8819 208.563 47.0776 209.095 47.4681C209.628 47.849 209.894 48.4806 209.894 49.3659V53.1921C209.894 53.5007 209.936 53.7273 210.019 53.871C210.113 54.005 210.296 54.0716 210.567 54.0716C210.661 54.0716 210.739 54.0667 210.802 54.0561V54.9201C210.565 55.0002 210.316 55.0418 210.066 55.0436C209.67 55.0436 209.357 54.9712 209.127 54.8276C208.908 54.6733 208.746 54.3907 208.641 53.979H208.61C208.339 54.3682 207.966 54.6774 207.53 54.8739C207.082 55.0792 206.539 55.1824 205.902 55.1824C205.099 55.1824 204.457 54.977 203.977 54.5653C203.507 54.1535 203.272 53.6135 203.272 52.9453C203.272 52.3696 203.408 51.9116 203.679 51.5721C203.951 51.2327 204.321 50.9752 204.791 50.8007C205.271 50.6156 205.902 50.4507 206.685 50.307C207.076 50.2422 207.463 50.1546 207.843 50.0447C208.104 49.9627 208.303 49.849 208.438 49.7053C208.574 49.5606 208.641 49.361 208.641 49.1036ZM206.027 54.1024C206.81 54.1024 207.442 53.9221 207.921 53.5624C208.402 53.1921 208.641 52.6464 208.641 51.927V50.6156C208.433 50.821 207.818 51.0273 206.794 51.2327C205.98 51.4072 205.396 51.6136 205.041 51.8499C204.697 52.0861 204.525 52.4313 204.525 52.8836C204.525 53.6965 205.026 54.1024 206.027 54.1024ZM215.651 46.8819C216.434 46.8819 217.076 47.1036 217.576 47.5453C218.077 47.9773 218.328 48.6205 218.328 49.4739V54.9664H217.076V49.7824C217.076 49.2376 216.935 48.7998 216.653 48.471C216.371 48.1316 215.933 47.9619 215.338 47.9619C214.639 47.9619 214.07 48.1576 213.632 48.5481C213.203 48.9387 212.99 49.443 212.99 50.0601V54.9664H211.738V47.0979H212.99V48.039H213.021C213.272 47.7102 213.616 47.4373 214.055 47.2213C214.493 46.9947 215.025 46.8819 215.651 46.8819ZM225.674 49.9367C225.633 49.4243 225.418 48.9405 225.064 48.5636C224.698 48.1624 224.15 47.9619 223.42 47.9619C222.543 47.9619 221.886 48.2656 221.448 48.8721C221.019 49.4796 220.806 50.199 220.806 51.0321C220.806 51.8653 221.019 52.5846 221.448 53.1921C221.886 53.7996 222.543 54.1024 223.42 54.1024C224.161 54.1024 224.708 53.9019 225.064 53.5007C225.429 53.0996 225.632 52.6213 225.674 52.0659H226.926C226.904 52.6328 226.728 53.1834 226.417 53.6609C226.106 54.1383 225.671 54.5251 225.158 54.7813C224.646 55.0484 224.067 55.1824 223.42 55.1824C222.647 55.1824 221.969 55.0079 221.385 54.6579C220.799 54.3066 220.327 53.7982 220.023 53.1921C219.71 52.5654 219.554 51.845 219.554 51.0321C219.554 50.2192 219.71 49.4989 220.023 48.8721C220.327 48.266 220.799 47.7576 221.385 47.4064C221.969 47.0564 222.647 46.8819 223.42 46.8819C224.067 46.8819 224.641 47.0159 225.142 47.283C225.653 47.5405 226.06 47.9001 226.363 48.363C226.676 48.8259 226.864 49.3504 226.926 49.9367H225.674ZM231.522 54.1024C232.231 54.1024 232.774 53.9385 233.149 53.6087C233.525 53.2799 233.76 52.9241 233.854 52.5441H235.106C234.907 53.2937 234.475 53.9629 233.87 54.4573C233.275 54.9404 232.508 55.1824 231.569 55.1824C230.775 55.1824 230.081 55.0127 229.487 54.6733C228.903 54.3242 228.435 53.8148 228.14 53.2076C227.827 52.5808 227.671 51.8547 227.671 51.0321C227.671 49.7361 228.015 48.7227 228.704 47.9927C229.393 47.2521 230.326 46.8819 231.506 46.8819C232.737 46.8819 233.666 47.2724 234.292 48.0544C234.918 48.8355 235.231 49.9367 235.231 51.3561H228.923C228.923 51.8499 229.022 52.3079 229.221 52.7293C229.418 53.141 229.711 53.4747 230.097 53.7321C230.493 53.979 230.968 54.1024 231.522 54.1024ZM231.506 47.9619C231.015 47.9619 230.572 48.065 230.175 48.2704C229.797 48.4684 229.479 48.7611 229.252 49.119C229.033 49.4663 228.919 49.8675 228.923 50.2761H233.979C233.979 49.8547 233.874 49.469 233.666 49.119C233.469 48.7598 233.17 48.465 232.805 48.2704C232.429 48.065 231.996 47.9619 231.506 47.9619ZM242.939 44.3053V54.9664H241.53V46.9899C241.228 47.2676 240.919 47.4431 240.606 47.5144C240.304 47.5761 239.86 47.607 239.276 47.607V46.6041C240.163 46.6041 240.789 46.4142 241.154 46.0333C241.53 45.6427 241.76 45.0661 241.843 44.3053H242.939Z" fill="white"/>
<path d="M186.849 79.5557H185.815C185.71 79.0179 185.398 78.5409 184.944 78.225C184.728 78.0701 184.486 77.9531 184.23 77.8788C183.965 77.8016 183.69 77.763 183.413 77.7641C182.896 77.7641 182.428 77.8933 182.008 78.1498C181.591 78.4082 181.26 78.7872 181.012 79.2886C180.768 79.79 180.645 80.4053 180.645 81.1333C180.645 81.8623 180.768 82.4775 181.012 82.9789C181.26 83.4804 181.591 83.8593 182.008 84.1168C182.429 84.3743 182.896 84.5025 183.413 84.5025C183.697 84.5025 183.969 84.4639 184.23 84.3878C184.491 84.3106 184.729 84.1978 184.944 84.0474C185.395 83.7269 185.707 83.2496 185.815 82.7118H186.848C186.779 83.1188 186.635 83.51 186.423 83.8661C186.021 84.5374 185.381 85.0383 184.626 85.272C184.249 85.3945 183.844 85.4562 183.413 85.4562C182.685 85.4562 182.038 85.2816 181.47 84.9306C180.903 84.5796 180.458 84.0821 180.133 83.435C179.807 82.789 179.644 82.0214 179.644 81.1333C179.644 80.2461 179.807 79.4786 180.133 78.8325C180.458 78.1864 180.904 77.6869 181.47 77.3369C182.038 76.9859 182.685 76.8104 183.413 76.8104C183.844 76.8104 184.249 76.8721 184.626 76.9955C185.008 77.119 185.35 77.3003 185.656 77.5384C185.962 77.7737 186.218 78.0611 186.423 78.4015C186.629 78.738 186.771 79.1228 186.848 79.5557H186.849ZM192.421 82.761V79.0292H193.406V85.3414H192.421V84.273H192.355C192.198 84.6014 191.957 84.8834 191.654 85.0907C191.337 85.3125 190.937 85.4234 190.454 85.4234C190.053 85.4234 189.698 85.3366 189.387 85.165C189.067 84.9808 188.811 84.7059 188.653 84.3762C188.475 84.0223 188.386 83.5768 188.386 83.0406V79.0292H189.37V82.9741C189.37 83.435 189.5 83.8015 189.761 84.0753C190.026 84.3501 190.362 84.4871 190.77 84.4871C191.015 84.4871 191.264 84.4254 191.517 84.3019C191.773 84.1785 191.986 83.9895 192.159 83.7349C192.333 83.4804 192.421 83.1554 192.421 82.761ZM195.208 85.3414V79.0302H196.158V79.9829H196.224C196.342 79.6705 196.553 79.4169 196.858 79.223C197.166 79.0277 197.526 78.9261 197.892 78.9309C198.065 78.9322 198.237 78.9377 198.409 78.9473V79.9337C198.333 79.9185 198.257 79.9063 198.18 79.8971C198.063 79.8778 197.939 79.8681 197.808 79.8681C197.498 79.8681 197.219 79.9327 196.975 80.061C196.735 80.1817 196.534 80.3662 196.396 80.5936C196.257 80.821 196.186 81.0822 196.191 81.3474V85.3414H195.208ZM199.575 85.3414V79.0302H200.526V79.9829H200.592C200.712 79.6671 200.935 79.3997 201.226 79.223C201.535 79.0277 201.894 78.9261 202.261 78.9309C202.433 78.9322 202.605 78.9377 202.777 78.9473V79.9337C202.701 79.9185 202.625 79.9063 202.548 79.8971C202.431 79.8778 202.307 79.8681 202.176 79.8681C201.865 79.8681 201.587 79.9327 201.343 80.061C201.103 80.1817 200.903 80.3662 200.764 80.5936C200.626 80.821 200.555 81.0822 200.559 81.3474V85.3414H199.575ZM206.433 85.4726C205.817 85.4726 205.285 85.3385 204.836 85.0705C204.39 84.7974 204.033 84.4038 203.807 83.9365C203.568 83.4485 203.448 82.8815 203.448 82.2345C203.448 81.5884 203.568 81.0185 203.807 80.5258C204.027 80.0544 204.377 79.653 204.816 79.3667C205.249 79.0871 205.755 78.9473 206.333 78.9473C206.67 78.9475 207.004 79.0029 207.321 79.1112C207.646 79.2211 207.943 79.4005 208.21 79.6464C208.476 79.8903 208.689 80.2134 208.848 80.6155C209.006 81.0185 209.085 81.5142 209.085 82.1034V82.5141H204.149V81.6752H208.084C208.084 81.3204 208.012 81.0021 207.867 80.7225C207.732 80.4499 207.521 80.2206 207.259 80.061C206.98 79.8948 206.659 79.8108 206.333 79.819C205.942 79.819 205.602 79.9154 205.316 80.1063C205.035 80.2918 204.81 80.5469 204.661 80.8459C204.509 81.1498 204.43 81.4846 204.432 81.8237V82.383C204.432 82.8594 204.516 83.2634 204.683 83.5951C204.852 83.923 205.087 84.1737 205.387 84.3473C205.707 84.522 206.068 84.6099 206.434 84.6018C206.692 84.6018 206.925 84.5661 207.134 84.4958C207.345 84.4205 207.527 84.3116 207.68 84.166C207.833 84.0184 207.95 83.8352 208.035 83.6163L208.985 83.8786C208.885 84.1968 208.716 84.4765 208.481 84.7175C208.244 84.9548 207.952 85.1418 207.605 85.2759C207.23 85.412 206.833 85.4787 206.433 85.4726ZM211.565 81.5441V85.3414H210.581V79.0302H211.532V80.0157H211.615C211.766 79.6955 211.994 79.4371 212.3 79.2442C212.605 79.0466 213 78.9473 213.484 78.9473C213.916 78.9473 214.296 79.035 214.622 79.2105C214.946 79.3831 215.199 79.6464 215.38 79.9993C215.561 80.3503 215.651 80.7939 215.651 81.33V85.3414H214.668V81.3975C214.668 80.9009 214.537 80.5142 214.275 80.2375C214.014 79.9578 213.656 79.819 213.199 79.819C212.886 79.819 212.605 79.8865 212.358 80.0195C212.113 80.1545 211.92 80.3503 211.778 80.6078C211.636 80.8652 211.565 81.1767 211.565 81.5441ZM220.233 79.0302V79.8518H216.916V79.0302H220.233ZM217.882 77.5172H218.867V83.5334C218.867 83.8073 218.907 84.0126 218.987 84.1505C219.058 84.2737 219.17 84.3691 219.304 84.4205C219.435 84.4649 219.572 84.4871 219.717 84.4871C219.824 84.4871 219.914 84.4813 219.984 84.4707L220.15 84.4369L220.351 85.3086C220.259 85.34 220.166 85.3648 220.071 85.3829C219.922 85.4129 219.769 85.4265 219.617 85.4234C219.339 85.4234 219.066 85.3655 218.8 85.2469C218.535 85.1289 218.308 84.9431 218.141 84.7089C217.969 84.4678 217.882 84.1631 217.882 83.7966V77.5172ZM225.15 85.3414V76.9261H228.035C228.702 76.9261 229.25 77.038 229.677 77.2636C230.106 77.4854 230.423 77.7901 230.628 78.1797C230.834 78.5683 230.937 79.0109 230.937 79.5065C230.937 80.0022 230.834 80.4419 230.628 80.8257C230.423 81.2095 230.108 81.5103 229.682 81.7292C229.256 81.9462 228.713 82.0542 228.052 82.0542H225.717V81.1333H228.018C228.474 81.1333 228.841 81.0677 229.119 80.9366C229.38 80.8227 229.595 80.6257 229.728 80.3773C229.855 80.1333 229.92 79.8431 229.92 79.5065C229.92 79.169 229.855 78.8749 229.728 78.6233C229.595 78.3667 229.379 78.1613 229.115 78.0399C228.834 77.9 228.463 77.8296 228.001 77.8296H226.184V85.3414H225.15ZM229.169 81.5614L231.269 85.3414H230.068L228 81.5614H229.169ZM235.059 85.4726C234.481 85.4726 233.973 85.3376 233.538 85.0656C233.097 84.7873 232.745 84.3932 232.52 83.9278C232.278 83.4399 232.157 82.8709 232.157 82.2181C232.157 81.5614 232.278 80.9867 232.519 80.4969C232.743 80.0295 233.096 79.6336 233.537 79.3542C233.974 79.0832 234.481 78.9473 235.059 78.9473C235.636 78.9473 236.143 79.0823 236.576 79.3542C237.013 79.6251 237.352 80.006 237.594 80.4969C237.838 80.9867 237.961 81.5614 237.961 82.2181C237.961 82.87 237.838 83.4399 237.594 83.9278C237.352 84.4157 237.013 84.7956 236.576 85.0656C236.143 85.3376 235.637 85.4726 235.059 85.4726ZM235.059 84.6018C235.498 84.6018 235.859 84.4909 236.143 84.2691C236.427 84.0474 236.636 83.7552 236.772 83.3936C236.909 83.032 236.977 82.6405 236.977 82.2181C236.977 81.7967 236.909 81.4033 236.772 81.0388C236.649 80.6928 236.431 80.3871 236.143 80.1555C235.859 79.9308 235.497 79.818 235.059 79.818C234.62 79.818 234.259 79.9308 233.975 80.1555C233.691 80.3802 233.482 80.6743 233.346 81.0388C233.207 81.4167 233.137 81.8161 233.14 82.2181C233.14 82.6405 233.209 83.032 233.346 83.3945C233.482 83.7552 233.691 84.0474 233.975 84.2691C234.259 84.4909 234.62 84.6018 235.059 84.6018ZM240.447 76.9261V85.3414H239.462V76.9261H240.447ZM243.232 76.9261V85.3414H242.249V76.9261H243.232ZM247.635 85.4726C247.057 85.4726 246.55 85.3376 246.114 85.0656C245.674 84.7872 245.321 84.3931 245.097 83.9278C244.855 83.4399 244.734 82.8709 244.734 82.2181C244.734 81.5614 244.855 80.9867 245.097 80.4969C245.341 80.006 245.681 79.6251 246.114 79.3542C246.55 79.0832 247.057 78.9473 247.635 78.9473C248.213 78.9473 248.719 79.0823 249.153 79.3542C249.595 79.6316 249.949 80.0281 250.17 80.4969C250.415 80.9867 250.537 81.5614 250.537 82.2181C250.537 82.87 250.415 83.4399 250.17 83.9278C249.947 84.3945 249.594 84.7891 249.153 85.0656C248.719 85.3376 248.213 85.4726 247.635 85.4726ZM247.635 84.6018C248.075 84.6018 248.437 84.4909 248.719 84.2691C249.003 84.0474 249.213 83.7552 249.349 83.3936C249.488 83.0169 249.557 82.6188 249.554 82.2181C249.554 81.7967 249.485 81.4033 249.349 81.0388C249.226 80.6926 249.008 80.3869 248.719 80.1555C248.437 79.9308 248.075 79.818 247.635 79.818C247.196 79.818 246.835 79.9308 246.551 80.1555C246.263 80.3872 246.045 80.6929 245.922 81.0388C245.784 81.4168 245.714 81.8162 245.718 82.2181C245.718 82.6405 245.786 83.032 245.922 83.3945C246.058 83.7552 246.269 84.0474 246.551 84.2691C246.835 84.4909 247.196 84.6018 247.635 84.6018ZM256.074 82.76V79.0302H257.059V85.3414H256.074V84.273H256.008C255.851 84.6014 255.61 84.8835 255.307 85.0907C254.99 85.3125 254.59 85.4234 254.107 85.4234C253.707 85.4234 253.351 85.3366 253.04 85.165C252.72 84.9807 252.464 84.7058 252.306 84.3762C252.128 84.0223 252.039 83.5768 252.039 83.0406V79.0292H253.023V82.9741C253.023 83.435 253.154 83.8015 253.415 84.0753C253.679 84.3501 254.015 84.4871 254.424 84.4871C254.668 84.4871 254.917 84.4254 255.17 84.3019C255.426 84.1785 255.64 83.9895 255.812 83.7349C255.987 83.4804 256.074 83.1544 256.074 82.76ZM261.646 79.0302V79.8518H258.327V79.0302H261.646ZM259.294 77.5172H260.278V83.5334C260.278 83.8073 260.318 84.0126 260.399 84.1505C260.47 84.2736 260.582 84.3689 260.715 84.4205C260.847 84.4649 260.985 84.4871 261.128 84.4871C261.237 84.4871 261.326 84.4813 261.395 84.4707L261.562 84.4369L261.762 85.3086C261.671 85.3401 261.577 85.3649 261.482 85.3829C261.333 85.4129 261.181 85.4265 261.029 85.4234C260.751 85.4234 260.478 85.3655 260.212 85.2469C259.947 85.1289 259.719 84.9431 259.552 84.7089C259.38 84.4678 259.294 84.1631 259.294 83.7966V77.5172Z" fill="#A1A1A1"/>
<path d="M328.138 77.6271H274.33C272.439 77.6271 270.906 79.1382 270.906 81.0021C270.906 82.8661 272.439 84.3771 274.33 84.3771H328.138C330.029 84.3771 331.562 82.8661 331.562 81.0021C331.562 79.1382 330.029 77.6271 328.138 77.6271Z" fill="#484848"/>
<path d="M437.222 48.2164H421.569C417.246 48.2164 413.742 51.6702 413.742 55.9307V71.3593C413.742 75.6198 417.246 79.0736 421.569 79.0736H437.222C441.545 79.0736 445.049 75.6198 445.049 71.3593V55.9307C445.049 51.6702 441.545 48.2164 437.222 48.2164Z" fill="#484848"/>
<path d="M426.46 57.8593L432.33 63.645L426.46 69.4307" stroke="white" stroke-width="0.971281"/>
<path d="M452.876 27.0012H147.637C143.584 27.0012 140.299 30.2395 140.299 34.2343V93.0557C140.299 97.0504 143.584 100.289 147.637 100.289H452.876C456.929 100.289 460.214 97.0504 460.214 93.0557V34.2343C460.214 30.2395 456.929 27.0012 452.876 27.0012Z" stroke="#484848" stroke-width="0.968367"/>
</g>
</g>
<defs>
<clipPath id="clip0_193_993">
<rect width="320.891" height="74.25" fill="white" transform="translate(139.811 113.97)"/>
</clipPath>
<clipPath id="clip1_193_993">
<rect width="320.891" height="74.25" fill="white" transform="translate(139.811 113.97)"/>
</clipPath>
<clipPath id="clip2_193_993">
<rect width="320.891" height="74.25" fill="white" transform="translate(139.811 26.52)"/>
</clipPath>
<clipPath id="clip3_193_993">
<rect width="320.891" height="74.25" fill="white" transform="translate(139.811 26.52)"/>
</clipPath>
</defs>
</svg>
