<svg width="21" height="21" viewBox="0 0 21 21" fill="none" xmlns="http://www.w3.org/2000/svg">
<g clip-path="url(#clip0_193_612)">
<g clip-path="url(#clip1_193_612)">
<mask id="mask0_193_612" style="mask-type:luminance" maskUnits="userSpaceOnUse" x="0" y="0" width="21" height="21">
<path d="M20.0596 0.5H0.0595703V20.5H20.0596V0.5Z" fill="white"/>
</mask>
<g mask="url(#mask0_193_612)">
<path d="M10.0596 0.5C4.5379 0.5 0.0595703 4.9775 0.0595703 10.5C0.0595703 14.9183 2.92457 18.6667 6.89874 19.9892C7.3979 20.0817 7.55957 19.7717 7.55957 19.5083V17.6467C4.7779 18.2517 4.19874 16.4667 4.19874 16.4667C3.74374 15.3108 3.0879 15.0033 3.0879 15.0033C2.1804 14.3825 3.15707 14.3958 3.15707 14.3958C4.16124 14.4658 4.68957 15.4267 4.68957 15.4267C5.58124 16.955 7.02874 16.5133 7.59957 16.2575C7.68874 15.6117 7.9479 15.17 8.23457 14.9208C6.01374 14.6667 3.67874 13.8092 3.67874 9.97833C3.67874 8.88583 4.06957 7.99417 4.70874 7.29417C4.6054 7.04167 4.2629 6.02417 4.80624 4.6475C4.80624 4.6475 5.64624 4.37917 7.55707 5.6725C8.35457 5.45083 9.20957 5.34 10.0596 5.33583C10.9096 5.34 11.7654 5.45083 12.5646 5.6725C14.4738 4.37917 15.3121 4.6475 15.3121 4.6475C15.8563 6.025 15.5138 7.0425 15.4104 7.29417C16.0521 7.99417 16.4396 8.88667 16.4396 9.97833C16.4396 13.8192 14.1004 14.665 11.8738 14.9125C12.2321 15.2225 12.5596 15.8308 12.5596 16.7642V19.5083C12.5596 19.7742 12.7196 20.0867 13.2271 19.9883C17.1979 18.6642 20.0596 14.9167 20.0596 10.5C20.0596 4.9775 15.5821 0.5 10.0596 0.5Z" fill="#262626"/>
</g>
</g>
</g>
<defs>
<clipPath id="clip0_193_612">
<rect width="20" height="20" fill="white" transform="translate(0.0595703 0.5)"/>
</clipPath>
<clipPath id="clip1_193_612">
<rect width="20" height="20" fill="white" transform="translate(0.0595703 0.5)"/>
</clipPath>
</defs>
</svg>
