<svg width="342" height="181" viewBox="0 0 342 181" fill="none" xmlns="http://www.w3.org/2000/svg">
<g opacity="0.5" clip-path="url(#clip0_193_1152)">
<g clip-path="url(#clip1_193_1152)">
<path d="M321.187 113.197H19.863C16.578 113.197 13.915 115.856 13.915 119.137V157.145C13.915 160.426 16.578 163.085 19.863 163.085H321.187C324.471 163.085 327.134 160.426 327.134 157.145V119.137C327.134 115.856 324.471 113.197 321.187 113.197Z" fill="#303030"/>
<path d="M46.7403 125.898H30.9205C28.518 125.898 26.5703 127.843 26.5703 130.242V146.039C26.5703 148.438 28.518 150.383 30.9205 150.383H46.7403C49.1429 150.383 51.0905 148.438 51.0905 146.039V130.242C51.0905 127.843 49.1429 125.898 46.7403 125.898Z" fill="#484848"/>
<path fill-rule="evenodd" clip-rule="evenodd" d="M37.446 132.81V135.969H40.2135V132.81H41.4005V135.969H43.3782V137.154H41.3997V139.128H43.3774V140.313H41.3997V143.472H40.2135V140.313H37.4452V143.472H36.2581V140.313H34.2812V139.128H36.2581V137.154H34.2812V135.969H36.2581V132.81H37.446ZM37.446 137.154V139.128H40.2135V137.154H37.446Z" fill="white"/>
<path d="M46.7403 125.898H30.9205C28.518 125.898 26.5703 127.843 26.5703 130.242V146.039C26.5703 148.438 28.518 150.383 30.9205 150.383H46.7403C49.1429 150.383 51.0905 148.438 51.0905 146.039V130.242C51.0905 127.843 49.1429 125.898 46.7403 125.898Z" stroke="#585858" stroke-width="0.790021"/>
<path d="M67.5838 135.81C67.5838 136.921 66.9256 137.427 66.1786 137.68V137.705C67.1278 137.869 67.9382 138.59 67.9382 139.942C67.9382 141.61 66.7488 142.571 64.8758 142.571H60.9775V133.534H64.622C66.4696 133.534 67.5838 134.407 67.5838 135.81ZM62.1162 137.313H64.7997C66.0906 137.313 66.4451 136.758 66.4451 135.936C66.4451 135.115 65.9637 134.546 64.9257 134.546H62.1162V137.313ZM62.1162 138.325V141.559H64.9892C66.4443 141.559 66.7987 140.789 66.7987 139.942C66.7987 138.969 66.1913 138.325 65.2421 138.325H62.1162ZM73.248 136.126H74.2606V142.571H73.248V141.8H73.2226C72.8808 142.254 72.1973 142.748 71.0966 142.748C69.9191 142.748 68.9318 142.103 68.9318 140.624V136.126H69.9444V140.371C69.9444 141.205 70.337 141.863 71.3496 141.863C72.4883 141.863 73.248 141.142 73.248 140.144V136.126ZM76.289 134.875C76.0107 134.875 75.6562 134.659 75.6562 134.268C75.6562 133.876 76.0107 133.661 76.289 133.661C76.58 133.661 76.9218 133.876 76.9218 134.268C76.9218 134.659 76.5808 134.875 76.289 134.875ZM75.7831 136.126H76.7949V142.571H75.7831V136.126ZM78.2278 133.535H79.2404V142.57H78.2278V133.535ZM85.2678 133.535H86.2804V142.57H85.2678V141.775H85.2424C84.8634 142.267 84.2552 142.748 83.218 142.748C81.5979 142.748 80.3078 141.471 80.3078 139.348C80.3078 137.226 81.5979 135.948 83.218 135.948C84.2552 135.948 84.8634 136.404 85.2424 136.96H85.2678V133.535ZM83.3195 141.863C84.5216 141.863 85.2678 140.865 85.2678 139.348C85.2678 137.831 84.5216 136.833 83.3195 136.833C81.9904 136.833 81.3196 138.084 81.3196 139.348C81.3196 140.611 81.9904 141.863 83.3195 141.863ZM91.1017 136.454H89.9614C89.9614 134.849 91.0121 133.662 93.1761 133.662C94.6692 133.662 95.9856 134.533 95.9856 136.075C95.9856 136.998 95.5296 137.579 94.6439 137.933V137.958C95.8841 138.298 96.302 139.095 96.302 140.119C96.302 141.837 95.0744 142.748 93.2014 142.748C90.974 142.748 89.7338 141.585 89.7338 139.614H90.8725C90.8725 140.877 91.4545 141.736 93.1126 141.736C94.6185 141.736 95.1633 141.168 95.1633 140.119C95.1633 138.754 94.1633 138.514 93.3156 138.514H92.3799V137.503H93.2657C94.1641 137.503 94.8477 137.086 94.8477 136.075C94.8477 135.367 94.3663 134.672 93.1769 134.672C91.468 134.672 91.1017 135.595 91.1017 136.454Z" fill="white"/>
<path d="M150.071 130.408H149.166C149.074 129.93 148.8 129.507 148.403 129.226C148.214 129.089 148.002 128.986 147.778 128.92C147.546 128.851 147.305 128.817 147.063 128.818C146.61 128.818 146.2 128.932 145.832 129.161C145.467 129.389 145.176 129.726 144.959 130.17C144.745 130.615 144.638 131.161 144.638 131.808C144.638 132.455 144.745 133 144.959 133.444C145.176 133.889 145.467 134.227 145.832 134.455C146.2 134.684 146.61 134.798 147.063 134.798C147.311 134.798 147.55 134.764 147.778 134.696C148.007 134.627 148.215 134.527 148.403 134.393C148.799 134.109 149.071 133.685 149.166 133.208H150.071C150.011 133.569 149.885 133.916 149.699 134.232C149.519 134.533 149.295 134.791 149.027 135.002C148.757 135.212 148.452 135.374 148.125 135.479C147.782 135.591 147.424 135.646 147.063 135.643C146.425 135.643 145.858 135.488 145.361 135.176C144.865 134.866 144.474 134.424 144.189 133.85C143.904 133.276 143.762 132.596 143.762 131.808C143.762 131.02 143.904 130.34 144.189 129.766C144.474 129.192 144.865 128.75 145.361 128.438C145.858 128.127 146.425 127.971 147.063 127.971C147.44 127.971 147.794 128.027 148.125 128.136C148.458 128.245 148.76 128.405 149.027 128.617C149.295 128.826 149.519 129.081 149.699 129.383C149.879 129.682 150.003 130.024 150.071 130.408ZM151.418 135.541V129.941H152.25V130.787H152.309C152.411 130.51 152.596 130.285 152.864 130.112C153.134 129.939 153.449 129.849 153.77 129.853C153.833 129.853 153.912 129.854 154.007 129.857C154.102 129.859 154.173 129.863 154.223 129.868V130.743C154.156 130.729 154.089 130.718 154.021 130.71C153.914 130.693 153.805 130.684 153.697 130.685C153.424 130.685 153.181 130.742 152.967 130.856C152.759 130.964 152.585 131.125 152.462 131.323C152.341 131.519 152.28 131.744 152.28 131.997V135.541H151.418ZM157.425 135.658C156.885 135.658 156.418 135.54 156.027 135.3C155.635 135.059 155.322 134.71 155.124 134.295C154.915 133.862 154.81 133.359 154.81 132.785C154.81 132.212 154.915 131.706 155.124 131.268C155.317 130.85 155.624 130.494 156.008 130.24C156.387 129.992 156.831 129.868 157.337 129.868C157.629 129.868 157.918 129.917 158.203 130.013C158.487 130.111 158.746 130.269 158.98 130.488C159.214 130.704 159.4 130.991 159.539 131.348C159.677 131.706 159.747 132.146 159.747 132.668V133.033H155.424V132.288H158.871C158.871 131.973 158.808 131.691 158.681 131.443C158.562 131.201 158.378 130.997 158.148 130.856C157.904 130.708 157.623 130.634 157.337 130.641C156.994 130.641 156.697 130.726 156.446 130.896C156.201 131.061 156.003 131.287 155.873 131.553C155.739 131.822 155.67 132.12 155.672 132.421V132.916C155.672 133.339 155.745 133.698 155.891 133.992C156.039 134.284 156.245 134.506 156.508 134.659C156.771 134.81 157.076 134.886 157.425 134.886C157.651 134.886 157.856 134.854 158.038 134.791C158.223 134.725 158.383 134.627 158.517 134.498C158.655 134.36 158.761 134.193 158.827 134.01L159.659 134.243C159.572 134.525 159.424 134.774 159.218 134.988C159 135.206 158.739 135.375 158.451 135.483C158.122 135.604 157.774 135.664 157.425 135.658ZM162.708 135.673C162.375 135.677 162.045 135.609 161.741 135.472C161.461 135.344 161.222 135.141 161.051 134.886C160.88 134.627 160.795 134.316 160.795 133.951C160.795 133.631 160.858 133.371 160.985 133.171C161.112 132.969 161.281 132.812 161.493 132.698C161.704 132.583 161.938 132.498 162.194 132.442C162.452 132.383 162.711 132.337 162.971 132.303C163.312 132.26 163.588 132.227 163.8 132.205C164.014 132.181 164.17 132.141 164.268 132.085C164.368 132.029 164.418 131.931 164.418 131.793V131.764C164.418 131.404 164.319 131.124 164.122 130.925C163.927 130.726 163.631 130.626 163.235 130.626C162.823 130.626 162.5 130.717 162.266 130.896C162.033 131.076 161.868 131.268 161.774 131.472L160.956 131.181C161.102 130.84 161.297 130.575 161.54 130.386C161.786 130.194 162.054 130.06 162.343 129.985C162.624 129.908 162.914 129.869 163.205 129.868C163.385 129.868 163.592 129.89 163.826 129.933C164.062 129.975 164.289 130.061 164.509 130.192C164.73 130.324 164.914 130.522 165.06 130.786C165.206 131.052 165.279 131.406 165.279 131.851V135.541H164.418V134.783H164.373C164.298 134.928 164.199 135.06 164.082 135.173C163.925 135.325 163.74 135.445 163.538 135.527C163.311 135.624 163.035 135.673 162.708 135.673ZM162.84 134.9C163.181 134.9 163.468 134.833 163.702 134.699C163.916 134.583 164.095 134.412 164.221 134.204C164.347 133.996 164.415 133.757 164.418 133.514V132.726C164.381 132.771 164.3 132.81 164.177 132.847C164.037 132.884 163.895 132.915 163.752 132.938C163.478 132.98 163.203 133.017 162.928 133.048C162.714 133.075 162.504 133.122 162.3 133.19C162.107 133.253 161.952 133.349 161.832 133.478C161.715 133.604 161.657 133.777 161.657 133.996C161.657 134.294 161.768 134.521 161.989 134.673C162.213 134.824 162.496 134.9 162.84 134.9ZM169.291 129.941V130.67H166.384V129.941H169.291V129.941ZM167.232 128.599H168.093V133.937C168.093 134.18 168.129 134.362 168.199 134.483C168.261 134.593 168.359 134.679 168.477 134.725C168.591 134.764 168.712 134.783 168.839 134.783C168.934 134.783 169.011 134.778 169.073 134.768L169.218 134.739L169.394 135.512C169.314 135.54 169.232 135.562 169.149 135.578C169.018 135.604 168.884 135.617 168.751 135.614C168.507 135.614 168.268 135.562 168.035 135.457C167.804 135.352 167.604 135.188 167.458 134.98C167.307 134.766 167.232 134.497 167.232 134.171V128.599ZM172.879 135.658C172.339 135.658 171.872 135.54 171.48 135.3C171.089 135.058 170.776 134.709 170.578 134.295C170.369 133.862 170.264 133.359 170.264 132.785C170.264 132.212 170.369 131.706 170.578 131.268C170.771 130.85 171.077 130.494 171.462 130.24C171.842 129.992 172.285 129.868 172.792 129.868C173.083 129.868 173.372 129.917 173.657 130.013C173.941 130.111 174.201 130.269 174.435 130.488C174.668 130.704 174.854 130.991 174.993 131.348C175.132 131.706 175.201 132.146 175.201 132.668V133.033H170.878V132.288H174.325C174.325 131.973 174.262 131.691 174.135 131.443C174.016 131.201 173.832 130.998 173.602 130.856C173.358 130.708 173.077 130.634 172.792 130.641C172.448 130.641 172.151 130.726 171.9 130.896C171.655 131.061 171.457 131.287 171.327 131.553C171.193 131.822 171.124 132.12 171.126 132.421V132.916C171.126 133.339 171.199 133.698 171.345 133.992C171.493 134.284 171.7 134.506 171.962 134.659C172.225 134.81 172.531 134.886 172.879 134.886C173.106 134.886 173.309 134.854 173.493 134.791C173.677 134.725 173.837 134.627 173.971 134.498C174.109 134.36 174.215 134.193 174.281 134.01L175.113 134.243C175.026 134.525 174.879 134.774 174.672 134.988C174.455 135.206 174.193 135.375 173.905 135.483C173.576 135.604 173.229 135.664 172.879 135.658ZM178.63 135.658C178.162 135.658 177.75 135.54 177.392 135.304C177.034 135.067 176.754 134.731 176.553 134.299C176.35 133.863 176.249 133.349 176.249 132.756C176.249 132.167 176.35 131.657 176.553 131.224C176.754 130.792 177.036 130.458 177.396 130.222C177.756 129.986 178.173 129.868 178.644 129.868C179.01 129.868 179.298 129.929 179.51 130.05C179.724 130.169 179.887 130.306 180 130.458C180.114 130.609 180.203 130.733 180.266 130.831H180.339V128.074H181.201V135.541H180.368V134.681H180.266C180.203 134.783 180.112 134.912 179.996 135.068C179.859 135.238 179.688 135.378 179.495 135.479C179.279 135.598 178.99 135.658 178.63 135.658ZM178.747 134.886C179.092 134.886 179.384 134.795 179.623 134.616C179.862 134.433 180.043 134.182 180.167 133.861C180.291 133.537 180.353 133.164 180.353 132.741C180.353 132.323 180.292 131.957 180.171 131.644C180.049 131.327 179.869 131.082 179.63 130.907C179.392 130.73 179.097 130.641 178.747 130.641C178.382 130.641 178.077 130.735 177.834 130.922C177.585 131.117 177.397 131.379 177.29 131.676C177.17 131.993 177.111 132.348 177.111 132.741C177.111 133.14 177.172 133.501 177.293 133.828C177.418 134.151 177.6 134.409 177.841 134.6C178.085 134.791 178.387 134.886 178.747 134.886Z" fill="#A1A1A1"/>
<path d="M219.693 141.992H146.926C145.178 141.992 143.762 143.406 143.762 145.151C143.762 146.896 145.178 148.311 146.926 148.311H219.693C221.441 148.311 222.857 146.896 222.857 145.151C222.857 143.406 221.441 141.992 219.693 141.992Z" fill="#484848"/>
<path d="M309.188 129.139H267.034C264.025 129.139 261.585 131.576 261.585 134.581V141.702C261.585 144.707 264.025 147.143 267.034 147.143H309.188C312.197 147.143 314.637 144.707 314.637 141.702V134.581C314.637 131.576 312.197 129.139 309.188 129.139Z" fill="#262626"/>
<path d="M272.422 140.965V135.222H274.472C274.918 135.222 275.288 135.298 275.582 135.451C275.878 135.605 276.099 135.817 276.245 136.088C276.391 136.357 276.464 136.669 276.464 137.022C276.464 137.374 276.39 137.683 276.242 137.95C276.091 138.22 275.859 138.437 275.579 138.57C275.285 138.718 274.915 138.792 274.469 138.792H272.917V138.046H274.391C274.672 138.046 274.901 138.006 275.077 137.925C275.242 137.855 275.38 137.732 275.467 137.575C275.553 137.404 275.596 137.214 275.591 137.022C275.591 136.805 275.549 136.618 275.464 136.458C275.378 136.297 275.241 136.168 275.074 136.094C274.898 136.007 274.666 135.965 274.38 135.965H273.29V140.965H272.422ZM275.262 138.374L276.683 140.965H275.694L274.301 138.374H275.262ZM279.216 141.053C278.812 141.053 278.459 140.96 278.157 140.775C277.853 140.588 277.61 140.318 277.455 139.998C277.288 139.665 277.205 139.277 277.205 138.832C277.205 138.384 277.288 137.994 277.455 137.659C277.609 137.337 277.853 137.067 278.157 136.879C278.459 136.694 278.812 136.602 279.216 136.602C279.62 136.602 279.973 136.694 280.275 136.879C280.576 137.064 280.811 137.324 280.977 137.659C281.144 137.994 281.227 138.384 281.227 138.831C281.227 139.277 281.144 139.665 280.977 139.998C280.811 140.33 280.576 140.59 280.275 140.775C279.973 140.96 279.62 141.053 279.216 141.053ZM279.218 140.348C279.481 140.348 279.698 140.279 279.87 140.141C280.047 139.996 280.179 139.805 280.252 139.588C280.337 139.359 280.379 139.105 280.379 138.828C280.381 138.571 280.339 138.314 280.252 138.071C280.18 137.853 280.047 137.66 279.87 137.513C279.698 137.373 279.481 137.302 279.218 137.302C278.954 137.302 278.736 137.373 278.562 137.513C278.385 137.66 278.251 137.853 278.176 138.071C278.094 138.301 278.053 138.554 278.053 138.828C278.053 139.105 278.094 139.359 278.176 139.588C278.261 139.818 278.389 140.003 278.562 140.141C278.736 140.28 278.954 140.348 279.218 140.348ZM283.004 135.222V140.965H282.164V135.222H283.004ZM284.974 135.222V140.965H284.134V135.222H284.974ZM286.171 140.965V135.222H287.011V137.356H287.062C287.123 137.246 287.194 137.142 287.273 137.044C287.364 136.926 287.491 136.824 287.654 136.736C287.817 136.646 288.032 136.601 288.3 136.601C288.648 136.601 288.959 136.689 289.233 136.865C289.506 137.04 289.721 137.294 289.876 137.626C290.034 137.956 290.112 138.354 290.112 138.82C290.112 139.285 290.035 139.685 289.879 140.018C289.741 140.328 289.519 140.593 289.238 140.783C288.962 140.963 288.638 141.055 288.309 141.05C288.047 141.05 287.832 141.006 287.666 140.918C287.517 140.843 287.385 140.738 287.278 140.609C287.198 140.511 287.125 140.406 287.062 140.296H286.992V140.965H286.171ZM286.994 138.812C286.994 139.114 287.039 139.38 287.127 139.608C287.215 139.836 287.342 140.014 287.508 140.144C287.675 140.27 287.879 140.334 288.12 140.334C288.372 140.334 288.581 140.268 288.75 140.136C288.918 140.001 289.046 139.819 289.132 139.588C289.22 139.359 289.264 139.1 289.264 138.812C289.264 138.527 289.221 138.272 289.135 138.046C289.061 137.834 288.928 137.648 288.752 137.51C288.584 137.379 288.373 137.314 288.12 137.314C287.877 137.314 287.671 137.377 287.503 137.502C287.329 137.637 287.197 137.819 287.124 138.026C287.033 138.278 286.989 138.544 286.994 138.812ZM292.311 141.061C292.038 141.061 291.79 141.011 291.569 140.909C291.356 140.813 291.174 140.658 291.044 140.463C290.916 140.269 290.853 140.03 290.853 139.748C290.853 139.505 290.9 139.305 290.993 139.148C291.087 138.991 291.214 138.867 291.372 138.775C291.532 138.683 291.71 138.615 291.906 138.568C292.103 138.52 292.303 138.485 292.507 138.461L293.137 138.388C293.298 138.367 293.415 138.335 293.488 138.29C293.561 138.245 293.597 138.172 293.597 138.071V138.052C293.597 137.806 293.528 137.616 293.39 137.481C293.252 137.347 293.049 137.28 292.777 137.28C292.494 137.28 292.271 137.343 292.109 137.468C291.947 137.591 291.836 137.729 291.774 137.88L290.985 137.701C291.079 137.439 291.215 137.228 291.395 137.067C291.577 136.904 291.785 136.786 292.022 136.713C292.262 136.638 292.513 136.6 292.766 136.602C292.938 136.602 293.121 136.622 293.313 136.663C293.509 136.703 293.69 136.775 293.858 136.882C294.029 136.988 294.168 137.141 294.277 137.339C294.386 137.535 294.44 137.79 294.44 138.105V140.965H293.62V140.376H293.586C293.523 140.496 293.441 140.604 293.342 140.696C293.22 140.809 293.078 140.898 292.923 140.958C292.728 141.031 292.52 141.066 292.311 141.06V141.061ZM292.494 140.388C292.726 140.388 292.924 140.342 293.089 140.25C293.256 140.159 293.382 140.039 293.468 139.891C293.555 139.746 293.6 139.581 293.6 139.412V138.857C293.549 138.898 293.49 138.926 293.426 138.941C293.331 138.967 293.234 138.989 293.137 139.005L292.819 139.052L292.561 139.086C292.409 139.105 292.259 139.139 292.114 139.19C291.991 139.232 291.881 139.304 291.794 139.401C291.712 139.502 291.67 139.629 291.676 139.76C291.676 139.967 291.753 140.124 291.906 140.231C292.06 140.335 292.256 140.388 292.494 140.388ZM297.376 141.053C296.958 141.053 296.599 140.958 296.297 140.769C295.997 140.577 295.757 140.304 295.606 139.981C295.445 139.646 295.365 139.263 295.365 138.832C295.365 138.394 295.447 138.008 295.612 137.673C295.776 137.337 296.009 137.074 296.309 136.884C296.608 136.696 296.961 136.602 297.367 136.602C297.695 136.602 297.987 136.662 298.244 136.784C298.5 136.903 298.707 137.072 298.864 137.288C299.024 137.505 299.118 137.759 299.148 138.048H298.331C298.286 137.846 298.178 137.664 298.022 137.527C297.863 137.381 297.649 137.308 297.381 137.308C297.147 137.308 296.942 137.37 296.766 137.493C296.592 137.614 296.457 137.789 296.359 138.015C296.256 138.268 296.207 138.539 296.213 138.812C296.213 139.125 296.261 139.397 296.356 139.625C296.452 139.853 296.587 140.03 296.761 140.155C296.937 140.281 297.144 140.343 297.381 140.343C297.541 140.343 297.685 140.314 297.814 140.256C297.945 140.197 298.055 140.111 298.143 140.001C298.232 139.89 298.295 139.758 298.331 139.603H299.148C299.122 139.87 299.029 140.127 298.876 140.349C298.721 140.57 298.511 140.748 298.266 140.865C298.013 140.99 297.717 141.053 297.376 141.053ZM300.819 139.504L300.813 138.481H300.959L302.678 136.657H303.684L301.723 138.733H301.591L300.819 139.504ZM300.047 140.965V135.222H300.886V140.965H300.047ZM302.771 140.965L301.226 138.918L301.805 138.332L303.802 140.965H302.771Z" fill="white"/>
<path d="M309.188 129.139H267.034C264.025 129.139 261.585 131.576 261.585 134.581V141.702C261.585 144.707 264.025 147.143 267.034 147.143H309.188C312.197 147.143 314.637 144.707 314.637 141.702V134.581C314.637 131.576 312.197 129.139 309.188 129.139Z" stroke="#484848" stroke-width="0.473854"/>
<path d="M321.187 113.197H19.863C16.578 113.197 13.915 115.856 13.915 119.137V157.145C13.915 160.426 16.578 163.085 19.863 163.085H321.187C324.471 163.085 327.134 160.426 327.134 157.145V119.137C327.134 115.856 324.471 113.197 321.187 113.197Z" stroke="#484848" stroke-width="0.790021"/>
</g>
</g>
<g opacity="0.5" clip-path="url(#clip2_193_1152)">
<g clip-path="url(#clip3_193_1152)">
<path d="M321.187 16.2727H19.863C16.578 16.2727 13.915 18.932 13.915 22.2123V60.221C13.915 63.5013 16.578 66.1606 19.863 66.1606H321.187C324.471 66.1606 327.134 63.5013 327.134 60.221V22.2123C327.134 18.932 324.471 16.2727 321.187 16.2727Z" fill="#303030"/>
<path d="M46.7403 28.9739H30.9205C28.518 28.9739 26.5703 30.9188 26.5703 33.3179V49.1149C26.5703 51.514 28.518 53.4588 30.9205 53.4588H46.7403C49.1429 53.4588 51.0905 51.514 51.0905 49.1149V33.3179C51.0905 30.9188 49.1429 28.9739 46.7403 28.9739Z" fill="#484848"/>
<path fill-rule="evenodd" clip-rule="evenodd" d="M37.446 35.8851V39.0445H40.2135V35.8851H41.4005V39.0445H43.3782V40.2291H41.3997V42.2039H43.3774V43.3885H41.3997V46.5479H40.2135V43.3885H37.4452V46.5479H36.2581V43.3885H34.2812V42.2039H36.2581V40.2291H34.2812V39.0453H36.2581V35.8859H37.4452L37.446 35.8851ZM37.446 40.2291V42.2039H40.2135V40.2291H37.446Z" fill="white"/>
<path d="M46.7403 28.9739H30.9205C28.518 28.9739 26.5703 30.9188 26.5703 33.3179V49.1149C26.5703 51.514 28.518 53.4588 30.9205 53.4588H46.7403C49.1429 53.4588 51.0905 51.514 51.0905 49.1149V33.3179C51.0905 30.9188 49.1429 28.9739 46.7403 28.9739Z" stroke="#585858" stroke-width="0.790021"/>
<path d="M67.583 38.8846C67.583 39.811 67.1151 40.435 66.1778 40.7549V40.7802C66.6724 40.8532 67.1228 41.1052 67.4434 41.4881C67.7725 41.8674 67.9374 42.3774 67.9374 43.0172C67.9374 43.843 67.6631 44.4876 67.1143 44.9508C66.5664 45.414 65.8194 45.646 64.8742 45.646H60.9775V36.6105H64.622C65.5419 36.6105 66.2635 36.8163 66.7868 37.2297C67.3181 37.6335 67.583 38.1854 67.583 38.8846ZM64.7989 40.3891C65.4063 40.3891 65.8321 40.2703 66.0771 40.0351C66.3214 39.7992 66.4435 39.4571 66.4435 39.0113C66.4435 38.5813 66.3166 38.2448 66.0644 38.0001C65.8107 37.7475 65.4317 37.6208 64.9249 37.6208H62.1155V40.3883L64.7989 40.3891ZM62.1155 44.6349H64.9884C66.1953 44.6349 66.7979 44.0956 66.7979 43.0172C66.7979 42.5286 66.6552 42.1366 66.3682 41.8421C66.0898 41.5467 65.7139 41.3994 65.2421 41.3994H62.1155V44.6349ZM74.2598 39.2005V45.646H73.2472V44.8748H73.2218C73.0188 45.144 72.7405 45.372 72.386 45.5573C72.0315 45.7347 71.601 45.8226 71.0958 45.8226C70.4623 45.8226 69.9437 45.646 69.5392 45.2921C69.134 44.9294 68.931 44.3989 68.931 43.6997V39.2005H69.9436V43.4471C69.9436 43.8937 70.0578 44.2556 70.2854 44.5335C70.513 44.8027 70.8675 44.9381 71.348 44.9381C71.9142 44.9381 72.3693 44.7782 72.7151 44.4583C73.0695 44.1376 73.2464 43.725 73.2464 43.2191V39.2005H74.2598ZM76.2882 37.9495C76.1298 37.9472 75.9773 37.8892 75.8576 37.7855C75.7916 37.7327 75.7389 37.6651 75.7038 37.5883C75.6686 37.5114 75.6521 37.4273 75.6554 37.3429C75.6554 37.1576 75.7228 37.0103 75.8576 36.9011C75.9771 36.7971 76.1297 36.7387 76.2882 36.7364C76.4472 36.7362 76.6006 36.7949 76.7188 36.9011C76.8536 37.0103 76.921 37.1576 76.921 37.3429C76.921 37.5282 76.8536 37.6755 76.7188 37.7855C76.6007 37.8917 76.4471 37.9502 76.2882 37.9495ZM76.7941 39.2005V45.646H75.7823V39.2005H76.7941ZM79.2396 36.6105V45.6452H78.227V36.6105H79.2396ZM86.2796 36.6105V45.6452H85.267V44.8494H85.2416C84.7444 45.4987 84.0688 45.8234 83.2172 45.8234C82.6954 45.8282 82.1826 45.6881 81.7359 45.4188C81.2974 45.14 80.9477 44.7441 80.686 44.231C80.4323 43.7163 80.3062 43.1145 80.3062 42.4233C80.3062 41.7328 80.4331 41.1302 80.686 40.6163C80.9477 40.1016 81.2974 39.7105 81.7367 39.4413C82.1803 39.1641 82.6939 39.0193 83.2172 39.024C84.1029 39.024 84.7777 39.3613 85.2416 40.0351H85.267V36.6105H86.2796ZM83.3187 44.9381C83.9174 44.9381 84.3892 44.7109 84.7357 44.2556C85.0902 43.7923 85.267 43.1819 85.267 42.4233C85.267 41.6647 85.0902 41.0582 84.7357 40.6037C84.39 40.1404 83.9174 39.9084 83.3179 39.9084C82.8968 39.9084 82.5336 40.0264 82.2299 40.2624C81.9262 40.4983 81.6986 40.8103 81.5464 41.1975C81.3925 41.5878 81.3152 42.0039 81.3188 42.4233C81.3188 42.8612 81.3949 43.2745 81.5464 43.6617C81.6986 44.041 81.9262 44.3482 82.2299 44.5842C82.5336 44.8201 82.896 44.9381 83.3187 44.9381ZM92.8977 36.9137V45.646H91.759V39.1126C91.5132 39.3399 91.265 39.4832 91.0121 39.5418C90.767 39.5925 90.4094 39.6178 89.936 39.6178V38.7967C90.6536 38.7967 91.1596 38.6407 91.4545 38.3295C91.7582 38.0088 91.9446 37.5369 92.012 36.9137H92.8977Z" fill="white"/>
<path d="M149.546 33.4826H148.64C148.548 33.0053 148.275 32.582 147.878 32.3012C147.688 32.1645 147.477 32.0612 147.253 31.9955C147.021 31.9267 146.78 31.892 146.537 31.8926C146.085 31.8926 145.674 32.0074 145.307 32.2363C144.941 32.4643 144.651 32.8008 144.434 33.2458C144.22 33.6908 144.113 34.2364 144.113 34.8833C144.113 35.5295 144.22 36.0758 144.434 36.52C144.651 36.9651 144.941 37.3016 145.307 37.5304C145.674 37.7585 146.085 37.8733 146.537 37.8733C146.786 37.8733 147.024 37.8392 147.253 37.7703C147.482 37.703 147.69 37.6017 147.878 37.4687C148.273 37.1844 148.546 36.7607 148.64 36.2833H149.546C149.485 36.6447 149.359 36.992 149.173 37.3079C148.822 37.9038 148.261 38.3482 147.6 38.555C147.257 38.6662 146.898 38.7216 146.537 38.719C145.899 38.719 145.332 38.563 144.836 38.2518C144.339 37.9414 143.948 37.4987 143.664 36.9247C143.379 36.3514 143.236 35.6704 143.236 34.8833C143.236 34.0955 143.379 33.4153 143.664 32.8412C143.948 32.2679 144.339 31.8253 144.836 31.5141C145.332 31.2029 145.899 31.0469 146.537 31.0469C146.915 31.0469 147.269 31.1024 147.6 31.2116C147.933 31.3209 148.234 31.4809 148.502 31.6923C148.77 31.9013 148.993 32.1571 149.173 32.458C149.354 32.7573 149.478 33.0994 149.546 33.4826ZM150.892 38.6168V33.0162H151.725V33.8619H151.784C151.886 33.5847 152.071 33.3599 152.339 33.1872C152.609 33.0142 152.924 32.9244 153.244 32.9291C153.307 32.9291 153.386 32.9299 153.481 32.9323C153.577 32.9347 153.648 32.9386 153.697 32.9434V33.8183C153.631 33.8048 153.563 33.794 153.496 33.7859C153.389 33.7682 153.28 33.7595 153.171 33.7597C152.899 33.7597 152.655 33.8175 152.441 33.9316C152.234 34.0392 152.06 34.2006 151.937 34.3987C151.815 34.5951 151.754 34.82 151.754 35.0726V38.6168H150.892ZM156.899 38.7332C156.359 38.7332 155.893 38.6144 155.5 38.3769C155.109 38.1344 154.796 37.7848 154.599 37.3697C154.389 36.9373 154.285 36.4337 154.285 35.8605C154.285 35.2864 154.389 34.7812 154.599 34.3433C154.792 33.9254 155.098 33.5695 155.482 33.3155C155.862 33.0677 156.305 32.9434 156.812 32.9434C157.104 32.9434 157.392 32.9917 157.677 33.0891C157.962 33.1865 158.221 33.344 158.455 33.5634C158.688 33.7795 158.874 34.0662 159.013 34.4233C159.152 34.7812 159.222 35.2207 159.222 35.7433V36.1075H154.899V35.3648H158.346C158.346 35.048 158.282 34.7661 158.155 34.5183C158.037 34.2763 157.852 34.0728 157.622 33.9316C157.378 33.7839 157.097 33.7092 156.812 33.7162C156.469 33.7162 156.171 33.8017 155.921 33.9719C155.675 34.1364 155.477 34.3626 155.347 34.6276C155.214 34.8972 155.145 35.1945 155.147 35.4954V35.9919C155.147 36.4147 155.22 36.7726 155.366 37.0672C155.514 37.3586 155.72 37.5819 155.983 37.7347C156.246 37.8852 156.551 37.9604 156.899 37.9604C157.126 37.9604 157.33 37.9287 157.513 37.8654C157.698 37.8004 157.857 37.703 157.991 37.574C158.129 37.436 158.235 37.2691 158.301 37.0854L159.134 37.319C159.048 37.5987 158.897 37.8539 158.692 38.0633C158.475 38.2811 158.213 38.4499 157.925 38.5582C157.597 38.6791 157.249 38.7384 156.899 38.7332ZM162.183 38.7483C161.827 38.7483 161.505 38.6809 161.215 38.5479C160.935 38.4197 160.696 38.2163 160.525 37.9604C160.355 37.703 160.269 37.3919 160.269 37.0268C160.269 36.7061 160.333 36.4464 160.46 36.2469C160.584 36.0469 160.759 35.8833 160.967 35.7726C161.179 35.6585 161.413 35.573 161.668 35.5176C161.926 35.459 162.185 35.4131 162.446 35.379C162.787 35.3355 163.063 35.3022 163.275 35.2808C163.489 35.2563 163.645 35.2159 163.743 35.1605C163.842 35.1043 163.892 35.0069 163.892 34.8683V34.839C163.892 34.4795 163.793 34.2 163.596 34.0005C163.402 33.8017 163.106 33.7019 162.708 33.7019C162.298 33.7019 161.975 33.7914 161.741 33.9712C161.507 34.1517 161.343 34.3433 161.248 34.5476L160.43 34.2562C160.576 33.9157 160.771 33.6505 161.015 33.4612C161.261 33.2688 161.529 33.135 161.818 33.0598C162.099 32.9836 162.389 32.9445 162.68 32.9434C162.86 32.9434 163.067 32.9647 163.3 33.0091C163.536 33.0503 163.764 33.1366 163.984 33.268C164.205 33.3995 164.389 33.5974 164.535 33.8619C164.681 34.1271 164.754 34.4819 164.754 34.9269V38.6168H163.892V37.8582H163.848C163.772 38.0032 163.674 38.135 163.556 38.2486C163.399 38.4006 163.215 38.5208 163.012 38.6026C162.785 38.6992 162.509 38.7483 162.183 38.7483ZM162.314 37.9754C162.655 37.9754 162.942 37.9081 163.176 37.7743C163.391 37.6587 163.57 37.4878 163.696 37.2795C163.822 37.0712 163.889 36.833 163.892 36.5897V35.8019C163.855 35.8454 163.775 35.8858 163.651 35.9222C163.511 35.9601 163.37 35.9905 163.227 36.0133C162.953 36.0558 162.678 36.0922 162.402 36.1226C162.189 36.1494 161.979 36.1971 161.774 36.2651C161.582 36.3284 161.426 36.4242 161.307 36.5533C161.19 36.68 161.131 36.8518 161.131 37.0712C161.131 37.3697 161.242 37.5961 161.464 37.749C161.688 37.8994 161.971 37.9754 162.314 37.9754ZM168.766 33.0162V33.7455H165.859V33.0162H168.766ZM166.707 31.6741H167.568V37.0126C167.568 37.2557 167.603 37.4378 167.674 37.5589C167.736 37.6688 167.834 37.754 167.952 37.8004C168.066 37.8392 168.186 37.8582 168.313 37.8582C168.408 37.8582 168.486 37.8535 168.546 37.844L168.693 37.8147L168.868 38.5875C168.788 38.6152 168.706 38.6372 168.623 38.6532C168.492 38.6801 168.359 38.6923 168.225 38.6897C167.982 38.6897 167.743 38.6374 167.51 38.5329C167.278 38.4282 167.079 38.2633 166.933 38.0554C166.782 37.8416 166.707 37.5716 166.707 37.2462V31.6733V31.6741ZM172.353 38.7332C171.813 38.7332 171.347 38.6144 170.955 38.3769C170.564 38.1344 170.251 37.7848 170.053 37.3697C169.844 36.9373 169.739 36.4337 169.739 35.8605C169.739 35.2864 169.844 34.7812 170.053 34.3433C170.246 33.9253 170.552 33.5693 170.936 33.3155C171.316 33.0677 171.759 32.9434 172.265 32.9434C172.558 32.9434 172.847 32.9917 173.131 33.0891C173.416 33.1865 173.675 33.344 173.909 33.5634C174.142 33.7795 174.329 34.0662 174.467 34.4233C174.606 34.7812 174.676 35.2207 174.676 35.7433V36.1075H170.353V35.3648H173.8C173.8 35.048 173.736 34.7661 173.609 34.5183C173.491 34.2766 173.306 34.0733 173.077 33.9316C172.832 33.7839 172.551 33.7092 172.265 33.7162C171.923 33.7162 171.625 33.8017 171.375 33.9719C171.129 34.1364 170.932 34.3626 170.802 34.6276C170.668 34.8972 170.599 35.1945 170.601 35.4954V35.9919C170.601 36.4147 170.674 36.7726 170.82 37.0672C170.968 37.3586 171.174 37.5819 171.437 37.7347C171.7 37.8852 172.005 37.9604 172.353 37.9604C172.579 37.9604 172.784 37.9287 172.967 37.8654C173.152 37.8004 173.311 37.703 173.445 37.574C173.583 37.436 173.689 37.2691 173.755 37.0854L174.588 37.319C174.502 37.5987 174.351 37.8539 174.146 38.0633C173.929 38.2811 173.668 38.4499 173.379 38.5582C173.051 38.6791 172.703 38.7384 172.353 38.7332ZM178.105 38.7332C177.637 38.7332 177.225 38.6152 176.867 38.3801C176.509 38.1417 176.229 37.806 176.026 37.3736C175.825 36.9381 175.723 36.4242 175.723 35.8312C175.723 35.2428 175.825 34.7321 176.026 34.2998C176.229 33.8666 176.51 33.5325 176.87 33.2973C177.231 33.0613 177.646 32.9434 178.119 32.9434C178.485 32.9434 178.772 33.0043 178.984 33.1255C179.199 33.2443 179.362 33.3805 179.473 33.5341C179.588 33.6845 179.677 33.8088 179.741 33.9062H179.814V31.1491H180.675V38.6168H179.843V37.7561H179.741C179.677 37.859 179.587 37.9873 179.47 38.1425C179.333 38.3122 179.163 38.4522 178.97 38.5543C178.753 38.6738 178.465 38.7332 178.105 38.7332ZM178.221 37.9604C178.567 37.9604 178.859 37.8709 179.098 37.6912C179.336 37.509 179.518 37.2564 179.642 36.9358C179.766 36.6127 179.828 36.2389 179.828 35.8161C179.828 35.3988 179.767 35.0322 179.646 34.7186C179.523 34.4027 179.343 34.1572 179.105 33.9822C178.866 33.8049 178.572 33.7162 178.221 33.7162C177.856 33.7162 177.552 33.8096 177.309 33.9973C177.06 34.1926 176.871 34.4542 176.765 34.7519C176.641 35.0931 176.58 35.454 176.585 35.8169C176.585 36.2152 176.647 36.5771 176.768 36.9033C176.892 37.2264 177.075 37.4837 177.316 37.6761C177.559 37.8662 177.861 37.9604 178.221 37.9604Z" fill="#A1A1A1"/>
<path d="M207.304 45.0674H146.4C144.653 45.0674 143.236 46.4819 143.236 48.2269C143.236 49.9718 144.653 51.3863 146.4 51.3863H207.304C209.051 51.3863 210.468 49.9718 210.468 48.2269C210.468 46.4819 209.051 45.0674 207.304 45.0674Z" fill="#484848"/>
<path d="M309.188 32.3701H265.984C262.975 32.3701 260.535 34.8064 260.535 37.8117V44.6224C260.535 47.6276 262.975 50.0639 265.984 50.0639H309.188C312.198 50.0639 314.638 47.6276 314.638 44.6224V37.8117C314.638 34.8064 312.198 32.3701 309.188 32.3701Z" fill="#262626"/>
<path d="M276.727 43.676H274.864V37.9313H276.786C277.349 37.9313 277.833 38.0469 278.238 38.2765C278.641 38.5027 278.965 38.846 279.168 39.2608C279.385 39.6875 279.494 40.1991 279.494 40.7953C279.494 41.3939 279.384 41.9078 279.165 42.3378C278.947 42.7678 278.633 43.0987 278.221 43.3307C277.809 43.5604 277.311 43.676 276.727 43.676ZM275.733 42.9182H276.679C277.117 42.9182 277.481 42.8359 277.771 42.6719C278.061 42.5057 278.279 42.2649 278.423 41.9514C278.567 41.6347 278.64 41.2498 278.64 40.7953C278.64 40.344 278.567 39.9623 278.423 39.648C278.293 39.3474 278.07 39.0966 277.786 38.9329C277.503 38.7698 277.152 38.6891 276.732 38.6891H275.733V42.9182ZM282.365 43.7623C281.94 43.7623 281.574 43.672 281.267 43.4907C280.961 43.3072 280.715 43.0394 280.559 42.7195C280.394 42.3869 280.311 41.9965 280.311 41.5499C280.311 41.1081 280.394 40.7193 280.559 40.3828C280.725 40.0462 280.957 39.7834 281.256 39.5949C281.555 39.4057 281.905 39.3114 282.305 39.3114C282.549 39.3114 282.785 39.351 283.014 39.4318C283.242 39.5126 283.447 39.6385 283.629 39.8111C283.811 39.9829 283.953 40.2062 284.059 40.481C284.163 40.7541 284.216 41.0859 284.216 41.4771V41.774H280.786V41.1461H283.393C283.397 40.9426 283.351 40.7413 283.258 40.5601C283.17 40.3869 283.034 40.2425 282.866 40.1441C282.698 40.0456 282.506 39.9971 282.311 40.0043C282.076 40.0043 281.869 40.0621 281.693 40.1785C281.522 40.2902 281.382 40.4446 281.289 40.6267C281.195 40.8118 281.147 41.0169 281.149 41.2245V41.7154C281.149 42.0029 281.199 42.2483 281.3 42.4502C281.403 42.6522 281.547 42.8066 281.73 42.9127C281.914 43.0172 282.128 43.0702 282.373 43.0702C282.521 43.0718 282.668 43.0491 282.808 43.0029C282.937 42.9598 283.054 42.8882 283.15 42.7936C283.247 42.699 283.321 42.5838 283.367 42.4566L284.163 42.5991C284.101 42.8287 283.983 43.0396 283.82 43.2128C283.657 43.387 283.452 43.5224 283.205 43.6198C282.936 43.7189 282.651 43.7672 282.365 43.7623ZM285.147 45.2913V39.3676H285.968V40.066H286.038C286.1 39.9567 286.17 39.8527 286.249 39.7549C286.34 39.6361 286.468 39.5339 286.63 39.446C286.794 39.3566 287.009 39.3114 287.277 39.3114C287.625 39.3114 287.936 39.3993 288.209 39.5751C288.483 39.7509 288.697 40.0043 288.852 40.3353C289.01 40.6662 289.089 41.0637 289.089 41.5301C289.089 41.9957 289.011 42.3948 288.855 42.7274C288.718 43.0374 288.496 43.3027 288.215 43.4931C287.938 43.6723 287.615 43.7652 287.285 43.7599C287.023 43.7599 286.809 43.7164 286.642 43.6285C286.493 43.5532 286.361 43.4481 286.254 43.3197C286.174 43.2209 286.102 43.1158 286.038 43.0053H285.987V45.2913H285.147ZM285.971 41.5222C285.971 41.8247 286.015 42.09 286.103 42.318C286.191 42.546 286.318 42.725 286.484 42.8541C286.651 42.9808 286.856 43.0441 287.097 43.0441C287.348 43.0441 287.557 42.9784 287.726 42.8461C287.894 42.7115 288.022 42.5286 288.108 42.299C288.196 42.0686 288.24 41.8096 288.24 41.5214C288.24 41.2372 288.197 40.9822 288.111 40.7557C288.037 40.5445 287.905 40.3587 287.729 40.2204C287.56 40.089 287.35 40.0241 287.097 40.0241C286.854 40.0241 286.648 40.0866 286.479 40.2117C286.305 40.3471 286.174 40.5293 286.1 40.7367C286.009 40.9882 285.965 41.2549 285.971 41.5222ZM290.87 37.9313V43.676H290.03V37.9313H290.87ZM293.816 43.7623C293.412 43.7623 293.059 43.6704 292.758 43.4852C292.454 43.2979 292.211 43.0285 292.055 42.7084C291.889 42.3758 291.805 41.9862 291.805 41.5412C291.805 41.0946 291.889 40.7035 292.055 40.3693C292.222 40.0344 292.456 39.7739 292.758 39.5894C293.059 39.4041 293.412 39.3114 293.816 39.3114C294.221 39.3114 294.574 39.4041 294.876 39.5886C295.177 39.7746 295.411 40.0344 295.577 40.3685C295.744 40.7035 295.828 41.0946 295.828 41.5412C295.828 41.9862 295.744 42.375 295.577 42.7084C295.411 43.0409 295.177 43.2999 294.876 43.4844C294.574 43.6704 294.221 43.7623 293.816 43.7623ZM293.819 43.0584C294.081 43.0584 294.298 42.9895 294.471 42.8509C294.643 42.7123 294.77 42.5286 294.853 42.299C294.937 42.0686 294.98 41.8152 294.98 41.5388C294.983 41.2807 294.94 41.0241 294.853 40.7811C294.78 40.5632 294.648 40.3699 294.471 40.2228C294.298 40.0827 294.081 40.013 293.819 40.013C293.555 40.013 293.336 40.0827 293.162 40.2228C292.985 40.3701 292.852 40.5632 292.777 40.7811C292.693 41.0246 292.651 41.281 292.654 41.5388C292.654 41.8152 292.695 42.0686 292.777 42.299C292.861 42.5286 292.99 42.7131 293.162 42.8509C293.336 42.9895 293.555 43.0584 293.819 43.0584ZM297.149 45.2913C296.954 45.2924 296.761 45.2611 296.577 45.1987L296.779 44.5114C296.932 44.5525 297.069 44.5708 297.189 44.5652C297.307 44.56 297.42 44.5122 297.506 44.4306C297.599 44.3459 297.682 44.2089 297.753 44.0181L297.857 43.7322L296.278 39.3676H297.178L298.27 42.7107H298.315L299.407 39.3676H300.309L298.531 44.2509C298.459 44.4569 298.353 44.6494 298.216 44.8202C298.09 44.977 297.937 45.0949 297.761 45.1733C297.585 45.2525 297.381 45.2913 297.149 45.2913Z" fill="white"/>
<path d="M309.188 32.3701H265.984C262.975 32.3701 260.535 34.8064 260.535 37.8117V44.6224C260.535 47.6276 262.975 50.0639 265.984 50.0639H309.188C312.198 50.0639 314.638 47.6276 314.638 44.6224V37.8117C314.638 34.8064 312.198 32.3701 309.188 32.3701Z" stroke="#484848" stroke-width="0.473854"/>
<path d="M321.187 16.2727H19.863C16.578 16.2727 13.915 18.932 13.915 22.2123V60.221C13.915 63.5013 16.578 66.1606 19.863 66.1606H321.187C324.471 66.1606 327.134 63.5013 327.134 60.221V22.2123C327.134 18.932 324.471 16.2727 321.187 16.2727Z" stroke="#484848" stroke-width="0.790021"/>
</g>
</g>
<g clip-path="url(#clip4_193_1152)">
<g clip-path="url(#clip5_193_1152)">
<path d="M331.124 63.0801H10.1378C6.63851 63.0801 3.80176 65.9228 3.80176 69.4294V110.06C3.80176 113.566 6.63851 116.409 10.1378 116.409H331.124C334.623 116.409 337.46 113.566 337.46 110.06V69.4294C337.46 65.9228 334.623 63.0801 331.124 63.0801Z" fill="#303030"/>
<path d="M38.7689 76.6583H21.9172C19.3579 76.6583 17.2832 78.7373 17.2832 81.302V98.1889C17.2832 100.753 19.3579 102.833 21.9172 102.833H38.7689C41.3282 102.833 43.4029 100.753 43.4029 98.1889V81.302C43.4029 78.7373 41.3282 76.6583 38.7689 76.6583Z" fill="#484848"/>
<path fill-rule="evenodd" clip-rule="evenodd" d="M28.8683 84.0462V87.4233H31.8162V84.0462H33.0808V87.4233H35.1874V88.6895H33.0799V90.8004H35.1866V92.0666H33.0799V95.4437H31.8162V92.0666H28.8674V95.4437H27.6029V92.0666H25.4971V90.8004H27.6029V88.6895H25.4971V87.4233H27.6029V84.0462H28.8683ZM28.8683 88.6895V90.8004H31.8162V88.6895H28.8683Z" fill="white"/>
<path d="M38.7689 76.6583H21.9172C19.3579 76.6583 17.2832 78.7373 17.2832 81.302V98.1889C17.2832 100.753 19.3579 102.833 21.9172 102.833H38.7689C41.3282 102.833 43.4029 100.753 43.4029 98.1889V81.302C43.4029 78.7373 41.3282 76.6583 38.7689 76.6583Z" stroke="#585858" stroke-width="0.843008"/>
<path d="M60.9709 87.2524C60.9709 88.2426 60.4725 88.9096 59.4741 89.2515V89.2786C60.0009 89.3566 60.4807 89.6259 60.8222 90.0353C61.1728 90.4407 61.3485 90.985 61.3485 91.6689C61.3485 92.5525 61.0562 93.2415 60.4717 93.7366C59.888 94.2317 59.0923 94.4797 58.0854 94.4797H53.9346V84.8207H57.8168C58.7966 84.8207 59.5653 85.0416 60.1228 85.4826C60.6888 85.9151 60.9709 86.505 60.9709 87.2524ZM58.0052 88.8605C58.6522 88.8605 59.1058 88.7336 59.3668 88.4813C59.627 88.23 59.7571 87.8652 59.7571 87.3878C59.7571 86.9282 59.6219 86.5676 59.3533 86.3069C59.083 86.0361 58.6792 85.9015 58.1395 85.9015H55.1467V88.8597L58.0052 88.8605ZM55.1467 93.3989H58.207C59.4927 93.3989 60.1346 92.8225 60.1346 91.6697C60.1346 91.1475 59.9826 90.7285 59.6768 90.4136C59.3803 90.0979 58.9799 89.9405 58.4773 89.9405H55.1467V93.3989ZM68.0832 87.5901V94.4797H67.0046V93.6545H66.9775C66.7613 93.9423 66.4648 94.186 66.0872 94.3841C65.7096 94.5728 65.251 94.6676 64.7129 94.6676C64.038 94.6676 63.4856 94.478 63.0548 94.1005C62.6231 93.7129 62.4069 93.1458 62.4069 92.3984V87.5892H63.4856V92.1284C63.4856 92.605 63.6072 92.9918 63.8496 93.2897C64.0921 93.5775 64.4696 93.7214 64.9815 93.7214C65.5846 93.7214 66.0695 93.5512 66.4378 93.2084C66.8154 92.8665 67.0037 92.4255 67.0037 91.8847V87.5892L68.0832 87.5901ZM70.244 86.2528C70.0753 86.2504 69.9128 86.1883 69.7853 86.0776C69.715 86.021 69.6589 85.9488 69.6215 85.8666C69.5841 85.7845 69.5664 85.6947 69.5699 85.6044C69.5699 85.4064 69.6417 85.249 69.7853 85.1313C69.9128 85.0205 70.0753 84.9585 70.244 84.9561C70.4146 84.9561 70.5675 85.0153 70.7026 85.1313C70.8462 85.249 70.918 85.4064 70.918 85.6044C70.918 85.8025 70.8462 85.9599 70.7026 86.0776C70.5768 86.1911 70.4133 86.2536 70.244 86.2528ZM70.7829 87.5901V94.4797H69.7051V87.5901H70.7829ZM73.3879 84.8207V94.4797H72.3093V84.8207H73.3879ZM80.8872 84.8207V94.4797H79.8085V93.6283H79.7815C79.2518 94.3223 78.5321 94.6685 77.6249 94.6685C77.0692 94.6739 76.5229 94.5244 76.047 94.2368C75.5799 93.9389 75.2074 93.5157 74.9287 92.9664C74.6584 92.4171 74.5241 91.773 74.5241 91.0349C74.5241 90.296 74.6592 89.6527 74.9287 89.1034C75.2074 88.5533 75.5799 88.1352 76.0479 87.8465C76.5205 87.5506 77.0677 87.3962 77.6249 87.4013C78.5685 87.4013 79.2873 87.761 79.7815 88.4813H79.8085V84.8207H80.8872ZM77.7331 93.723C78.3708 93.723 78.8734 93.4793 79.2425 92.9935C79.6201 92.4983 79.8085 91.8449 79.8085 91.0349C79.8085 90.2241 79.6201 89.5757 79.2425 89.0899C78.8742 88.5939 78.3708 88.3468 77.7322 88.3468C77.2837 88.3468 76.8968 88.4729 76.5733 88.7251C76.2498 88.9773 76.0073 89.31 75.8452 89.7238C75.6812 90.1412 75.5988 90.5863 75.6027 91.0349C75.6027 91.503 75.6838 91.9439 75.8452 92.3587C76.0073 92.7641 76.2498 93.0925 76.5733 93.3447C76.8968 93.5969 77.2828 93.723 77.7331 93.723ZM85.011 88.4145C85.011 87.3963 85.2948 86.5676 85.8607 85.9286C86.4267 85.2803 87.2629 84.9553 88.3686 84.9553C88.8825 84.9498 89.3904 85.0658 89.8511 85.2938C90.3005 85.5096 90.6603 85.8296 90.9298 86.2528C91.1992 86.676 91.3344 87.1753 91.3344 87.7526C91.3344 88.3112 91.2034 88.8021 90.9433 89.2253C90.692 89.6288 90.3674 89.9813 89.9862 90.2647C89.6171 90.5355 89.128 90.8504 88.5165 91.2101C87.8238 91.6062 87.2942 91.9575 86.9259 92.2639C86.5791 92.5503 86.3294 92.9373 86.2113 93.3718V93.3989H91.1992V94.4789H84.7415C84.7415 92.8851 85.6673 91.5478 87.5189 90.467L88.0578 90.1563C88.6153 89.8415 89.0241 89.5893 89.2851 89.4005C89.5384 89.2289 89.7503 89.0028 89.9051 88.7386C90.0487 88.4771 90.1205 88.1529 90.1205 87.7653C90.1205 87.2888 89.9862 86.8833 89.7168 86.5499C89.4465 86.2079 88.9887 86.0369 88.3416 86.0369C87.5772 86.0369 87.0332 86.2528 86.7105 86.6853C86.387 87.1169 86.2248 87.6933 86.2248 88.4145H85.011Z" fill="white"/>
<path d="M148.283 81.4778H147.318C147.22 80.9676 146.929 80.5151 146.506 80.215C146.304 80.0686 146.079 79.9579 145.84 79.8875C145.593 79.8141 145.336 79.7773 145.078 79.7783C144.596 79.7783 144.158 79.901 143.767 80.1448C143.378 80.3894 143.068 80.7491 142.837 81.2248C142.609 81.7004 142.495 82.2828 142.495 82.9743C142.495 83.6658 142.609 84.2489 142.837 84.7246C143.068 85.2003 143.378 85.56 143.767 85.8046C144.16 86.049 144.615 86.1758 145.078 86.1702C145.342 86.1702 145.597 86.1338 145.84 86.0611C146.084 85.9883 146.305 85.8808 146.506 85.7377C146.707 85.5922 146.879 85.4144 147.019 85.2045C147.165 84.9819 147.267 84.733 147.318 84.4715H148.283C148.218 84.8578 148.084 85.229 147.886 85.5668C147.511 86.2033 146.914 86.678 146.21 86.899C145.844 87.0181 145.462 87.0776 145.078 87.075C144.398 87.075 143.794 86.9083 143.265 86.5757C142.736 86.243 142.32 85.7707 142.017 85.1571C141.714 84.5443 141.562 83.8164 141.562 82.9743C141.562 82.1329 141.714 81.405 142.017 80.7923C142.32 80.1786 142.736 79.7055 143.265 79.3729C143.794 79.0402 144.398 78.8743 145.078 78.8743C145.48 78.8743 145.857 78.9336 146.21 79.0495C146.565 79.1663 146.885 79.3382 147.17 79.5641C147.456 79.7876 147.694 80.0601 147.886 80.3826C148.078 80.7025 148.21 81.0673 148.283 81.4778ZM149.717 86.9659V80.9793H150.604V81.8833H150.667C150.775 81.587 150.972 81.3466 151.258 81.1621C151.545 80.9769 151.881 80.8806 152.222 80.8854C152.289 80.8854 152.374 80.8871 152.475 80.8896C152.576 80.8921 152.652 80.8955 152.705 80.9014V81.8367C152.634 81.8221 152.562 81.8102 152.49 81.8012C152.376 81.7826 152.26 81.7735 152.145 81.7741C151.854 81.7741 151.595 81.835 151.367 81.9569C151.146 82.0719 150.961 82.2445 150.83 82.4563C150.7 82.667 150.635 82.9074 150.635 83.1774V86.9659H149.717ZM156.116 87.0903C155.54 87.0903 155.044 86.9633 154.626 86.7085C154.209 86.4495 153.876 86.0761 153.665 85.6328C153.442 85.1698 153.331 84.6323 153.331 84.0187C153.331 83.4059 153.442 82.8651 153.665 82.3979C153.871 81.9509 154.197 81.5701 154.606 81.2984C155.011 81.0335 155.483 80.9006 156.023 80.9006C156.334 80.9006 156.641 80.9531 156.944 81.0572C157.254 81.1644 157.536 81.337 157.773 81.5633C158.021 81.7952 158.22 82.1016 158.368 82.4834C158.515 82.8651 158.59 83.3357 158.59 83.8943V84.2836H153.984V83.4889H157.656C157.656 83.1512 157.589 82.8498 157.454 82.5849C157.327 82.3262 157.131 82.1088 156.886 81.9577C156.626 81.7999 156.327 81.72 156.023 81.7275C155.657 81.7275 155.34 81.8181 155.073 82.0001C154.812 82.1761 154.601 82.4181 154.463 82.7017C154.32 82.9899 154.247 83.3077 154.249 83.6294V84.1592C154.249 84.6112 154.327 84.9946 154.482 85.3095C154.64 85.6209 154.86 85.8588 155.139 86.0221C155.42 86.1829 155.745 86.2642 156.116 86.2642C156.357 86.2642 156.574 86.2303 156.769 86.1626C156.96 86.0966 157.133 85.9904 157.279 85.8512C157.426 85.7036 157.539 85.5253 157.609 85.3289L158.496 85.5778C158.403 85.8799 158.246 86.1449 158.026 86.3734C157.794 86.6065 157.516 86.7872 157.209 86.9032C156.859 87.0324 156.488 87.0958 156.116 87.0903ZM161.744 87.1055C161.389 87.1106 161.037 87.0375 160.713 86.8914C160.415 86.7546 160.161 86.5375 159.978 86.2642C159.797 85.9883 159.706 85.6556 159.706 85.2663C159.706 84.9235 159.773 84.645 159.908 84.4326C160.043 84.2168 160.223 84.0475 160.449 83.9248C160.674 83.8037 160.924 83.7132 161.196 83.6531C161.47 83.5904 161.746 83.5413 162.024 83.5049C162.388 83.4576 162.681 83.4228 162.907 83.3991C163.135 83.3738 163.301 83.3306 163.405 83.2705C163.511 83.2112 163.564 83.1071 163.564 82.959V82.9277C163.564 82.5434 163.459 82.2447 163.249 82.0314C163.042 81.8181 162.727 81.7114 162.304 81.7114C161.866 81.7114 161.523 81.8079 161.273 82.0001C161.024 82.1922 160.849 82.3979 160.748 82.6162L159.877 82.3039C160.033 81.94 160.24 81.6573 160.5 81.4541C160.761 81.2493 161.047 81.1071 161.355 81.0259C161.655 80.9444 161.963 80.9026 162.273 80.9014C162.465 80.9014 162.686 80.9243 162.934 80.9708C163.186 81.0157 163.428 81.108 163.662 81.2476C163.898 81.3881 164.094 81.5997 164.249 81.8833C164.405 82.1668 164.482 82.546 164.482 83.0217V86.9659H163.564V86.155H163.518C163.437 86.31 163.332 86.4509 163.207 86.5723C163.04 86.7344 162.843 86.8626 162.627 86.9498C162.386 87.0539 162.092 87.1055 161.744 87.1055ZM161.884 86.2794C162.247 86.2794 162.553 86.2083 162.802 86.0653C163.031 85.9416 163.222 85.7588 163.356 85.536C163.49 85.3131 163.562 85.0584 163.564 84.7982V83.9569C163.525 84.0035 163.44 84.0466 163.307 84.0856C163.159 84.1262 163.008 84.1586 162.856 84.1829C162.564 84.2285 162.272 84.2674 161.978 84.2997C161.75 84.3283 161.526 84.3794 161.309 84.4521C161.104 84.5198 160.938 84.6213 160.81 84.7593C160.686 84.8947 160.624 85.0792 160.624 85.3128C160.624 85.6328 160.742 85.874 160.978 86.0382C161.217 86.199 161.518 86.2794 161.884 86.2794ZM168.757 80.9793V81.758H165.66V80.9793H168.757ZM166.563 79.5447H167.48V85.2511C167.48 85.5109 167.518 85.7056 167.593 85.8351C167.671 85.962 167.77 86.0484 167.889 86.0924C168.011 86.1347 168.139 86.155 168.274 86.155C168.375 86.155 168.458 86.1499 168.523 86.1398L168.679 86.1085L168.866 86.9345C168.78 86.9641 168.693 86.9876 168.604 87.0048C168.465 87.0335 168.323 87.0466 168.18 87.0437C167.921 87.0437 167.667 86.9879 167.419 86.8761C167.172 86.7643 166.959 86.588 166.804 86.3658C166.643 86.1372 166.563 85.8486 166.563 85.4999V79.5447ZM172.578 87.0903C172.002 87.0903 171.506 86.9633 171.088 86.7085C170.672 86.4495 170.338 86.0761 170.127 85.6328C169.904 85.1698 169.793 84.6323 169.793 84.0187C169.793 83.4059 169.904 82.8651 170.127 82.3979C170.333 81.9507 170.659 81.5699 171.068 81.2984C171.473 81.0335 171.945 80.9006 172.484 80.9006C172.796 80.9006 173.103 80.9531 173.407 81.0572C173.716 81.1644 173.998 81.337 174.235 81.5633C174.484 81.7952 174.682 82.1016 174.83 82.4834C174.978 82.8651 175.052 83.3357 175.052 83.8943V84.2836H170.447V83.4889H174.119C174.119 83.1512 174.051 82.8498 173.916 82.5849C173.789 82.3266 173.593 82.1092 173.348 81.9577C173.088 81.7999 172.788 81.72 172.484 81.7275C172.119 81.7275 171.803 81.8181 171.536 82.0001C171.274 82.1761 171.063 82.4181 170.925 82.7017C170.782 82.9899 170.709 83.3077 170.711 83.6294V84.1592C170.711 84.6112 170.789 84.9946 170.944 85.3095C171.102 85.6209 171.322 85.8588 171.601 86.0221C171.882 86.1829 172.207 86.2642 172.578 86.2642C172.819 86.2642 173.037 86.2303 173.232 86.1626C173.422 86.0966 173.596 85.9904 173.741 85.8512C173.888 85.7036 174.001 85.5253 174.071 85.3289L174.958 85.5778C174.865 85.8799 174.708 86.1449 174.488 86.3734C174.256 86.6065 173.978 86.7872 173.671 86.9032C173.321 87.0324 172.951 87.0958 172.578 87.0903ZM178.705 87.0903C178.206 87.0903 177.767 86.9642 177.386 86.7119C177.004 86.458 176.706 86.0991 176.491 85.637C176.276 85.1715 176.168 84.6213 176.168 83.9882C176.168 83.3594 176.276 82.8134 176.491 82.3513C176.706 81.8883 177.006 81.5312 177.389 81.2789C177.774 81.0267 178.216 80.9014 178.72 80.9014C179.109 80.9014 179.416 80.9658 179.641 81.0961C179.87 81.2231 180.043 81.3687 180.162 81.532C180.285 81.6928 180.38 81.8257 180.447 81.9298H180.525V78.9835H181.442V86.965H180.556V86.0458H180.447C180.38 86.155 180.283 86.293 180.159 86.4589C180.013 86.6402 179.832 86.7899 179.626 86.899C179.395 87.0259 179.088 87.0903 178.705 87.0903ZM178.829 86.2642C179.197 86.2642 179.508 86.1677 179.762 85.9764C180.016 85.7809 180.21 85.5117 180.342 85.169C180.474 84.8236 180.54 84.4241 180.54 83.9722C180.54 83.5253 180.475 83.1342 180.346 82.7991C180.216 82.4613 180.024 82.199 179.77 82.0119C179.515 81.8223 179.202 81.7275 178.829 81.7275C178.439 81.7275 178.116 81.8274 177.856 82.0271C177.591 82.2361 177.39 82.5161 177.277 82.8346C177.145 83.199 177.08 83.5845 177.086 83.9722C177.086 84.3987 177.151 84.7855 177.28 85.1334C177.413 85.4796 177.607 85.7547 177.864 85.9603C178.123 86.1635 178.445 86.2642 178.829 86.2642Z" fill="#A1A1A1"/>
<path d="M198.013 93.8609H144.932C143.07 93.8609 141.562 95.3729 141.562 97.238C141.562 99.1031 143.07 100.615 144.932 100.615H198.013C199.875 100.615 201.384 99.1031 201.384 97.238C201.384 95.3729 199.875 93.8609 198.013 93.8609Z" fill="#484848"/>
<path d="M319.343 81.5128H280.309C277.517 81.5128 275.254 83.7809 275.254 86.5788V92.9112C275.254 95.7091 277.517 97.9773 280.309 97.9773H319.343C322.135 97.9773 324.398 95.7091 324.398 92.9112V86.5788C324.398 83.7809 322.135 81.5128 319.343 81.5128Z" fill="#2E5235" fill-opacity="0.3"/>
<path d="M285.48 88.5814H284.737C284.662 88.189 284.438 87.841 284.112 87.6106C283.957 87.4979 283.784 87.4126 283.601 87.3584C283.41 87.3017 283.213 87.2732 283.014 87.2737C282.643 87.2737 282.307 87.3685 282.006 87.5564C281.707 87.7443 281.468 88.0211 281.291 88.3868C281.115 88.7524 281.028 89.201 281.028 89.7325C281.028 90.2649 281.115 90.7135 281.291 91.0783C281.468 91.4448 281.707 91.7215 282.006 91.9094C282.307 92.0973 282.643 92.1913 283.014 92.1913C283.218 92.1913 283.413 92.1634 283.601 92.1067C283.788 92.0516 283.959 91.9687 284.112 91.8587C284.437 91.6254 284.66 91.277 284.737 90.8845H285.48C285.43 91.1814 285.327 91.4667 285.175 91.7266C284.886 92.2165 284.427 92.582 283.885 92.7525C283.604 92.8437 283.31 92.8892 283.014 92.887C282.491 92.887 282.027 92.7592 281.62 92.5036C281.213 92.2472 280.893 91.8832 280.659 91.4118C280.426 90.9403 280.31 90.3809 280.31 89.7334C280.31 89.085 280.426 88.5256 280.659 88.0541C280.893 87.5827 281.213 87.2187 281.62 86.9623C282.027 86.7067 282.491 86.5789 283.014 86.5789C283.323 86.5789 283.614 86.6237 283.885 86.7143C284.158 86.804 284.405 86.936 284.624 87.1095C284.844 87.2814 285.027 87.4913 285.175 87.7393C285.322 87.9847 285.424 88.2657 285.48 88.5814ZM290.7 86.6635H291.443V90.7279C291.443 91.1477 291.344 91.5235 291.146 91.8527C290.947 92.1834 290.66 92.4521 290.318 92.6289C289.96 92.8168 289.541 92.9107 289.061 92.9107C288.58 92.9107 288.161 92.8176 287.804 92.6289C287.461 92.4519 287.173 92.1833 286.973 91.8527C286.774 91.5121 286.672 91.1233 286.679 90.7287V86.6626H287.421V90.6686C287.421 90.9683 287.487 91.2357 287.619 91.4685C287.75 91.7004 287.937 91.8832 288.181 92.0178C288.426 92.1498 288.719 92.215 289.061 92.215C289.402 92.215 289.695 92.149 289.94 92.0178C290.176 91.8929 290.372 91.7021 290.503 91.4685C290.637 91.2237 290.705 90.948 290.7 90.6686V86.6626V86.6635ZM292.924 92.8032V86.6626H294.995C295.474 86.6626 295.866 86.7448 296.174 86.9081C296.48 87.0706 296.709 87.2932 296.856 87.5768C297.003 87.8611 297.077 88.1836 297.077 88.5459C297.077 88.9073 297.003 89.2281 296.856 89.5082C296.703 89.7937 296.466 90.0244 296.176 90.1684C295.871 90.3258 295.481 90.4046 295.006 90.4046H293.331V89.7325H294.983C295.31 89.7325 295.573 89.6851 295.773 89.5886C295.96 89.5064 296.114 89.3628 296.209 89.1815C296.301 89.0038 296.347 88.7922 296.347 88.5459C296.347 88.3004 296.301 88.0846 296.209 87.9009C296.114 87.7135 295.959 87.5636 295.769 87.4752C295.568 87.3736 295.302 87.3228 294.971 87.3228H293.666V92.8032H292.924ZM295.809 90.044L297.317 92.8032H296.455L294.971 90.044H295.809ZM298.313 92.8032V86.6626H300.384C300.863 86.6626 301.256 86.7448 301.563 86.9081C301.87 87.0706 302.098 87.2932 302.246 87.5768C302.392 87.8611 302.467 88.1836 302.467 88.5459C302.467 88.9073 302.392 89.2281 302.246 89.5082C302.093 89.7933 301.855 90.024 301.566 90.1684C301.261 90.3258 300.871 90.4046 300.396 90.4046H298.721V89.7325H300.372C300.7 89.7325 300.962 89.6851 301.162 89.5886C301.364 89.493 301.509 89.3567 301.599 89.1815C301.691 89.0038 301.736 88.7922 301.736 88.5459C301.736 88.3004 301.691 88.0846 301.599 87.9009C301.504 87.7139 301.349 87.5641 301.159 87.4752C300.957 87.3736 300.691 87.3228 300.36 87.3228H299.056V92.8032H298.313ZM301.198 90.044L302.706 92.8032H301.844L300.36 90.044H301.198ZM303.703 92.8032V86.6626H307.402V87.3228H304.445V89.3965H307.21V90.0567H304.445V92.1431H307.449V92.8032H303.703ZM313.598 86.6635V92.8032H312.879L309.54 87.9822H309.481V92.8032H308.739V86.6626H309.457L312.808 91.4956H312.868V86.6626H313.598V86.6635ZM314.748 87.3228V86.6626H319.344V87.3228H317.416V92.8032H316.675V87.3228H314.748Z" fill="#A2CEAD"/>
<path d="M319.344 81.9351H280.31C277.75 81.9351 275.676 84.0142 275.676 86.5788V92.9112C275.676 95.4758 277.75 97.5549 280.31 97.5549H319.344C321.903 97.5549 323.978 95.4758 323.978 92.9112V86.5788C323.978 84.0142 321.903 81.9351 319.344 81.9351Z" stroke="#3A523E" stroke-width="0.843008"/>
<path d="M331.124 63.0801H10.1378C6.63851 63.0801 3.80176 65.9228 3.80176 69.4294V110.06C3.80176 113.566 6.63851 116.409 10.1378 116.409H331.124C334.623 116.409 337.46 113.566 337.46 110.06V69.4294C337.46 65.9228 334.623 63.0801 331.124 63.0801Z" stroke="#484848" stroke-width="0.843008"/>
</g>
</g>
<defs>
<clipPath id="clip0_193_1152">
<rect width="314.01" height="51.47" fill="white" transform="translate(13.5195 112.09)"/>
</clipPath>
<clipPath id="clip1_193_1152">
<rect width="314.01" height="51.47" fill="white" transform="translate(13.5195 112.09)"/>
</clipPath>
<clipPath id="clip2_193_1152">
<rect width="314.01" height="51.47" fill="white" transform="translate(13.5195 15.6701)"/>
</clipPath>
<clipPath id="clip3_193_1152">
<rect width="314.01" height="51.47" fill="white" transform="translate(13.5195 15.6701)"/>
</clipPath>
<clipPath id="clip4_193_1152">
<rect width="334.5" height="55.02" fill="white" transform="translate(3.37988 62.5901)"/>
</clipPath>
<clipPath id="clip5_193_1152">
<rect width="334.5" height="55.02" fill="white" transform="translate(3.37988 62.5901)"/>
</clipPath>
</defs>
</svg>
