<svg width="25" height="20" viewBox="0 0 25 20" fill="none" xmlns="http://www.w3.org/2000/svg">
<path d="M15.606 5.793H16.3203L18.356 3.7573L18.456 2.893C17.2898 1.86366 15.8805 1.14862 14.3611 0.815421C12.8418 0.482221 11.2625 0.541861 9.77261 0.988691C8.28271 1.43552 6.93131 2.25479 5.84611 3.3691C4.76081 4.4835 3.97761 5.8561 3.57031 7.3573C3.79711 7.2643 4.04831 7.2492 4.28461 7.3144L8.35601 6.643C8.35601 6.643 8.56321 6.3001 8.67031 6.3215C9.54271 5.3634 10.7483 4.775 12.0403 4.6768C13.3323 4.5785 14.6131 4.9778 15.6203 5.793H15.606Z" fill="#EA4335"/>
<path d="M21.2582 7.357C20.7903 5.6339 19.8296 4.0849 18.4939 2.8999L15.6368 5.757C16.2322 6.2436 16.7094 6.859 17.0324 7.5569C17.3553 8.2547 17.5156 9.0168 17.5011 9.7856V10.2928C17.835 10.2928 18.1657 10.3585 18.4742 10.4863C18.7827 10.6141 19.063 10.8014 19.2991 11.0375C19.5353 11.2737 19.7226 11.554 19.8504 11.8625C19.9781 12.171 20.0439 12.5017 20.0439 12.8356C20.0439 13.1696 19.9781 13.5002 19.8504 13.8087C19.7226 14.1172 19.5353 14.3976 19.2991 14.6337C19.063 14.8698 18.7827 15.0571 18.4742 15.1849C18.1657 15.3127 17.835 15.3785 17.5011 15.3785H12.4153L11.9082 15.8928V18.9428L12.4153 19.4499H17.5011C18.9212 19.461 20.3072 19.0146 21.4541 18.1769C22.6009 17.3392 23.4476 16.1545 23.869 14.7983C24.2904 13.442 24.264 11.9861 23.7938 10.646C23.3236 9.3059 22.4346 8.1527 21.2582 7.357Z" fill="#4285F4"/>
<path d="M7.32288 19.4216H12.4086V15.3502H7.32288C6.96058 15.3501 6.60248 15.2721 6.27288 15.1216L5.55858 15.343L3.50858 17.3787L3.33008 18.093C4.47968 18.9611 5.88238 19.4278 7.32288 19.4216Z" fill="#34A853"/>
<path d="M7.32088 6.21391C5.94288 6.22211 4.60188 6.66061 3.48518 7.46791C2.36838 8.27531 1.53168 9.41131 1.09198 10.7172C0.652182 12.0232 0.631283 13.4339 1.03218 14.7523C1.43298 16.0707 2.23568 17.231 3.32798 18.0711L6.27798 15.1211C5.90308 14.9517 5.57488 14.6939 5.32158 14.3698C5.06818 14.0457 4.89728 13.665 4.82338 13.2603C4.74958 12.8556 4.77498 12.439 4.89748 12.0463C5.02008 11.6536 5.23598 11.2965 5.52688 11.0057C5.81778 10.7148 6.17488 10.4988 6.56758 10.3763C6.96028 10.2538 7.37678 10.2283 7.78148 10.3022C8.18618 10.3761 8.56688 10.547 8.89098 10.8003C9.21508 11.0537 9.47288 11.3819 9.64228 11.7568L12.5923 8.80681C11.9731 7.99731 11.1751 7.34211 10.2606 6.89221C9.34608 6.44241 8.33998 6.21031 7.32088 6.21391Z" fill="#FBBC05"/>
</svg>
