<svg width="539" height="208" viewBox="0 0 539 208" fill="none" xmlns="http://www.w3.org/2000/svg">
<g clip-path="url(#clip0_203_1852)">
<g clip-path="url(#clip1_203_1852)">
<g clip-path="url(#clip2_203_1852)">
<path d="M584.59 74.4319H95.7569C89.4336 74.4319 84.3076 79.4931 84.3076 85.7362V117.192C84.3076 123.435 89.4336 128.496 95.7569 128.496H584.59C590.913 128.496 596.039 123.435 596.039 117.192V85.7362C596.039 79.4931 590.913 74.4319 584.59 74.4319Z" fill="#303030"/>
<path d="M584.59 74.4319H95.7569C89.4336 74.4319 84.3076 79.4931 84.3076 85.7362V117.192C84.3076 123.435 89.4336 128.496 95.7569 128.496H584.59C590.913 128.496 596.039 123.435 596.039 117.192V85.7362C596.039 79.4931 590.913 74.4319 584.59 74.4319Z" stroke="#484848" stroke-width="0.989274"/>
<path d="M127.615 86.2277H111.686C107.562 86.2277 104.219 89.5285 104.219 93.6002V109.328C104.219 113.4 107.562 116.701 111.686 116.701H127.615C131.739 116.701 135.082 113.4 135.082 109.328V93.6002C135.082 89.5285 131.739 86.2277 127.615 86.2277Z" fill="#484848"/>
<path d="M127.615 86.2277H111.686C107.562 86.2277 104.219 89.5285 104.219 93.6002V109.328C104.219 113.4 107.562 116.701 111.686 116.701H127.615C131.739 116.701 135.082 113.4 135.082 109.328V93.6002C135.082 89.5285 131.739 86.2277 127.615 86.2277Z" stroke="#585858" stroke-width="0.989274"/>
<path d="M116.664 108.345C116.664 108.345 113.677 106.052 113.677 101.464C113.677 96.8764 116.664 94.5831 116.664 94.5831M122.637 94.5831C122.637 94.5831 125.624 96.8764 125.624 101.464C125.624 106.052 122.637 108.345 122.637 108.345M121.89 99.1707L117.41 103.757M117.41 99.1707L121.89 103.757" stroke="#D8D8D8" stroke-width="0.989274" stroke-linecap="round" stroke-linejoin="round"/>
<path d="M346.147 86.2277H153.501C148.277 86.2277 144.043 90.4087 144.043 95.5662V107.362C144.043 112.52 148.277 116.701 153.501 116.701H346.147C351.37 116.701 355.605 112.52 355.605 107.362V95.5662C355.605 90.4087 351.37 86.2277 346.147 86.2277Z" fill="#303030"/>
<path d="M346.147 86.2277H153.501C148.277 86.2277 144.043 90.4087 144.043 95.5662V107.362C144.043 112.52 148.277 116.701 153.501 116.701H346.147C351.37 116.701 355.605 112.52 355.605 107.362V95.5662C355.605 90.4087 351.37 86.2277 346.147 86.2277Z" stroke="#484848" stroke-width="0.989274"/>
<path d="M156.117 97.592V96.5942H163.176V97.592H160.217V105.889H159.076V97.592H156.117ZM166.725 106.033C166.044 106.033 165.458 105.885 164.965 105.588C164.473 105.286 164.079 104.852 163.83 104.335C163.566 103.797 163.434 103.171 163.434 102.457C163.434 101.743 163.566 101.114 163.829 100.57C164.072 100.049 164.458 99.6055 164.942 99.2896C165.42 98.981 165.977 98.8266 166.615 98.8266C166.983 98.8266 167.345 98.8866 167.704 99.0075C168.062 99.1294 168.389 99.326 168.682 99.5973C168.977 99.8676 169.211 100.224 169.386 100.669C169.561 101.114 169.648 101.662 169.648 102.311V102.766H164.206V101.84H168.545C168.545 101.446 168.465 101.095 168.306 100.788C168.157 100.486 167.924 100.233 167.635 100.056C167.328 99.8724 166.974 99.7793 166.615 99.788C166.183 99.788 165.808 99.8942 165.494 100.107C165.184 100.311 164.935 100.592 164.772 100.922C164.603 101.258 164.516 101.629 164.519 102.004V102.62C164.519 103.147 164.611 103.593 164.795 103.959C164.982 104.323 165.241 104.599 165.571 104.79C165.902 104.976 166.287 105.071 166.725 105.071C167.01 105.071 167.267 105.031 167.497 104.953C167.722 104.876 167.927 104.752 168.099 104.589C168.268 104.427 168.398 104.223 168.489 103.982L169.538 104.272C169.43 104.62 169.239 104.937 168.981 105.197C168.708 105.469 168.378 105.68 168.015 105.815C167.603 105.965 167.165 106.039 166.725 106.033ZM176.299 100.479L175.324 100.75C175.258 100.582 175.167 100.425 175.053 100.283C174.927 100.121 174.763 99.9901 174.575 99.9021C174.372 99.8018 174.113 99.7526 173.799 99.7526C173.367 99.7526 173.006 99.8509 172.719 100.048C172.433 100.241 172.29 100.488 172.29 100.787C172.29 101.053 172.389 101.264 172.585 101.418C172.781 101.572 173.087 101.701 173.504 101.803L174.551 102.058C175.183 102.209 175.654 102.441 175.963 102.752C176.272 103.06 176.427 103.459 176.427 103.945C176.432 104.33 176.31 104.706 176.079 105.017C175.848 105.331 175.526 105.579 175.113 105.761C174.699 105.942 174.218 106.033 173.669 106.033C172.95 106.033 172.353 105.879 171.881 105.57C171.409 105.261 171.111 104.81 170.985 104.217L172.015 103.964C172.113 104.338 172.298 104.62 172.571 104.807C172.847 104.995 173.206 105.089 173.651 105.089C174.157 105.089 174.557 104.983 174.856 104.771C175.155 104.557 175.306 104.299 175.306 104C175.309 103.887 175.287 103.774 175.243 103.669C175.198 103.564 175.132 103.47 175.048 103.392C174.877 103.225 174.613 103.102 174.258 103.019L173.081 102.748C172.434 102.596 171.96 102.362 171.657 102.044C171.357 101.724 171.206 101.322 171.206 100.842C171.206 100.449 171.318 100.1 171.542 99.7979C171.782 99.4848 172.1 99.2392 172.466 99.0852C172.858 98.9132 173.302 98.8266 173.798 98.8266C174.497 98.8266 175.045 98.978 175.444 99.2808C175.845 99.5826 176.13 99.9827 176.299 100.479ZM181.13 98.9171V99.8244H177.472V98.9171H181.13ZM178.538 97.247H179.623V103.891C179.623 104.194 179.667 104.42 179.755 104.571C179.848 104.72 179.964 104.82 180.105 104.871C180.249 104.92 180.401 104.944 180.56 104.944C180.679 104.944 180.778 104.938 180.855 104.925L181.038 104.889L181.259 105.852C181.158 105.886 181.055 105.913 180.95 105.933C180.819 105.963 180.651 105.978 180.45 105.978C180.144 105.978 179.843 105.913 179.549 105.783C179.257 105.653 179.006 105.448 178.823 105.189C178.633 104.923 178.538 104.587 178.538 104.181V97.247Z" fill="#A1A1A1"/>
<path d="M566.669 86.2277H374.023C368.8 86.2277 364.565 90.4087 364.565 95.5662V107.362C364.565 112.52 368.8 116.701 374.023 116.701H566.669C571.893 116.701 576.127 112.52 576.127 107.362V95.5662C576.127 90.4087 571.893 86.2277 566.669 86.2277Z" fill="#303030"/>
<path d="M566.669 86.2277H374.023C368.8 86.2277 364.565 90.4087 364.565 95.5662V107.362C364.565 112.52 368.8 116.701 374.023 116.701H566.669C571.893 116.701 576.127 112.52 576.127 107.362V95.5662C576.127 90.4087 571.893 86.2277 566.669 86.2277Z" stroke="#484848" stroke-width="0.989274"/>
<path d="M380.298 96.5933V105.888H379.158V97.7739H379.102L376.805 99.2798V98.1366L379.158 96.5933H380.298ZM383.005 105.888V105.072L386.111 101.713C386.477 101.32 386.776 100.977 387.012 100.687C387.248 100.394 387.424 100.118 387.537 99.8618C387.652 99.6041 387.712 99.3255 387.711 99.0439C387.711 98.7175 387.632 98.4344 387.472 98.1956C387.314 97.9555 387.092 97.7638 386.829 97.6421C386.542 97.5087 386.227 97.4417 385.909 97.4465C385.548 97.4465 385.232 97.5212 384.963 97.6697C384.701 97.8108 384.485 98.0234 384.342 98.2821C384.193 98.5679 384.118 98.8864 384.126 99.2081H383.042C383.042 98.6635 383.168 98.1857 383.423 97.7729C383.674 97.3648 384.033 97.0324 384.462 96.8115C384.903 96.5815 385.398 96.4674 385.946 96.4674C386.498 96.4674 386.987 96.5815 387.413 96.8115C387.839 97.0415 388.172 97.3521 388.414 97.7414C388.656 98.1326 388.778 98.5671 388.778 99.0439C388.778 99.386 388.715 99.7202 388.589 100.047C388.467 100.371 388.252 100.733 387.945 101.132C387.549 101.636 387.127 102.121 386.682 102.584L384.567 104.817V104.89H388.943V105.888H383.005ZM394.021 106.015C393.415 106.015 392.874 105.912 392.4 105.706C391.955 105.521 391.567 105.226 391.274 104.849C390.996 104.475 390.839 104.028 390.823 103.565H391.981C392.005 103.864 392.11 104.122 392.294 104.34C392.477 104.555 392.718 104.722 393.015 104.84C393.312 104.958 393.642 105.017 394.003 105.017C394.408 105.017 394.766 104.947 395.079 104.807C395.391 104.669 395.636 104.475 395.814 104.227C395.992 103.979 396.081 103.692 396.081 103.364C396.081 103.023 395.995 102.721 395.823 102.462C395.639 102.188 395.377 101.973 395.07 101.844C394.739 101.696 394.334 101.622 393.856 101.622H393.102V100.624H393.856C394.23 100.624 394.558 100.557 394.84 100.424C395.124 100.29 395.346 100.104 395.506 99.8608C395.669 99.619 395.75 99.3349 395.75 99.0085C395.75 98.6939 395.679 98.4187 395.539 98.1867C395.396 97.9527 395.189 97.7638 394.941 97.6421C394.661 97.5061 394.352 97.439 394.04 97.4465C393.716 97.4465 393.409 97.5055 393.121 97.6235C392.848 97.7293 392.607 97.903 392.422 98.1277C392.241 98.345 392.144 98.6094 392.128 98.9171H391.025C391.044 98.4305 391.192 98.0029 391.471 97.6372C391.749 97.2686 392.115 96.9806 392.565 96.7751C393.034 96.5661 393.544 96.4608 394.058 96.4665C394.641 96.4665 395.14 96.5834 395.557 96.8164C395.955 97.0286 396.287 97.344 396.517 97.7286C396.741 98.1061 396.853 98.515 396.853 98.9535C396.853 99.4774 396.713 99.9227 396.435 100.292C396.155 100.664 395.759 100.933 395.309 101.059V101.132C395.903 101.228 396.367 101.478 396.701 101.881C397.035 102.28 397.202 102.775 397.202 103.365C397.202 103.869 397.063 104.324 396.784 104.726C396.498 105.133 396.108 105.459 395.653 105.669C395.175 105.899 394.632 106.015 394.021 106.015Z" fill="#A1A1A1"/>
</g>
</g>
<g clip-path="url(#clip3_203_1852)">
<g clip-path="url(#clip4_203_1852)">
<path d="M552.366 58.8613H69.8238C63.4916 58.8613 58.3584 64.0239 58.3584 70.3923V135.568C58.3584 141.936 63.4916 147.099 69.8238 147.099H552.366C558.698 147.099 563.831 141.936 563.831 135.568V70.3923C563.831 64.0239 558.698 58.8613 552.366 58.8613Z" fill="#303030"/>
<path d="M552.366 58.8613H69.8238C63.4916 58.8613 58.3584 64.0239 58.3584 70.3923V135.568C58.3584 141.936 63.4916 147.099 69.8238 147.099H552.366C558.698 147.099 563.831 141.936 563.831 135.568V70.3923C563.831 64.0239 558.698 58.8613 552.366 58.8613Z" stroke="#484848" stroke-width="0.999806"/>
<path d="M78.9414 87.4376V77.9587H84.6302V78.9764H80.083V82.1798H84.3351V83.1975H80.083V86.4189H84.704V87.4376H78.9414ZM87.6262 83.1604V87.4376H86.5394V80.3289H87.5893V81.4388H87.682C87.8475 81.0779 88.0987 80.7871 88.4367 80.5685C88.7737 80.347 89.2094 80.2357 89.7428 80.2357C90.2213 80.2357 90.641 80.3339 91 80.5314C91.3589 80.726 91.638 81.0227 91.8374 81.4208C92.0368 81.8148 92.1365 82.3151 92.1365 82.9197V87.4376H91.0498V82.9939C91.0498 82.4355 90.9062 82.0013 90.6181 81.6885C90.329 81.3737 89.9342 81.2172 89.4307 81.2172C89.1065 81.2115 88.7862 81.2895 88.5005 81.4438C88.2313 81.5942 88.018 81.8148 87.8614 82.1056C87.7049 82.3963 87.6262 82.7473 87.6262 83.1604ZM99.6498 80.3279L97.0347 87.4376H95.9301L93.316 80.3289H94.4944L96.4465 85.9938H96.5193L98.4714 80.3289L99.6498 80.3279ZM101.083 87.4376V80.3289H102.17V87.4376H101.083ZM101.636 79.1428C101.432 79.146 101.234 79.0678 101.087 78.9252C101.016 78.8589 100.958 78.7782 100.919 78.6882C100.881 78.5982 100.861 78.501 100.862 78.4029C100.862 78.1983 100.937 78.0249 101.087 77.8795C101.234 77.7368 101.432 77.6586 101.636 77.6619C101.847 77.6619 102.028 77.7341 102.178 77.8795C102.251 77.9451 102.31 78.0258 102.35 78.1161C102.389 78.2064 102.409 78.3041 102.408 78.4029C102.409 78.5013 102.389 78.5989 102.35 78.6889C102.31 78.779 102.252 78.8596 102.179 78.9252C102.107 78.9959 102.023 79.0516 101.929 79.0889C101.836 79.1263 101.736 79.1446 101.636 79.1428ZM104.158 87.4376V80.3289H105.208V81.4017H105.282C105.411 81.0508 105.644 80.7651 105.982 80.5455C106.319 80.3269 106.699 80.2166 107.123 80.2166C107.203 80.2166 107.303 80.2186 107.422 80.2216C107.542 80.2246 107.632 80.2297 107.693 80.2357V81.3466C107.61 81.3292 107.525 81.3151 107.44 81.3045C107.305 81.2825 107.168 81.2717 107.031 81.2724C106.711 81.2667 106.395 81.3415 106.11 81.49C105.843 81.6313 105.632 81.8289 105.475 82.0815C105.322 82.3322 105.246 82.6179 105.246 82.9388V87.4376H104.158ZM111.638 87.586C110.999 87.586 110.44 87.4326 109.958 87.1278C109.472 86.8137 109.083 86.3692 108.835 85.8444C108.568 85.296 108.434 84.6543 108.434 83.9193C108.434 83.1794 108.568 82.5327 108.835 81.9803C109.104 81.4288 109.479 80.9987 109.958 80.6939C110.439 80.3881 110.999 80.2357 111.638 80.2357C112.276 80.2357 112.834 80.3881 113.313 80.6939C113.795 80.9987 114.17 81.4278 114.436 81.9803C114.706 82.5327 114.841 83.1794 114.841 83.9193C114.841 84.6543 114.706 85.296 114.436 85.8444C114.19 86.3704 113.801 86.8155 113.314 87.1278C112.835 87.4326 112.277 87.586 111.639 87.586H111.638ZM111.638 86.6044C112.123 86.6044 112.522 86.4791 112.834 86.2294C113.148 85.9788 113.379 85.6509 113.53 85.2438C113.679 84.8358 113.755 84.3946 113.755 83.9204C113.755 83.4441 113.68 83.0019 113.53 82.5909C113.394 82.2012 113.153 81.857 112.835 81.5962C112.522 81.3436 112.123 81.2172 111.639 81.2172C111.153 81.2172 110.754 81.3436 110.442 81.5962C110.123 81.8569 109.883 82.2011 109.746 82.5909C109.597 83.0019 109.521 83.4441 109.521 83.9193C109.521 84.3946 109.596 84.8368 109.746 85.2428C109.896 85.6509 110.128 85.9798 110.441 86.2294C110.754 86.4801 111.153 86.6044 111.638 86.6044ZM117.586 83.1604V87.4376H116.499V80.3289H117.549V81.4388H117.64C117.807 81.0779 118.058 80.7871 118.396 80.5685C118.733 80.347 119.169 80.2357 119.702 80.2357C120.181 80.2357 120.599 80.3339 120.958 80.5314C121.317 80.726 121.597 81.0227 121.797 81.4208C121.996 81.8148 122.096 82.3151 122.096 82.9197V87.4376H121.009V82.9939C121.009 82.4355 120.866 82.0013 120.578 81.6885C120.288 81.3737 119.893 81.2172 119.39 81.2172C119.066 81.2115 118.746 81.2895 118.46 81.4438C118.191 81.5942 117.976 81.8148 117.82 82.1056C117.663 82.3963 117.586 82.7473 117.586 83.1604ZM124.081 87.4376V80.3289H125.13V81.4388H125.223C125.358 81.0741 125.609 80.7637 125.935 80.5545C126.264 80.342 126.658 80.2357 127.119 80.2357C127.585 80.2357 127.973 80.342 128.283 80.5545C128.596 80.7651 128.84 81.0588 129.015 81.4388H129.089C129.268 81.0729 129.552 80.7686 129.903 80.5645C130.265 80.345 130.7 80.2357 131.205 80.2357C131.838 80.2357 132.355 80.4342 132.757 80.8322C133.159 81.2273 133.36 81.8429 133.36 82.6791V87.4376H132.273V82.6791C132.273 82.1547 132.131 81.7797 131.845 81.5541C131.558 81.3282 131.202 81.2088 130.838 81.2162C130.34 81.2162 129.955 81.3676 129.682 81.6704C129.409 81.9692 129.273 82.3492 129.273 82.8094V87.4376H128.168V82.5678C128.168 82.1637 128.038 81.8389 127.777 81.5912C127.516 81.3416 127.18 81.2172 126.769 81.2172C126.487 81.2172 126.222 81.2924 125.977 81.4438C125.735 81.5942 125.539 81.8048 125.389 82.0735C125.24 82.3382 125.167 82.645 125.167 82.9939V87.4376H124.081ZM138.31 87.586C137.629 87.586 137.041 87.4346 136.547 87.1318C136.055 86.8242 135.66 86.3809 135.411 85.8544C135.147 85.305 135.014 84.6663 135.014 83.9384C135.014 83.2105 135.146 82.5678 135.41 82.0133C135.677 81.4539 136.048 81.0197 136.524 80.7079C137.003 80.3931 137.561 80.2357 138.199 80.2357C138.568 80.2357 138.931 80.2968 139.29 80.4202C139.649 80.5435 139.976 80.745 140.27 81.0217C140.565 81.2965 140.799 81.6614 140.975 82.1146C141.149 82.5688 141.237 83.1273 141.237 83.79V84.2532H135.788V83.3087H140.132C140.132 82.9077 140.053 82.5498 139.893 82.2359C139.744 81.9285 139.511 81.6699 139.221 81.49C138.914 81.3023 138.559 81.2073 138.199 81.2162C137.767 81.2162 137.392 81.3245 137.077 81.5411C136.767 81.7496 136.518 82.0367 136.354 82.3733C136.184 82.7162 136.101 83.0832 136.101 83.4762V84.1048C136.101 84.6422 136.192 85.0974 136.377 85.4704C136.564 85.8414 136.823 86.1221 137.154 86.3176C137.485 86.5081 137.871 86.6044 138.31 86.6044C138.595 86.6044 138.853 86.5643 139.083 86.4841C139.308 86.4056 139.514 86.279 139.686 86.1131C139.855 85.9477 139.985 85.7401 140.078 85.4935L141.126 85.7903C141.017 86.1482 140.83 86.462 140.57 86.7337C140.296 87.0108 139.966 87.2255 139.603 87.3634C139.189 87.517 138.751 87.5924 138.31 87.586ZM143.976 83.1604V87.4376H142.889V80.3289H143.939V81.4388H144.031C144.196 81.0779 144.448 80.7871 144.785 80.5685C145.123 80.347 145.559 80.2357 146.092 80.2357C146.571 80.2357 146.99 80.3339 147.349 80.5314C147.708 80.726 147.987 81.0227 148.186 81.4208C148.385 81.8148 148.485 82.3151 148.485 82.9197V87.4376H147.399V82.9939C147.399 82.4355 147.256 82.0013 146.967 81.6885C146.679 81.3737 146.283 81.2172 145.78 81.2172C145.433 81.2172 145.122 81.2924 144.85 81.4438C144.58 81.5942 144.367 81.8148 144.21 82.1056C144.054 82.3963 143.976 82.7473 143.976 83.1604ZM153.546 80.3279V81.2533H149.882V80.3279H153.546ZM150.949 78.6244H152.035V85.4012C152.035 85.709 152.079 85.9407 152.168 86.0951C152.261 86.2465 152.377 86.3487 152.518 86.4009C152.663 86.451 152.814 86.4751 152.974 86.4751C153.093 86.4751 153.192 86.469 153.269 86.456L153.452 86.4189L153.673 87.4015C153.573 87.4364 153.469 87.4638 153.364 87.4837C153.233 87.5138 153.065 87.5298 152.863 87.5298C152.557 87.5298 152.255 87.4637 151.962 87.3313C151.669 87.1983 151.418 86.9888 151.234 86.7247C151.044 86.454 150.949 86.1111 150.949 85.697V78.6244ZM164.604 80.3289L161.991 87.4376H160.887L158.273 80.3289H159.45L161.402 85.9938H161.476L163.427 80.3289H164.605H164.604ZM167.903 87.604C167.455 87.604 167.049 87.5198 166.683 87.3494C166.33 87.187 166.029 86.9291 165.814 86.6044C165.598 86.2775 165.492 85.8825 165.492 85.4193C165.492 85.0122 165.572 84.6824 165.731 84.4287C165.891 84.173 166.104 83.9725 166.37 83.8271C166.637 83.6817 166.932 83.5744 167.254 83.5033C167.579 83.4291 167.906 83.3709 168.234 83.3278C168.664 83.2716 169.012 83.2305 169.279 83.2025C169.549 83.1724 169.746 83.1202 169.869 83.0501C169.994 82.9789 170.057 82.8556 170.057 82.6791V82.642C170.057 82.1858 169.933 81.8299 169.684 81.5782C169.439 81.3245 169.066 81.1982 168.566 81.1982C168.047 81.1982 167.641 81.3125 167.346 81.5411C167.052 81.7687 166.845 82.0123 166.725 82.272L165.694 81.901C165.879 81.4699 166.124 81.133 166.431 80.8924C166.74 80.6488 167.078 80.4793 167.443 80.3831C167.797 80.2864 168.163 80.2369 168.53 80.2357C168.756 80.2357 169.017 80.2627 169.311 80.3189C169.609 80.371 169.896 80.4803 170.173 80.6478C170.452 80.8142 170.683 81.0659 170.868 81.4017C171.051 81.7386 171.144 82.1888 171.144 82.7533V87.4376H170.057V86.4751H170.002C169.907 86.659 169.783 86.8262 169.634 86.9704C169.437 87.1632 169.204 87.3157 168.948 87.4195C168.662 87.5429 168.314 87.604 167.903 87.604ZM168.069 86.6224C168.499 86.6224 168.861 86.5382 169.155 86.3688C169.435 86.2166 169.668 85.9888 169.827 85.7111C169.977 85.4543 170.057 85.1618 170.057 84.8638V83.8642C170.011 83.9193 169.91 83.9705 169.754 84.0166C169.578 84.0649 169.4 84.1037 169.219 84.1329C168.874 84.1867 168.527 84.2328 168.18 84.2713C167.911 84.3053 167.645 84.3657 167.388 84.4517C167.146 84.532 166.949 84.6543 166.799 84.8177C166.651 84.9781 166.577 85.1977 166.577 85.4754C166.577 85.8544 166.717 86.1412 166.996 86.3357C167.278 86.5272 167.636 86.6224 168.069 86.6224ZM173.126 87.4376V80.3289H174.176V81.4017H174.249C174.378 81.0508 174.611 80.7651 174.948 80.5455C175.288 80.3257 175.685 80.2113 176.09 80.2166C176.169 80.2166 176.269 80.2186 176.389 80.2216C176.508 80.2246 176.599 80.2297 176.661 80.2357V81.3466C176.577 81.3292 176.493 81.3152 176.408 81.3045C176.272 81.2824 176.135 81.2717 175.998 81.2724C175.654 81.2724 175.348 81.3446 175.078 81.49C174.811 81.6313 174.599 81.8289 174.443 82.0815C174.289 82.3322 174.212 82.6179 174.212 82.9388V87.4376H173.126ZM177.948 87.4376V80.3289H179.035V87.4376H177.948ZM178.5 79.1428C178.297 79.1457 178.1 79.0675 177.953 78.9252C177.881 78.859 177.824 78.7782 177.785 78.6882C177.746 78.5982 177.727 78.501 177.728 78.4029C177.728 78.1983 177.803 78.0249 177.953 77.8795C178.1 77.7371 178.297 77.6589 178.5 77.6619C178.713 77.6619 178.893 77.7341 179.044 77.8795C179.117 77.9451 179.176 78.0258 179.215 78.1161C179.255 78.2064 179.275 78.3041 179.274 78.4029C179.275 78.5014 179.255 78.599 179.215 78.6891C179.175 78.7792 179.117 78.8597 179.044 78.9252C178.972 78.9959 178.887 79.0516 178.794 79.0889C178.701 79.1263 178.601 79.1446 178.5 79.1428ZM183.105 87.605C182.657 87.605 182.25 87.5198 181.884 87.3494C181.531 87.187 181.23 86.9291 181.015 86.6044C180.801 86.2775 180.693 85.8825 180.693 85.4193C180.693 85.0122 180.773 84.6824 180.932 84.4287C181.092 84.173 181.305 83.9725 181.572 83.8271C181.838 83.6817 182.133 83.5744 182.455 83.5033C182.781 83.4291 183.108 83.3709 183.436 83.3278C183.865 83.2716 184.213 83.2305 184.48 83.2025C184.751 83.1724 184.947 83.1202 185.07 83.0501C185.195 82.9789 185.258 82.8556 185.258 82.6791V82.642C185.258 82.1858 185.134 81.8299 184.885 81.5782C184.64 81.3245 184.267 81.1982 183.768 81.1982C183.248 81.1982 182.842 81.3125 182.547 81.5411C182.253 81.7687 182.046 82.0123 181.926 82.272L180.895 81.901C181.08 81.4699 181.325 81.133 181.632 80.8924C181.941 80.6488 182.279 80.4793 182.644 80.3831C183.013 80.2848 183.375 80.2357 183.731 80.2357C183.957 80.2357 184.218 80.2627 184.512 80.3189C184.81 80.371 185.098 80.4803 185.374 80.6478C185.653 80.8142 185.884 81.0659 186.069 81.4017C186.253 81.7386 186.345 82.1888 186.345 82.7533V87.4376H185.258V86.4751H185.203C185.108 86.659 184.984 86.8262 184.835 86.9704C184.638 87.1632 184.405 87.3157 184.149 87.4195C183.864 87.5429 183.515 87.605 183.105 87.605ZM183.27 86.6224C183.7 86.6224 184.062 86.5382 184.357 86.3688C184.654 86.1983 184.878 85.9798 185.029 85.7111C185.181 85.4423 185.258 85.1596 185.258 84.8638V83.8642C185.212 83.9193 185.111 83.9705 184.955 84.0166C184.779 84.0649 184.601 84.1037 184.421 84.1329C184.075 84.1867 183.728 84.2328 183.381 84.2713C183.112 84.3053 182.846 84.3657 182.589 84.4517C182.347 84.532 182.15 84.6543 182 84.8177C181.852 84.9781 181.779 85.1977 181.779 85.4754C181.779 85.8544 181.918 86.1412 182.197 86.3357C182.48 86.5272 182.837 86.6224 183.27 86.6224ZM188.474 87.4376V77.9587H189.561V81.4579H189.653C189.758 81.2972 189.869 81.1397 189.984 80.9856C190.151 80.7715 190.361 80.5949 190.601 80.4673C190.871 80.3129 191.236 80.2357 191.697 80.2357C192.292 80.2357 192.816 80.3851 193.27 80.6849C193.724 80.9836 194.078 81.4078 194.334 81.9582C194.588 82.5066 194.715 83.1543 194.715 83.9013C194.715 84.6543 194.588 85.307 194.334 85.8594C194.078 86.4089 193.726 86.834 193.275 87.1368C192.824 87.4366 192.304 87.586 191.715 87.586C191.261 87.586 190.897 87.5098 190.624 87.3594C190.38 87.2301 190.166 87.052 189.994 86.836C189.873 86.6773 189.759 86.5133 189.653 86.3447H189.524V87.4376H188.474ZM189.542 83.8823C189.542 84.4197 189.621 84.8929 189.777 85.304C189.934 85.7111 190.162 86.0309 190.462 86.2615C190.763 86.4901 191.131 86.6044 191.567 86.6044C192.022 86.6044 192.4 86.4841 192.705 86.2435C193.02 85.9864 193.259 85.6467 193.394 85.2619C193.556 84.8206 193.636 84.3534 193.63 83.8833C193.63 83.3829 193.553 82.9328 193.399 82.5317C193.267 82.1525 193.029 81.8197 192.713 81.5732C192.409 81.3356 192.028 81.2172 191.567 81.2172C191.125 81.2172 190.754 81.3295 190.453 81.5551C190.153 81.7767 189.926 82.0885 189.772 82.4896C189.619 82.8876 189.542 83.3509 189.542 83.8823ZM197.463 77.9577V87.4376H196.377V77.9587L197.463 77.9577ZM202.417 87.586C201.735 87.586 201.148 87.4346 200.653 87.1318C200.161 86.8241 199.766 86.3808 199.517 85.8544C199.254 85.305 199.121 84.6663 199.121 83.9384C199.121 83.2105 199.254 82.5678 199.517 82.0133C199.76 81.4824 200.146 81.0303 200.631 80.7079C201.11 80.3931 201.668 80.2357 202.306 80.2357C202.674 80.2357 203.038 80.2968 203.397 80.4202C203.756 80.5435 204.083 80.745 204.377 81.0217C204.672 81.2965 204.907 81.6614 205.082 82.1146C205.257 82.5688 205.344 83.1273 205.344 83.79V84.2532H199.895V83.3087H204.24C204.24 82.9077 204.16 82.5498 204 82.2359C203.851 81.9286 203.618 81.67 203.328 81.49C203.021 81.3025 202.666 81.2075 202.306 81.2162C201.874 81.2162 201.499 81.3245 201.183 81.5411C200.874 81.7497 200.625 82.0368 200.461 82.3733C200.292 82.7162 200.208 83.0832 200.208 83.4762V84.1048C200.208 84.6422 200.3 85.0974 200.484 85.4704C200.67 85.8414 200.93 86.1221 201.262 86.3176C201.593 86.5081 201.977 86.6044 202.417 86.6044C202.702 86.6044 202.96 86.5643 203.19 86.4841C203.423 86.4009 203.624 86.2775 203.793 86.1131C203.961 85.9477 204.092 85.7401 204.184 85.4935L205.234 85.7903C205.125 86.1448 204.934 86.4682 204.676 86.7337C204.403 87.0109 204.073 87.2257 203.71 87.3634C203.297 87.517 202.858 87.5924 202.417 87.586Z" fill="#D8D8D8"/>
<path d="M297.138 95.9611H87.7702C82.5393 95.9611 78.2988 100.226 78.2988 105.487V117.519C78.2988 122.78 82.5393 127.045 87.7702 127.045H297.138C302.369 127.045 306.609 122.78 306.609 117.519V105.487C306.609 100.226 302.369 95.9611 297.138 95.9611Z" fill="#262626"/>
<path d="M297.138 95.9611H87.7702C82.5393 95.9611 78.2988 100.226 78.2988 105.487V117.519C78.2988 122.78 82.5393 127.045 87.7702 127.045H297.138C302.369 127.045 306.609 122.78 306.609 117.519V105.487C306.609 100.226 302.369 95.9611 297.138 95.9611Z" stroke="#484848" stroke-width="0.999806"/>
<path d="M90.9053 116.014V106.535H92.0468V111.237H92.1565L96.3917 106.535H97.8822L93.9241 110.812L97.8822 116.014H96.5014L93.2253 111.608L92.0468 112.941V116.014H90.9053ZM101.658 116.163C100.977 116.163 100.389 116.011 99.8951 115.709C99.4024 115.401 99.0079 114.958 98.7585 114.431C98.4943 113.882 98.3627 113.243 98.3627 112.515C98.3627 111.787 98.4943 111.146 98.7585 110.59C99.0247 110.031 99.3966 109.596 99.8722 109.285C100.351 108.97 100.909 108.813 101.547 108.813C101.916 108.813 102.279 108.874 102.638 108.997C102.997 109.12 103.324 109.322 103.619 109.599C103.913 109.874 104.147 110.238 104.323 110.691C104.497 111.146 104.585 111.704 104.585 112.367V112.83H99.1354V111.886H103.48C103.48 111.485 103.401 111.127 103.241 110.813C103.091 110.505 102.858 110.247 102.569 110.067C102.261 109.879 101.907 109.784 101.547 109.793C101.114 109.793 100.74 109.901 100.424 110.118C100.115 110.327 99.8655 110.614 99.7017 110.95C99.5322 111.293 99.4484 111.66 99.4484 112.053V112.682C99.4484 113.219 99.5412 113.674 99.7246 114.047C99.912 114.418 100.171 114.699 100.502 114.895C100.834 115.085 101.219 115.181 101.659 115.181C101.943 115.181 102.201 115.141 102.431 115.061C102.656 114.982 102.862 114.856 103.034 114.69C103.203 114.524 103.333 114.317 103.425 114.07L104.474 114.366C104.366 114.721 104.176 115.045 103.918 115.311C103.644 115.588 103.314 115.802 102.951 115.94C102.537 116.094 102.099 116.169 101.658 116.163ZM106.722 118.68C106.538 118.68 106.374 118.665 106.229 118.634C106.126 118.619 106.026 118.591 105.93 118.551L106.206 117.589C106.47 117.656 106.704 117.681 106.906 117.663C107.113 117.642 107.305 117.544 107.444 117.389C107.604 117.229 107.749 116.968 107.882 116.607L108.084 116.052L105.47 108.905H106.648L108.6 114.57H108.674L110.625 108.905H111.803L108.802 117.051C108.688 117.382 108.518 117.69 108.301 117.964C108.101 118.207 107.869 118.388 107.606 118.505C107.327 118.626 107.026 118.686 106.722 118.68Z" fill="#606060"/>
<path d="M534.421 95.9611H325.053C319.823 95.9611 315.582 100.226 315.582 105.487V117.519C315.582 122.78 319.823 127.045 325.053 127.045H534.421C539.652 127.045 543.892 122.78 543.892 117.519V105.487C543.892 100.226 539.652 95.9611 534.421 95.9611Z" fill="#262626"/>
<path d="M534.421 95.9611H325.053C319.823 95.9611 315.582 100.226 315.582 105.487V117.519C315.582 122.78 319.823 127.045 325.053 127.045H534.421C539.652 127.045 543.892 122.78 543.892 117.519V105.487C543.892 100.226 539.652 95.9611 534.421 95.9611Z" stroke="#484848" stroke-width="0.999806"/>
<path d="M328.575 106.535L331.373 114.516H331.484L334.282 106.535H335.478L332.018 116.014H330.839L327.378 106.535H328.575ZM338.222 116.181C337.774 116.181 337.368 116.097 337.002 115.926C336.649 115.764 336.348 115.506 336.132 115.181C335.917 114.854 335.81 114.459 335.81 113.996C335.81 113.589 335.89 113.259 336.05 113.006C336.209 112.75 336.423 112.549 336.69 112.404C336.956 112.259 337.251 112.151 337.573 112.08C337.898 112.006 338.225 111.948 338.553 111.905C338.983 111.849 339.331 111.807 339.598 111.779C339.868 111.749 340.065 111.697 340.187 111.627C340.313 111.556 340.376 111.432 340.376 111.256V111.219C340.376 110.763 340.252 110.407 340.003 110.155C339.758 109.901 339.385 109.775 338.885 109.775C338.366 109.775 337.96 109.889 337.665 110.118C337.371 110.346 337.163 110.589 337.044 110.849L336.013 110.478C336.197 110.047 336.443 109.71 336.75 109.469C337.059 109.226 337.397 109.056 337.762 108.96C338.116 108.863 338.481 108.814 338.848 108.813C339.075 108.813 339.336 108.84 339.63 108.896C339.928 108.948 340.215 109.057 340.491 109.225C340.77 109.391 341.002 109.643 341.186 109.979C341.37 110.315 341.462 110.766 341.462 111.33V116.014H340.376V115.052H340.321C340.225 115.236 340.101 115.403 339.953 115.547C339.755 115.74 339.522 115.892 339.267 115.995C338.982 116.12 338.633 116.181 338.222 116.181ZM338.388 115.2C338.817 115.2 339.179 115.115 339.473 114.946C339.754 114.793 339.986 114.566 340.145 114.288C340.296 114.031 340.375 113.739 340.376 113.441V112.441C340.33 112.497 340.229 112.547 340.073 112.593C339.897 112.642 339.718 112.681 339.538 112.71C339.193 112.764 338.846 112.81 338.498 112.848C338.229 112.882 337.964 112.943 337.707 113.029C337.464 113.109 337.268 113.231 337.118 113.395C336.97 113.555 336.896 113.775 336.896 114.052C336.896 114.431 337.036 114.718 337.315 114.913C337.598 115.104 337.955 115.2 338.388 115.2ZM344.531 106.535V116.014H343.444V106.535H344.531ZM350.976 113.108V108.905H352.062V116.014H350.976V114.811H350.902C350.729 115.181 350.462 115.498 350.129 115.732C349.779 115.982 349.338 116.107 348.803 116.107C348.392 116.115 347.986 116.014 347.625 115.816C347.272 115.608 346.99 115.298 346.815 114.927C346.619 114.529 346.52 114.027 346.52 113.423V108.905H347.607V113.348C347.607 113.867 347.75 114.281 348.039 114.589C348.331 114.898 348.702 115.052 349.153 115.052C349.423 115.052 349.697 114.982 349.977 114.843C350.259 114.704 350.495 114.492 350.685 114.205C350.879 113.918 350.976 113.552 350.976 113.108ZM357.015 116.163C356.334 116.163 355.746 116.011 355.253 115.709C354.76 115.401 354.365 114.958 354.116 114.431C353.852 113.882 353.72 113.243 353.72 112.515C353.72 111.787 353.852 111.146 354.116 110.59C354.382 110.031 354.754 109.596 355.23 109.285C355.708 108.97 356.267 108.813 356.905 108.813C357.274 108.813 357.636 108.874 357.995 108.997C358.354 109.12 358.681 109.322 358.976 109.599C359.271 109.874 359.506 110.238 359.68 110.691C359.855 111.146 359.942 111.704 359.942 112.367V112.83H354.493V111.886H358.838C358.838 111.485 358.758 111.127 358.599 110.813C358.449 110.505 358.216 110.247 357.927 110.067C357.619 109.879 357.264 109.784 356.905 109.793C356.472 109.793 356.098 109.901 355.782 110.118C355.472 110.327 355.223 110.614 355.059 110.95C354.89 111.293 354.804 111.671 354.806 112.053V112.682C354.806 113.219 354.898 113.674 355.082 114.047C355.27 114.418 355.529 114.699 355.86 114.895C356.192 115.085 356.577 115.181 357.015 115.181C357.3 115.181 357.559 115.141 357.789 115.061C358.022 114.978 358.223 114.854 358.391 114.69C358.561 114.524 358.69 114.317 358.783 114.07L359.832 114.366C359.724 114.721 359.533 115.045 359.275 115.311C359.002 115.588 358.672 115.802 358.308 115.94C357.895 116.094 357.456 116.169 357.015 116.163Z" fill="#606060"/>
</g>
</g>
</g>
<defs>
<clipPath id="clip0_203_1852">
<rect width="538.8" height="207.53" fill="white"/>
</clipPath>
<clipPath id="clip1_203_1852">
<rect width="457.97" height="56.03" fill="white" transform="translate(83.8096 73.33)"/>
</clipPath>
<clipPath id="clip2_203_1852">
<rect width="457.97" height="56.03" fill="white" transform="translate(83.8096 73.33)"/>
</clipPath>
<clipPath id="clip3_203_1852">
<rect width="506.47" height="89.24" fill="white" transform="translate(57.8604 58.36)"/>
</clipPath>
<clipPath id="clip4_203_1852">
<rect width="506.47" height="89.24" fill="white" transform="translate(57.8604 58.36)"/>
</clipPath>
</defs>
</svg>
