<svg width="600" height="340" viewBox="0 0 600 340" fill="none" xmlns="http://www.w3.org/2000/svg">
<g clip-path="url(#clip0_233_2)">
<g clip-path="url(#clip1_233_2)">
<g clip-path="url(#clip2_233_2)">
<g clip-path="url(#clip3_233_2)">
<mask id="mask0_233_2" style="mask-type:luminance" maskUnits="userSpaceOnUse" x="-470" y="-43" width="1070" height="426">
<path d="M-470 -42.7H600V382.3H-470V-42.7Z" fill="white"/>
</mask>
<g mask="url(#mask0_233_2)">
<path opacity="0.2" d="M406.775 189.346L403.671 231.551L362.118 253.83L296.775 258.509L245.189 262.547L248.088 174.402L406.775 189.346Z" fill="black"/>
<path d="M156.804 179.761L254.704 123.104L342.84 174.109L244.94 230.766L156.804 179.761Z" fill="#1F1F1F"/>
<path d="M156.775 132.717L203.732 46.6694L292.073 97.8609L245.105 183.931L156.775 132.717Z" fill="#585858"/>
<path fill-rule="evenodd" clip-rule="evenodd" d="M204.089 63.4921L170.727 124.627C169.996 125.967 169.817 127.54 170.228 129.01C170.64 130.48 171.609 131.731 172.928 132.494L236.734 169.419C237.407 169.809 238.151 170.059 238.922 170.157C239.693 170.254 240.475 170.196 241.224 169.986C241.972 169.775 242.671 169.417 243.279 168.933C243.887 168.448 244.393 167.846 244.766 167.163L278.136 106.011C278.867 104.671 279.046 103.098 278.635 101.627C278.224 100.157 277.254 98.9061 275.935 98.1426L212.12 61.2338C211.447 60.8447 210.703 60.5943 209.932 60.4974C209.161 60.4004 208.379 60.4589 207.63 60.6692C206.882 60.8796 206.184 61.2377 205.575 61.7224C204.967 62.2072 204.462 62.8088 204.089 63.4921Z" fill="#1F1F1F"/>
<path d="M175.236 124.375L208.598 63.2405C209.176 62.1755 210.072 61.3186 211.161 60.7898C209.854 60.3238 208.424 60.3399 207.128 60.8352C205.832 61.3304 204.755 62.2724 204.089 63.4921L170.727 124.627C169.996 125.967 169.817 127.54 170.228 129.01C170.64 130.48 171.609 131.731 172.928 132.494L236.734 169.42C237.56 169.899 238.491 170.167 239.444 170.201C240.398 170.235 241.345 170.033 242.203 169.614C241.87 169.494 241.549 169.345 241.243 169.168L177.436 132.243C176.117 131.479 175.148 130.228 174.737 128.758C174.326 127.288 174.505 125.715 175.236 124.375Z" fill="#131313"/>
<path d="M203.73 46.7425L254.511 17.5688L342.667 68.5438L292.086 97.8447L203.73 46.7425Z" fill="#484848"/>
<path d="M217.844 50.4463C215.079 48.8465 215.087 46.2494 217.857 44.6526C220.617 43.0629 225.084 43.0619 227.84 44.6546C230.602 46.2504 230.599 48.8425 227.84 50.4402C225.082 52.038 220.605 52.042 217.844 50.4463Z" fill="#2D2D2D"/>
<path d="M217.752 48.7783C214.987 47.1806 214.991 44.5865 217.76 42.9907L217.899 42.9105C220.657 41.3208 225.119 41.3228 227.873 42.9145C230.634 44.5103 230.637 47.0994 227.878 48.6961L227.74 48.7763C224.983 50.3731 220.511 50.3741 217.752 48.7783Z" fill="#585858"/>
<path d="M292.059 97.8178L342.658 68.5359V209.767L292.059 239.048L243.457 261.47L237.826 224.559L244.911 183.91L292.059 97.8178Z" fill="#1C1C1C"/>
<path d="M270.468 80.3968C268.87 79.4736 268.872 77.9741 270.473 77.0519L285.993 68.1139C287.587 67.1957 290.165 67.1967 291.756 68.1169L310.406 78.8963C312.001 79.8184 312.002 81.314 310.409 82.2371L294.928 91.2022C293.335 92.1244 290.751 92.1254 289.157 91.2032L270.468 80.3968Z" fill="#2D2D2D"/>
<path d="M270.579 78.1866C268.981 77.2634 268.984 75.7639 270.585 74.8417L286.104 65.9037C287.699 64.9855 290.276 64.9865 291.867 65.9067L310.517 76.6861C312.112 77.6082 312.114 79.1038 310.52 80.0269L295.04 88.991C293.446 89.9142 290.863 89.9142 289.268 88.993L270.579 78.1866Z" fill="#585858"/>
<path d="M156.775 132.699L244.939 183.744V262.39L156.775 211.368V132.699Z" fill="#303030"/>
<path d="M156.778 132.698L244.942 183.742V262.593L156.778 211.572V132.698Z" fill="#303030"/>
<path d="M164.282 171.114C164.282 168.657 166.003 167.662 168.126 168.892L184.055 178.119C185.197 178.78 186.123 180.388 186.123 181.71V217.925C186.123 219.247 185.196 219.784 184.054 219.122L166.351 208.878C165.208 208.216 164.282 206.609 164.282 205.286V171.114Z" fill="#1F1F1F"/>
<path d="M164.282 170.201C164.282 168.878 165.209 168.342 166.352 169.004L182.69 178.468C183.832 179.13 184.757 180.738 184.757 182.059V217.135C184.757 218.459 183.831 218.994 182.689 218.333L166.351 208.878C165.208 208.216 164.282 206.609 164.282 205.287V170.201Z" fill="#262626"/>
<path d="M226.729 192.122C226.729 189.828 228.337 188.901 230.318 190.052C232.294 191.2 233.896 193.981 233.896 196.268V236.702C233.896 238.992 232.291 239.92 230.312 238.775C228.334 237.63 226.729 234.845 226.729 232.554V192.122Z" fill="#131313"/>
<path d="M229.286 189.416C229.177 189.75 229.117 190.138 229.117 190.577V231.082C229.117 233.373 230.723 236.158 232.701 237.303C233.058 237.509 233.403 237.649 233.728 237.725C233.267 239.133 231.911 239.562 230.312 238.637C228.334 237.491 226.729 234.707 226.729 232.416V191.911C226.729 190.033 227.808 189.07 229.286 189.416Z" fill="#1F1F1F"/>
<path d="M169.001 161.688C171.985 163.415 174.403 162.015 174.403 158.562C174.403 155.108 171.985 150.909 169.001 149.183C166.017 147.456 163.599 148.856 163.599 152.309C163.599 155.762 166.017 159.961 169.001 161.688Z" fill="#1F1F1F"/>
<path d="M167.635 162.373C170.618 164.099 173.037 162.7 173.037 159.246C173.037 155.793 170.618 151.594 167.635 149.867C164.651 148.141 162.232 149.54 162.232 152.994C162.232 156.447 164.651 160.646 167.635 162.373Z" fill="#4A4A4A"/>
<path d="M182.655 169.897C185.639 171.624 188.058 170.224 188.058 166.771C188.058 163.318 185.639 159.119 182.655 157.392C179.672 155.665 177.253 157.065 177.253 160.518C177.253 163.972 179.672 168.171 182.655 169.897Z" fill="#1F1F1F"/>
<path d="M181.289 170.581C184.273 172.308 186.691 170.908 186.691 167.455C186.691 164.001 184.273 159.802 181.289 158.076C178.305 156.349 175.887 157.749 175.887 161.202C175.887 164.655 178.305 168.854 181.289 170.581Z" fill="#4A4A4A"/>
<path d="M244.942 184.001L340.772 128.544V206.565L244.942 262.023V184.001Z" fill="#1F1F1F"/>
<path d="M244.942 184.001L340.772 128.544V207.33L244.942 262.789V184.001Z" fill="#1C1C1C"/>
<path d="M333.821 144.423L288.569 170.611C287.589 171.178 286.795 172.557 286.795 173.69V226.136C286.795 227.269 287.589 227.729 288.569 227.162L333.821 200.974C334.801 200.407 335.595 199.028 335.595 197.895V145.449C335.595 144.316 334.801 143.856 333.821 144.423Z" fill="#252525"/>
<path d="M211.708 114.225C211.469 114.658 211.147 115.039 210.76 115.345C210.373 115.651 209.929 115.877 209.453 116.009C208.978 116.142 208.481 116.177 207.992 116.115C207.503 116.052 207.031 115.892 206.604 115.645C204.803 114.602 204.155 112.262 205.163 110.438C205.402 110.006 205.724 109.625 206.111 109.319C206.498 109.013 206.942 108.787 207.418 108.655C207.893 108.523 208.39 108.487 208.879 108.55C209.368 108.612 209.84 108.772 210.267 109.02L213.539 110.914L211.708 114.225ZM213.357 115.181C213.595 114.748 213.918 114.367 214.305 114.061C214.692 113.754 215.136 113.528 215.611 113.396C216.087 113.264 216.584 113.228 217.073 113.291C217.562 113.354 218.034 113.514 218.461 113.761C220.261 114.804 220.909 117.144 219.901 118.968L215.314 127.261C215.075 127.694 214.753 128.074 214.366 128.381C213.979 128.687 213.535 128.913 213.06 129.045C212.585 129.177 212.088 129.213 211.599 129.15C211.11 129.088 210.638 128.928 210.211 128.68C208.41 127.638 207.762 125.297 208.77 123.474L213.357 115.181Z" fill="#E01E5A"/>
<path d="M223.985 103.773C222.184 102.73 221.536 100.39 222.544 98.5665C222.782 98.1339 223.105 97.7534 223.492 97.4471C223.879 97.1409 224.323 96.9152 224.799 96.7831C225.274 96.651 225.771 96.6153 226.26 96.678C226.749 96.7407 227.221 96.9005 227.648 97.1482C229.449 98.1907 230.097 100.531 229.088 102.354L227.257 105.666L223.985 103.773ZM223.061 105.442C224.862 106.484 225.509 108.825 224.501 110.648C224.262 111.081 223.94 111.461 223.553 111.768C223.166 112.074 222.721 112.3 222.246 112.432C221.771 112.564 221.274 112.6 220.785 112.537C220.295 112.474 219.824 112.314 219.397 112.066L211.204 107.325C209.403 106.283 208.756 103.942 209.764 102.119C210.002 101.686 210.325 101.306 210.712 101C211.099 100.693 211.543 100.468 212.019 100.335C212.494 100.203 212.991 100.168 213.48 100.23C213.969 100.293 214.441 100.453 214.868 100.701L223.061 105.442Z" fill="#36C5F0"/>
<path d="M234.368 116.357C234.607 115.925 234.929 115.544 235.316 115.238C235.703 114.931 236.148 114.706 236.623 114.574C237.098 114.442 237.595 114.406 238.084 114.469C238.574 114.531 239.045 114.691 239.472 114.939C241.273 115.981 241.921 118.321 240.913 120.144C240.675 120.577 240.352 120.958 239.965 121.264C239.578 121.57 239.134 121.796 238.659 121.928C238.183 122.06 237.687 122.096 237.197 122.033C236.708 121.971 236.236 121.811 235.809 121.564L232.537 119.67L234.368 116.357ZM232.72 115.403C232.482 115.836 232.159 116.217 231.772 116.523C231.385 116.829 230.941 117.055 230.466 117.187C229.99 117.319 229.493 117.355 229.004 117.292C228.515 117.229 228.043 117.069 227.616 116.822C225.815 115.78 225.167 113.44 226.176 111.616L230.762 103.323C231.001 102.89 231.323 102.509 231.71 102.203C232.097 101.896 232.542 101.671 233.017 101.538C233.492 101.406 233.989 101.37 234.478 101.433C234.968 101.496 235.439 101.656 235.866 101.903C237.667 102.946 238.314 105.286 237.306 107.11L232.72 115.403Z" fill="#2EB67D"/>
<path d="M222.092 126.81C223.893 127.853 224.541 130.193 223.533 132.015C223.294 132.448 222.972 132.829 222.585 133.135C222.198 133.442 221.754 133.668 221.278 133.8C220.803 133.932 220.306 133.968 219.817 133.905C219.328 133.842 218.856 133.682 218.429 133.435C216.628 132.392 215.98 130.052 216.989 128.228L218.82 124.917L222.092 126.81ZM223.015 125.141C221.214 124.1 220.566 121.759 221.575 119.936C221.813 119.503 222.136 119.123 222.523 118.816C222.91 118.51 223.354 118.284 223.829 118.152C224.304 118.02 224.801 117.984 225.29 118.047C225.779 118.109 226.251 118.269 226.678 118.517L234.871 123.259C236.672 124.3 237.32 126.641 236.312 128.464C236.073 128.897 235.751 129.277 235.364 129.583C234.976 129.89 234.532 130.115 234.057 130.248C233.582 130.38 233.085 130.416 232.596 130.353C232.107 130.29 231.635 130.131 231.208 129.883L223.015 125.141Z" fill="#ECB22E"/>
<path d="M126.675 216.911L272.024 301.026C275.85 303.24 275.85 306.83 272.024 309.045L206.132 347.177C202.306 349.391 196.102 349.391 192.276 347.177L46.9271 263.062C43.1008 260.848 43.1007 257.258 46.9271 255.044L112.819 216.911C116.645 214.697 122.849 214.697 126.675 216.911Z" fill="black" fill-opacity="0.1"/>
<path d="M102.675 212.902L248.024 297.016C251.85 299.231 251.85 302.821 248.024 305.035L182.132 343.168C178.306 345.382 172.102 345.382 168.276 343.168L22.9271 259.053C19.1008 256.839 19.1007 253.249 22.9271 251.034L88.819 212.902C92.6454 210.688 98.8491 210.688 102.675 212.902Z" fill="#262626"/>
<path d="M168.275 346.676L22.9277 262.562C20.9957 261.444 20.0387 259.974 20.0577 258.509L20.0537 243.474L250.893 289.582L250.892 304.617C250.856 306.041 249.9 307.457 248.024 308.544L182.132 346.676C178.305 348.891 172.102 348.891 168.275 346.676Z" fill="#1F1F1F"/>
<path d="M102.675 201.223L248.024 285.337C251.85 287.552 251.85 291.142 248.024 293.356L182.132 331.488C178.306 333.703 172.102 333.703 168.276 331.488L22.9271 247.374C19.1008 245.16 19.1007 241.569 22.9271 239.355L88.819 201.223C92.6454 199.008 98.8491 199.008 102.675 201.223Z" fill="#303030"/>
<path d="M103.634 199.871L246.125 282.332C249.952 284.546 249.952 288.136 246.125 290.351L182.135 327.383C178.308 329.597 172.104 329.597 168.278 327.383L25.7867 244.922C21.9603 242.708 21.9603 239.117 25.7867 236.903L89.7776 199.871C93.604 197.657 99.8077 197.657 103.634 199.871Z" fill="#484848"/>
<path d="M103.634 197.866L246.125 280.327C249.952 282.542 249.952 286.132 246.125 288.346L182.135 325.378C178.308 327.593 172.104 327.593 168.278 325.378L25.7867 242.917C21.9603 240.703 21.9603 237.113 25.7867 234.899L89.7776 197.866C93.604 195.652 99.8077 195.652 103.634 197.866Z" fill="#585858"/>
<path d="M118.427 243.17L128.692 249.111C130.605 250.218 130.605 252.013 128.692 253.12L117.791 259.429C115.877 260.536 112.775 260.536 110.862 259.429L100.597 253.488C98.6841 252.381 98.6841 250.586 100.597 249.479L111.499 243.17C113.412 242.063 116.514 242.063 118.427 243.17Z" fill="#484848"/>
<path d="M138.334 254.69L149.19 260.973C151.103 262.08 151.103 263.875 149.19 264.982L138.289 271.291C136.375 272.398 133.274 272.398 131.36 271.291L120.504 265.008C118.591 263.901 118.591 262.106 120.504 260.999L131.405 254.69C133.319 253.583 136.42 253.583 138.334 254.69Z" fill="#484848"/>
<path d="M97.6258 231.133L108.774 237.585C110.687 238.692 110.687 240.487 108.774 241.594L97.8726 247.903C95.9594 249.01 92.8575 249.01 90.9443 247.903L79.7959 241.451C77.8828 240.344 77.8828 238.549 79.7959 237.442L90.6975 231.133C92.6107 230.026 95.7126 230.026 97.6258 231.133Z" fill="#484848"/>
<path d="M76.5152 218.915L87.5779 225.318C89.4911 226.425 89.4911 228.22 87.5779 229.327L76.6763 235.636C74.7631 236.743 71.6612 236.743 69.748 235.636L58.6854 229.234C56.7722 228.127 56.7722 226.332 58.6854 225.224L69.587 218.915C71.5001 217.808 74.602 217.808 76.5152 218.915Z" fill="#484848"/>
<path d="M158.809 266.54L169.821 272.913C171.734 274.02 171.734 275.815 169.821 276.922L158.919 283.231C157.006 284.338 153.904 284.338 151.991 283.231L140.98 276.859C139.066 275.751 139.066 273.956 140.98 272.849L151.881 266.54C153.794 265.433 156.896 265.433 158.809 266.54Z" fill="#484848"/>
<path d="M180.367 279.01L213.139 297.976C215.053 299.083 215.053 300.878 213.139 301.985L202.238 308.294C200.325 309.401 197.223 309.401 195.31 308.294L162.537 289.328C160.624 288.221 160.624 286.426 162.537 285.319L173.439 279.01C175.352 277.903 178.454 277.903 180.367 279.01Z" fill="#484848"/>
<path d="M77.2075 242.456L88.4451 248.959C90.3582 250.066 90.3582 251.861 88.4451 252.969L77.5435 259.277C75.6303 260.385 72.5284 260.385 70.6152 259.277L59.3776 252.774C57.4645 251.667 57.4645 249.872 59.3776 248.765L70.2792 242.456C72.1924 241.349 75.2943 241.349 77.2075 242.456Z" fill="#484848"/>
<path d="M56.0537 230.214L66.9665 236.529C68.8797 237.636 68.8797 239.431 66.9665 240.538L56.065 246.847C54.1518 247.954 51.0499 247.954 49.1367 246.847L38.2239 240.532C36.3107 239.425 36.3107 237.63 38.2239 236.522L49.1255 230.214C51.0386 229.106 54.1405 229.106 56.0537 230.214Z" fill="#484848"/>
<path d="M160.972 290.931L172.06 297.348C173.973 298.455 173.973 300.251 172.06 301.358L161.159 307.667C159.246 308.774 156.144 308.774 154.23 307.667L143.142 301.249C141.229 300.142 141.229 298.347 143.142 297.24L154.043 290.931C155.957 289.824 159.058 289.824 160.972 290.931Z" fill="#484848"/>
<path d="M182.097 303.157L192.969 309.449C194.883 310.556 194.883 312.351 192.969 313.458L182.068 319.767C180.155 320.874 177.053 320.874 175.14 319.767L164.268 313.475C162.354 312.368 162.354 310.573 164.268 309.466L175.169 303.157C177.082 302.05 180.184 302.05 182.097 303.157Z" fill="#484848"/>
<path d="M97.8789 254.419L150.767 285.026C152.681 286.133 152.681 287.928 150.767 289.035L139.866 295.344C137.953 296.451 134.851 296.451 132.938 295.344L80.049 264.737C78.1359 263.63 78.1359 261.835 80.049 260.727L90.9506 254.419C92.8638 253.311 95.9657 253.311 97.8789 254.419Z" fill="#484848"/>
<path d="M95.7614 206.887L128.44 225.799C130.353 226.906 130.353 228.701 128.44 229.808L117.539 236.117C115.625 237.224 112.524 237.224 110.61 236.117L77.9316 217.206C76.0184 216.099 76.0184 214.304 77.9316 213.196L88.8332 206.887C90.7463 205.78 93.8482 205.78 95.7614 206.887Z" fill="#484848"/>
<path d="M181.093 256.201L191.358 262.141C193.271 263.248 193.271 265.044 191.358 266.151L180.457 272.46C178.543 273.567 175.442 273.567 173.528 272.46L163.263 266.519C161.35 265.412 161.35 263.617 163.263 262.51L174.165 256.201C176.078 255.094 179.18 255.094 181.093 256.201Z" fill="#484848"/>
<path d="M201 267.72L211.856 274.003C213.769 275.11 213.769 276.905 211.856 278.013L200.955 284.321C199.041 285.429 195.94 285.429 194.026 284.321L183.17 278.039C181.257 276.931 181.257 275.136 183.17 274.029L194.071 267.72C195.985 266.613 199.086 266.613 201 267.72Z" fill="#484848"/>
<path d="M160.292 244.164L171.44 250.615C173.353 251.723 173.353 253.518 171.44 254.625L160.539 260.934C158.625 262.041 155.524 262.041 153.61 260.934L142.462 254.482C140.549 253.375 140.549 251.58 142.462 250.473L153.364 244.164C155.277 243.057 158.379 243.057 160.292 244.164Z" fill="#484848"/>
<path d="M139.182 231.946L150.245 238.348C152.158 239.455 152.158 241.251 150.245 242.358L139.343 248.667C137.43 249.774 134.328 249.774 132.415 248.667L121.352 242.265C119.439 241.157 119.439 239.362 121.352 238.255L132.254 231.946C134.167 230.839 137.269 230.839 139.182 231.946Z" fill="#484848"/>
<path d="M221.476 279.571L232.488 285.944C234.401 287.051 234.401 288.846 232.488 289.953L221.586 296.262C219.673 297.369 216.571 297.369 214.658 296.262L203.647 289.889C201.733 288.782 201.733 286.987 203.647 285.88L214.548 279.571C216.461 278.464 219.563 278.464 221.476 279.571Z" fill="#484848"/>
<path d="M118.427 241.166L128.692 247.106C130.605 248.213 130.605 250.008 128.692 251.116L117.791 257.424C115.877 258.532 112.775 258.532 110.862 257.424L100.597 251.484C98.6841 250.377 98.6841 248.582 100.597 247.474L111.499 241.166C113.412 240.058 116.514 240.058 118.427 241.166Z" fill="#696969"/>
<path d="M138.334 252.685L149.19 258.968C151.103 260.075 151.103 261.87 149.19 262.977L138.289 269.286C136.375 270.393 133.274 270.393 131.36 269.286L120.504 263.003C118.591 261.896 118.591 260.101 120.504 258.994L131.405 252.685C133.319 251.578 136.42 251.578 138.334 252.685Z" fill="#696969"/>
<path d="M97.6258 229.128L108.774 235.58C110.687 236.687 110.687 238.482 108.774 239.589L97.8726 245.898C95.9594 247.005 92.8575 247.005 90.9443 245.898L79.7959 239.446C77.8828 238.339 77.8828 236.544 79.7959 235.437L90.6975 229.128C92.6107 228.021 95.7126 228.021 97.6258 229.128Z" fill="#696969"/>
<path d="M76.5152 216.911L87.5779 223.313C89.4911 224.42 89.4911 226.215 87.5779 227.323L76.6763 233.631C74.7631 234.739 71.6612 234.739 69.748 233.631L58.6854 227.229C56.7722 226.122 56.7722 224.327 58.6854 223.22L69.587 216.911C71.5001 215.804 74.602 215.804 76.5152 216.911Z" fill="#696969"/>
<path d="M158.809 264.535L169.821 270.908C171.734 272.015 171.734 273.81 169.821 274.917L158.919 281.226C157.006 282.333 153.904 282.333 151.991 281.226L140.98 274.854C139.066 273.746 139.066 271.951 140.98 270.844L151.881 264.535C153.794 263.428 156.896 263.428 158.809 264.535Z" fill="#696969"/>
<path d="M180.367 277.005L213.139 295.971C215.053 297.078 215.053 298.873 213.139 299.98L202.238 306.289C200.325 307.396 197.223 307.396 195.31 306.289L162.537 287.324C160.624 286.216 160.624 284.421 162.537 283.314L173.439 277.005C175.352 275.898 178.454 275.898 180.367 277.005Z" fill="#696969"/>
<path d="M77.2075 240.451L88.4451 246.955C90.3582 248.062 90.3582 249.857 88.4451 250.964L77.5435 257.273C75.6303 258.38 72.5284 258.38 70.6152 257.273L59.3776 250.77C57.4645 249.663 57.4645 247.867 59.3776 246.76L70.2792 240.451C72.1924 239.344 75.2943 239.344 77.2075 240.451Z" fill="#696969"/>
<path d="M56.0537 228.209L66.9665 234.525C68.8797 235.632 68.8797 237.427 66.9665 238.534L56.065 244.843C54.1518 245.95 51.0499 245.95 49.1367 244.843L38.2239 238.527C36.3107 237.42 36.3107 235.625 38.2239 234.518L49.1255 228.209C51.0386 227.102 54.1405 227.102 56.0537 228.209Z" fill="#696969"/>
<path d="M160.972 288.926L172.06 295.343C173.973 296.451 173.973 298.246 172.06 299.353L161.159 305.662C159.246 306.769 156.144 306.769 154.23 305.662L143.142 299.245C141.229 298.137 141.229 296.342 143.142 295.235L154.043 288.926C155.957 287.819 159.058 287.819 160.972 288.926Z" fill="#696969"/>
<path d="M182.097 301.152L192.969 307.444C194.883 308.551 194.883 310.346 192.969 311.453L182.068 317.762C180.155 318.869 177.053 318.869 175.14 317.762L164.268 311.47C162.354 310.363 162.354 308.568 164.268 307.461L175.169 301.152C177.082 300.045 180.184 300.045 182.097 301.152Z" fill="#696969"/>
<path d="M97.8789 252.414L150.767 283.021C152.681 284.128 152.681 285.923 150.767 287.03L139.866 293.339C137.953 294.446 134.851 294.446 132.938 293.339L80.049 262.732C78.1359 261.625 78.1359 259.83 80.049 258.723L90.9506 252.414C92.8638 251.306 95.9657 251.306 97.8789 252.414Z" fill="#696969"/>
<path d="M95.7614 204.883L128.44 223.794C130.353 224.901 130.353 226.696 128.44 227.804L117.539 234.112C115.625 235.22 112.524 235.22 110.61 234.112L77.9316 215.201C76.0184 214.094 76.0184 212.299 77.9316 211.191L88.8332 204.883C90.7463 203.775 93.8482 203.775 95.7614 204.883Z" fill="#696969"/>
<path d="M181.093 254.196L191.358 260.137C193.271 261.244 193.271 263.039 191.358 264.146L180.457 270.455C178.543 271.562 175.442 271.562 173.528 270.455L163.263 264.515C161.35 263.408 161.35 261.612 163.263 260.505L174.165 254.196C176.078 253.089 179.18 253.089 181.093 254.196Z" fill="#696969"/>
<path d="M201 265.716L211.856 271.999C213.769 273.106 213.769 274.901 211.856 276.008L200.955 282.317C199.041 283.424 195.94 283.424 194.026 282.317L183.17 276.034C181.257 274.927 181.257 273.132 183.17 272.025L194.071 265.716C195.985 264.609 199.086 264.609 201 265.716Z" fill="#696969"/>
<path d="M160.292 242.159L171.44 248.611C173.353 249.718 173.353 251.513 171.44 252.62L160.539 258.929C158.625 260.036 155.524 260.036 153.61 258.929L142.462 252.477C140.549 251.37 140.549 249.575 142.462 248.468L153.364 242.159C155.277 241.052 158.379 241.052 160.292 242.159Z" fill="#696969"/>
<path d="M139.182 229.942L150.245 236.344C152.158 237.451 152.158 239.246 150.245 240.353L139.343 246.662C137.43 247.769 134.328 247.769 132.415 246.662L121.352 240.26C119.439 239.153 119.439 237.358 121.352 236.251L132.254 229.942C134.167 228.835 137.269 228.835 139.182 229.942Z" fill="#696969"/>
<path d="M221.476 277.566L232.488 283.939C234.401 285.046 234.401 286.841 232.488 287.948L221.586 294.257C219.673 295.364 216.571 295.364 214.658 294.257L203.647 287.884C201.733 286.777 201.733 284.982 203.647 283.875L214.548 277.566C216.461 276.459 219.563 276.459 221.476 277.566Z" fill="#696969"/>
</g>
</g>
</g>
<g clip-path="url(#clip4_233_2)">
<g clip-path="url(#clip5_233_2)">
<path d="M408.488 244.673C408.488 232.134 417.248 216.888 428.053 210.619C438.859 204.35 447.618 209.432 447.618 221.97C447.618 234.508 438.859 249.755 428.053 256.024C417.248 262.293 408.488 257.211 408.488 244.673Z" fill="#1F1F1F"/>
<path d="M465.691 232.566C465.691 245.105 456.931 260.351 446.126 266.62C440.471 269.901 435.376 270.072 431.804 267.693L413.635 257.034C410.439 254.848 408.488 250.591 408.488 244.674C408.488 232.135 417.248 216.889 428.053 210.62C433.556 207.428 438.528 207.179 442.082 209.359L460.544 220.206C463.74 222.392 465.691 226.649 465.691 232.566Z" fill="#131313"/>
<path opacity="0.2" d="M539.133 237.16L542.541 246.688C545.757 255.675 539.288 265.194 529.787 265.453L495.057 266.401C493.619 266.44 492.21 265.994 491.054 265.135C489.898 264.275 489.061 263.051 488.678 261.658C488.443 260.795 488.03 259.992 487.467 259.299C486.904 258.606 486.203 258.04 485.409 257.636C484.615 257.232 483.746 256.999 482.857 256.953C481.968 256.907 481.079 257.049 480.248 257.368C473.516 259.95 465.055 263.107 455.832 265.588C448.174 267.65 441.823 260.406 443.987 252.74C444.902 249.499 447.23 246.841 450.334 245.568C459.926 241.639 469.076 238.446 477.256 238.577C480.974 238.637 484.728 236.518 485.603 232.886C485.946 231.459 486.757 230.19 487.905 229.282C489.052 228.375 490.47 227.881 491.931 227.881H525.999C528.872 227.881 531.676 228.772 534.026 230.433C536.377 232.094 538.161 234.443 539.133 237.16Z" fill="black"/>
<path d="M426.56 255.268C426.56 242.73 435.32 227.484 446.125 221.215C456.931 214.946 465.69 220.028 465.69 232.566C465.69 245.104 456.931 260.351 446.125 266.62C435.32 272.889 426.56 267.807 426.56 255.268Z" fill="#1F1F1F"/>
<path d="M455.65 215.917C455.65 213.13 453.704 212 451.302 213.394L442.172 218.691C439.771 220.084 437.824 223.473 437.824 226.259V250.475C437.824 254.654 440.744 256.348 444.346 254.259L449.998 250.979C453.119 249.169 455.651 244.764 455.651 241.141V215.916L455.65 215.917Z" fill="#303030"/>
<path d="M457.657 215.917C457.657 213.13 455.712 212 453.311 213.394L444.179 218.691C441.779 220.084 439.833 223.473 439.833 226.259V250.475C439.833 254.654 442.752 256.348 446.354 254.259L452.006 250.979C455.127 249.169 457.658 244.764 457.658 241.141V215.916L457.657 215.917Z" fill="#484848"/>
<path d="M428.255 244.607L393.179 224.782C390.726 223.396 389.5 221.579 389.5 219.763V195.736H484.766V219.761C484.766 221.578 483.541 223.395 481.089 224.78L452.733 240.811L446.016 244.607C441.111 247.379 433.159 247.379 428.255 244.607Z" fill="#303030"/>
<path d="M481.09 200.869C485.994 198.016 485.994 193.389 481.09 190.536L446.014 170.13C441.109 167.277 433.158 167.277 428.254 170.13L393.179 190.536C388.274 193.389 388.274 198.016 393.179 200.869L428.254 221.275C433.159 224.129 441.109 224.129 446.014 221.275L481.09 200.869Z" fill="#1F1F1F"/>
<path d="M428.255 214.338L393.179 194.512C390.726 193.126 389.5 191.31 389.5 189.493V165.468H484.766V189.493C484.766 191.31 483.54 193.126 481.089 194.512L452.731 210.541L446.014 214.338C441.109 217.11 433.159 217.11 428.255 214.338Z" fill="#303030"/>
<path d="M469.559 201.87C469.559 199.084 467.613 197.954 465.212 199.348L460.671 201.982C458.27 203.375 456.324 206.763 456.324 209.549V225.022C456.324 229.201 459.243 230.895 462.845 228.805L463.908 228.189C467.028 226.378 469.56 221.974 469.56 218.352L469.559 201.87Z" fill="#484848"/>
<path d="M470.812 202.61C470.812 199.824 468.865 198.695 466.464 200.087L461.924 202.722C459.522 204.114 457.576 207.503 457.576 210.289V225.023C457.576 229.202 460.496 230.896 464.098 228.806L465.16 228.189C468.282 226.379 470.812 221.974 470.812 218.352V202.61Z" fill="#606060"/>
<path d="M481.09 170.599C485.994 167.745 485.994 163.12 481.09 160.266L446.014 139.86C441.109 137.007 433.159 137.007 428.254 139.86L393.179 160.266C388.274 163.12 388.274 167.745 393.179 170.6L428.254 191.006C433.159 193.859 441.11 193.859 446.014 191.006L481.09 170.599Z" fill="#484848"/>
<path d="M472.704 169.179C475.461 167.581 475.452 164.985 472.691 163.39C469.94 161.801 465.487 161.8 462.74 163.391C459.987 164.986 459.989 167.578 462.74 169.174C465.489 170.77 469.953 170.774 472.704 169.179Z" fill="#2D2D2D"/>
<path d="M472.795 167.513C475.552 165.915 475.548 163.324 472.787 161.729L472.649 161.649C469.899 160.059 465.451 160.061 462.706 161.653C459.953 163.246 459.95 165.834 462.701 167.43L462.838 167.51C465.588 169.106 470.045 169.107 472.795 167.513Z" fill="#585858"/>
<path d="M396.76 180.616C396.76 178.1 398.518 177.08 400.686 178.339L425.834 192.938C427.001 193.616 427.947 195.263 427.947 196.616V234.666C427.947 236.02 427 236.569 425.833 235.892L398.873 220.252C397.707 219.575 396.76 217.928 396.76 216.574V180.616Z" fill="#1F1F1F"/>
<path d="M396.045 180.226C396.045 178.87 396.992 178.322 398.158 178.999L423.838 193.909C425.006 194.586 425.952 196.233 425.952 197.587V233.511C425.952 234.864 425.005 235.414 423.838 234.736L398.158 219.837C396.992 219.16 396.045 217.513 396.045 216.159V180.226Z" fill="#262626"/>
<path d="M414.354 193.611L415.803 194.451C417.003 195.148 417.977 196.842 417.977 198.235V210.136C417.977 211.529 417.003 212.094 415.803 211.397L414.354 210.557C413.153 209.86 412.18 208.166 412.18 206.773V194.872C412.18 193.479 413.153 192.914 414.354 193.611Z" fill="#D9D9D9"/>
<path d="M405.317 188.069L406.766 188.909C407.966 189.606 408.939 191.3 408.939 192.693V204.594C408.939 205.987 407.966 206.552 406.766 205.855L405.317 205.015C404.116 204.318 403.143 202.624 403.143 201.231V189.33C403.143 187.937 404.116 187.372 405.317 188.069Z" fill="#D9D9D9"/>
</g>
</g>
</g>
</g>
<defs>
<clipPath id="clip0_233_2">
<rect width="600" height="340" fill="white"/>
</clipPath>
<clipPath id="clip1_233_2">
<rect width="1070" height="425" fill="white" transform="translate(-470 -42.7)"/>
</clipPath>
<clipPath id="clip2_233_2">
<rect width="1070" height="425" fill="white" transform="translate(-470 -42.7)"/>
</clipPath>
<clipPath id="clip3_233_2">
<rect width="1070" height="425" fill="white" transform="translate(-470 -42.7)"/>
</clipPath>
<clipPath id="clip4_233_2">
<rect width="160.5" height="140.25" fill="white" transform="translate(389.5 137.72)"/>
</clipPath>
<clipPath id="clip5_233_2">
<rect width="160.5" height="140.25" fill="white" transform="translate(389.5 137.72)"/>
</clipPath>
</defs>
</svg>
