<svg width="17" height="16" viewBox="0 0 17 16" fill="none" xmlns="http://www.w3.org/2000/svg">
<g clip-path="url(#clip0_193_1842)">
<g clip-path="url(#clip1_193_1842)">
<mask id="mask0_193_1842" style="mask-type:luminance" maskUnits="userSpaceOnUse" x="0" y="0" width="17" height="16">
<path d="M16.3291 0H0.329102V16H16.3291V0Z" fill="white"/>
</mask>
<g mask="url(#mask0_193_1842)">
<path d="M8.3291 0C3.91177 0 0.329102 3.582 0.329102 8C0.329102 11.5347 2.6211 14.5333 5.80043 15.5913C6.19977 15.6653 6.3291 15.4173 6.3291 15.2067V13.7173C4.10377 14.2013 3.64043 12.7733 3.64043 12.7733C3.27643 11.8487 2.75177 11.6027 2.75177 11.6027C2.02577 11.106 2.8071 11.1167 2.8071 11.1167C3.61043 11.1727 4.0331 11.9413 4.0331 11.9413C4.74643 13.164 5.90443 12.8107 6.3611 12.606C6.43243 12.0893 6.63977 11.736 6.8691 11.5367C5.09243 11.3333 3.22443 10.6473 3.22443 7.58267C3.22443 6.70867 3.5371 5.99533 4.04843 5.43533C3.96577 5.23333 3.69177 4.41933 4.12643 3.318C4.12643 3.318 4.79843 3.10333 6.3271 4.138C6.9651 3.96067 7.6491 3.872 8.3291 3.86867C9.0091 3.872 9.69377 3.96067 10.3331 4.138C11.8604 3.10333 12.5311 3.318 12.5311 3.318C12.9664 4.42 12.6924 5.234 12.6098 5.43533C13.1231 5.99533 13.4331 6.70933 13.4331 7.58267C13.4331 10.6553 11.5618 11.332 9.78043 11.53C10.0671 11.778 10.3291 12.2647 10.3291 13.0113V15.2067C10.3291 15.4193 10.4571 15.6693 10.8631 15.5907C14.0398 14.5313 16.3291 11.5333 16.3291 8C16.3291 3.582 12.7471 0 8.3291 0Z" fill="white"/>
</g>
</g>
</g>
<defs>
<clipPath id="clip0_193_1842">
<rect width="16" height="16" fill="white" transform="translate(0.329102)"/>
</clipPath>
<clipPath id="clip1_193_1842">
<rect width="16" height="16" fill="white" transform="translate(0.329102)"/>
</clipPath>
</defs>
</svg>
