<svg width="432" height="201" viewBox="0 0 432 201" fill="none" xmlns="http://www.w3.org/2000/svg">
<g clip-path="url(#clip0_193_1026)">
<g clip-path="url(#clip1_193_1026)">
<path d="M389.09 84.9539L83.0042 117.125C79.6288 117.479 77.1819 120.52 77.5388 123.916L83.281 178.549C83.6379 181.945 86.6635 184.41 90.0389 184.056L396.125 151.885C399.5 151.53 401.947 148.49 401.59 145.094L395.848 90.4604C395.491 87.0645 392.465 84.5991 389.09 84.9539Z" fill="#303030"/>
<path d="M389.09 84.9539L83.0042 117.125C79.6288 117.479 77.1819 120.52 77.5388 123.916L83.281 178.549C83.6379 181.945 86.6635 184.41 90.0389 184.056L396.125 151.885C399.5 151.53 401.947 148.49 401.59 145.094L395.848 90.4604C395.491 87.0645 392.465 84.5991 389.09 84.9539Z" stroke="#484848" stroke-width="0.821776"/>
<path d="M121.356 129.593L102.387 131.587C98.213 132.026 95.1869 135.786 95.6283 139.985L97.6341 159.069C98.0755 163.269 101.817 166.317 105.991 165.879L124.96 163.885C129.134 163.446 132.16 159.686 131.719 155.487L129.713 136.403C129.272 132.203 125.53 129.155 121.356 129.593Z" fill="#484848"/>
<path d="M121.356 129.593L102.387 131.587C98.213 132.026 95.1869 135.786 95.6283 139.985L97.6341 159.069C98.0755 163.269 101.817 166.317 105.991 165.879L124.96 163.885C129.134 163.446 132.16 159.686 131.719 155.487L129.713 136.403C129.272 132.203 125.53 129.155 121.356 129.593Z" stroke="#585858" stroke-width="1.01644"/>
<path d="M119.49 144.002L111.814 144.809C111.406 144.852 111.033 145.056 110.776 145.376C110.518 145.695 110.398 146.105 110.441 146.515L111.252 154.238C111.295 154.648 111.498 155.024 111.817 155.283C112.135 155.542 112.543 155.664 112.95 155.621L120.627 154.815C121.034 154.772 121.407 154.568 121.665 154.248C121.922 153.928 122.043 153.518 122 153.109L121.188 145.385C121.145 144.976 120.942 144.6 120.623 144.341C120.305 144.081 119.897 143.959 119.49 144.002Z" stroke="#A1A1A1" stroke-width="1.10602" stroke-linecap="round" stroke-linejoin="round"/>
<path d="M107.857 151.471C107.013 151.56 106.249 150.938 106.16 150.088L105.348 142.365C105.259 141.516 105.876 140.748 106.721 140.659L114.397 139.852C115.242 139.764 116.006 140.386 116.095 141.236" stroke="#A1A1A1" stroke-width="1.10602" stroke-linecap="square" stroke-linejoin="round"/>
<path d="M143.662 130.542L143.535 129.336L151.909 128.456L152.036 129.662L148.525 130.031L149.579 140.058L148.227 140.2L147.173 130.175L143.662 130.544L143.662 130.542ZM157.317 139.423C156.511 139.507 155.796 139.401 155.172 139.104C154.55 138.801 154.028 138.324 153.667 137.732C153.286 137.113 153.05 136.373 152.96 135.51C152.869 134.647 152.945 133.87 153.188 133.179C153.435 132.484 153.821 131.923 154.345 131.494C154.873 131.061 155.514 130.805 156.271 130.726C156.707 130.68 157.145 130.708 157.586 130.81C158.027 130.911 158.439 131.108 158.823 131.4C159.205 131.689 159.529 132.091 159.793 132.607C160.056 133.122 160.229 133.773 160.312 134.56L160.369 135.108L153.915 135.787L153.797 134.668L158.944 134.127C158.905 133.685 158.762 133.259 158.527 132.884C158.311 132.539 158.003 132.262 157.638 132.085C157.273 131.906 156.858 131.84 156.393 131.889C155.881 131.943 155.45 132.117 155.103 132.413C154.763 132.699 154.504 133.07 154.352 133.49C154.194 133.916 154.138 134.374 154.188 134.827L154.267 135.572C154.334 136.209 154.5 136.737 154.764 137.157C155.032 137.571 155.375 137.873 155.79 138.064C156.208 138.249 156.675 138.314 157.195 138.26C157.534 138.224 157.833 138.145 158.096 138.02C158.361 137.892 158.585 137.721 158.763 137.507C158.943 137.287 159.072 137.027 159.15 136.724L160.43 136.944C160.343 137.381 160.163 137.777 159.888 138.132C159.613 138.482 159.256 138.772 158.821 138.998C158.386 139.222 157.884 139.363 157.317 139.423ZM167.968 131.514L166.847 131.966C166.747 131.77 166.619 131.591 166.466 131.435C166.295 131.254 166.084 131.116 165.851 131.033C165.598 130.937 165.285 130.91 164.911 130.949C164.397 131.003 163.983 131.167 163.666 131.44C163.353 131.709 163.215 132.025 163.253 132.387C163.287 132.709 163.43 132.952 163.682 133.113C163.934 133.276 164.315 133.392 164.822 133.465L166.097 133.641C166.865 133.745 167.453 133.967 167.859 134.305C168.265 134.639 168.499 135.101 168.561 135.69C168.612 136.172 168.52 136.618 168.284 137.027C168.051 137.437 167.7 137.776 167.233 138.047C166.765 138.319 166.206 138.488 165.555 138.557C164.702 138.647 163.975 138.533 163.375 138.22C162.777 137.906 162.365 137.398 162.141 136.697L163.33 136.262C163.494 136.702 163.749 137.02 164.096 137.212C164.448 137.405 164.887 137.474 165.414 137.418C166.013 137.355 166.475 137.177 166.802 136.884C167.131 136.586 167.276 136.257 167.238 135.895C167.226 135.757 167.187 135.624 167.121 135.503C167.055 135.382 166.965 135.276 166.856 135.192C166.63 135.013 166.303 134.895 165.871 134.841L164.44 134.658C163.653 134.556 163.061 134.333 162.661 133.986C162.264 133.635 162.035 133.171 161.974 132.588C161.924 132.114 162.011 131.679 162.239 131.285C162.484 130.878 162.831 130.541 163.245 130.31C163.721 130.042 164.249 129.878 164.793 129.83C165.621 129.743 166.292 129.858 166.803 130.173C167.317 130.489 167.706 130.936 167.968 131.514ZM173.502 129.025L173.617 130.123L169.277 130.579L169.161 129.481L173.502 129.025ZM170.215 127.329L171.501 127.194L172.345 135.225C172.384 135.59 172.465 135.86 172.59 136.032C172.718 136.199 172.868 136.306 173.042 136.35C173.219 136.39 173.402 136.401 173.591 136.381C173.734 136.366 173.848 136.347 173.937 136.323L174.152 136.256L174.535 137.391C174.238 137.531 173.919 137.617 173.592 137.645C173.228 137.683 172.864 137.642 172.498 137.521C172.136 137.4 171.812 137.183 171.561 136.894C171.302 136.595 171.147 136.201 171.096 135.711L170.215 127.331L170.215 127.329ZM180.986 125.4L182.167 136.632L180.815 136.775L179.634 125.543L180.987 125.401L180.986 125.4ZM185.457 131.163L185.99 136.232L184.704 136.367L183.818 127.941L185.062 127.81L185.2 129.127L185.309 129.115C185.46 128.668 185.721 128.292 186.094 127.991C186.467 127.685 186.969 127.499 187.601 127.433C188.168 127.373 188.677 127.438 189.127 127.627C189.576 127.813 189.944 128.129 190.229 128.576C190.515 129.02 190.696 129.6 190.771 130.316L191.334 135.669L190.046 135.804L189.493 130.539C189.423 129.877 189.198 129.38 188.818 129.046C188.437 128.709 187.949 128.572 187.353 128.635C186.942 128.678 186.584 128.805 186.28 129.019C185.978 129.232 185.754 129.52 185.604 129.883C185.454 130.247 185.406 130.673 185.457 131.163ZM196.442 126.614L196.557 127.712L192.216 128.168L192.101 127.07L196.442 126.614ZM193.154 124.918L194.441 124.783L195.285 132.814C195.323 133.179 195.405 133.448 195.529 133.621C195.639 133.776 195.799 133.889 195.982 133.939C196.159 133.979 196.342 133.99 196.531 133.97C196.672 133.956 196.788 133.936 196.877 133.912L197.091 133.845L197.475 134.98C197.178 135.12 196.858 135.206 196.531 135.234C196.167 135.272 195.804 135.231 195.437 135.11C195.075 134.989 194.752 134.772 194.501 134.483C194.241 134.184 194.087 133.79 194.035 133.3L193.154 124.92L193.154 124.918ZM202.702 134.653C201.894 134.737 201.18 134.631 200.557 134.334C199.935 134.031 199.412 133.554 199.051 132.961C198.67 132.343 198.434 131.603 198.343 130.74C198.253 129.877 198.329 129.1 198.573 128.409C198.819 127.714 199.205 127.153 199.729 126.724C200.257 126.291 200.899 126.035 201.656 125.956C202.092 125.91 202.53 125.938 202.971 126.04C203.411 126.14 203.823 126.338 204.207 126.63C204.59 126.919 204.914 127.321 205.177 127.837C205.441 128.352 205.614 129.003 205.696 129.79L205.754 130.338L199.299 131.017L199.182 129.898L204.328 129.357C204.278 128.882 204.139 128.467 203.91 128.114C203.695 127.769 203.387 127.492 203.022 127.315C202.658 127.136 202.243 127.07 201.778 127.119C201.265 127.173 200.835 127.347 200.488 127.642C200.147 127.929 199.888 128.3 199.735 128.72C199.578 129.147 199.523 129.604 199.573 130.057L199.651 130.802C199.718 131.439 199.884 131.967 200.148 132.387C200.416 132.801 200.758 133.103 201.175 133.294C201.591 133.479 202.06 133.544 202.579 133.49C202.917 133.454 203.218 133.375 203.48 133.25C203.737 133.129 203.965 132.954 204.149 132.737C204.328 132.517 204.457 132.257 204.535 131.953L205.815 132.174C205.73 132.607 205.544 133.015 205.272 133.362C204.997 133.712 204.641 134.001 204.206 134.228C203.735 134.461 203.225 134.605 202.702 134.653ZM208.108 133.906L207.223 125.481L208.465 125.351L208.599 126.624L208.687 126.614C208.799 126.176 209.053 125.788 209.409 125.512C209.785 125.209 210.241 125.024 210.72 124.981C210.815 124.971 210.932 124.961 211.075 124.949C211.217 124.937 211.325 124.932 211.398 124.932L211.537 126.248C211.435 126.238 211.334 126.232 211.232 126.23C211.069 126.22 210.905 126.225 210.742 126.242C210.335 126.285 209.98 126.409 209.679 126.615C209.382 126.809 209.146 127.083 208.996 127.405C208.847 127.728 208.791 128.086 208.834 128.44L209.395 133.771L208.108 133.906ZM217.189 124.434L217.304 125.531L212.789 126.006L212.674 124.908L217.189 124.434ZM214.912 133.192L213.904 123.604C213.853 123.121 213.924 122.706 214.116 122.361C214.307 122.016 214.575 121.743 214.917 121.545C215.259 121.346 215.639 121.223 216.031 121.183C216.347 121.15 216.609 121.149 216.814 121.179C217.019 121.21 217.173 121.242 217.276 121.275L217.023 122.433C216.93 122.413 216.836 122.395 216.741 122.379C216.591 122.358 216.439 122.357 216.289 122.376C215.864 122.421 215.569 122.561 215.401 122.797C215.239 123.032 215.18 123.359 215.224 123.775L216.199 133.057L214.912 133.192ZM222.123 132.633C221.592 132.688 221.101 132.64 220.646 132.483C220.208 132.335 219.819 132.067 219.524 131.709C219.228 131.347 219.052 130.893 218.994 130.344C218.944 129.861 218.997 129.461 219.154 129.141C219.311 128.818 219.539 128.554 219.837 128.348C220.136 128.143 220.471 127.978 220.844 127.854C221.219 127.726 221.599 127.615 221.983 127.523C222.485 127.404 222.892 127.311 223.205 127.246C223.521 127.175 223.747 127.091 223.884 126.99C224.023 126.891 224.083 126.738 224.061 126.529L224.056 126.485C223.999 125.944 223.808 125.538 223.483 125.27C223.16 125.001 222.703 124.897 222.111 124.959C221.495 125.024 221.028 125.209 220.708 125.517C220.388 125.824 220.172 126.139 220.063 126.461L218.795 126.15C218.96 125.616 219.208 125.186 219.543 124.863C219.867 124.544 220.254 124.295 220.679 124.134C221.102 123.971 221.524 123.866 221.947 123.822C222.215 123.794 222.528 123.794 222.884 123.824C223.244 123.85 223.596 123.943 223.945 124.106C224.296 124.27 224.602 124.539 224.861 124.913C225.121 125.29 225.287 125.812 225.357 126.481L225.941 132.033L224.653 132.168L224.533 131.026L224.469 131.033C224.4 131.225 224.276 131.437 224.094 131.666C223.912 131.897 223.66 132.102 223.337 132.284C223.015 132.465 222.61 132.581 222.123 132.633ZM222.197 131.45C222.706 131.397 223.124 131.25 223.452 131.013C223.764 130.797 224.012 130.498 224.166 130.15C224.315 129.813 224.37 129.469 224.333 129.117L224.208 127.935C224.162 128.007 224.047 128.079 223.868 128.153C223.666 128.232 223.46 128.3 223.25 128.357C222.847 128.464 222.442 128.562 222.035 128.651C221.721 128.724 221.414 128.829 221.12 128.963C220.863 129.073 220.638 129.247 220.468 129.47C220.313 129.678 220.253 129.947 220.288 130.277C220.335 130.726 220.536 131.049 220.891 131.244C221.249 131.436 221.684 131.504 222.197 131.45ZM231.709 131.604C230.925 131.686 230.228 131.57 229.622 131.258C229.01 130.939 228.5 130.451 228.152 129.853C227.777 129.231 227.546 128.5 227.458 127.658C227.368 126.803 227.445 126.031 227.689 125.343C227.912 124.686 228.313 124.104 228.846 123.663C229.374 123.231 230.016 122.975 230.773 122.895C231.361 122.834 231.903 122.888 232.398 123.057C232.894 123.227 233.313 123.493 233.657 123.856C234 124.22 234.236 124.661 234.363 125.18L233.077 125.315C232.939 124.941 232.685 124.624 232.315 124.363C231.95 124.099 231.484 123.996 230.916 124.056C230.445 124.096 229.998 124.282 229.638 124.59C229.291 124.888 229.037 125.287 228.876 125.784C228.719 126.277 228.674 126.843 228.741 127.478C228.809 128.129 228.97 128.686 229.224 129.148C229.482 129.608 229.812 129.953 230.214 130.18C230.621 130.408 231.078 130.494 231.587 130.441C231.921 130.406 232.219 130.315 232.479 130.169C232.739 130.027 232.961 129.825 233.127 129.58C233.294 129.335 233.401 129.054 233.439 128.759L234.725 128.624C234.709 129.122 234.569 129.607 234.32 130.037C234.071 130.466 233.72 130.827 233.298 131.087C232.857 131.367 232.327 131.539 231.709 131.604ZM240.394 130.691C239.587 130.776 238.873 130.669 238.25 130.372C237.628 130.069 237.105 129.593 236.744 129C236.363 128.382 236.128 127.641 236.037 126.778C235.946 125.916 236.022 125.138 236.266 124.448C236.512 123.752 236.898 123.191 237.422 122.762C237.95 122.33 238.593 122.074 239.348 121.994C239.785 121.948 240.222 121.976 240.663 122.078C241.104 122.179 241.516 122.376 241.9 122.669C242.282 122.957 242.606 123.36 242.87 123.875C243.134 124.391 243.307 125.042 243.389 125.828L243.447 126.377L236.992 127.055L236.874 125.936L242.021 125.395C241.971 124.92 241.832 124.505 241.603 124.152C241.388 123.807 241.08 123.53 240.715 123.353C240.35 123.174 239.936 123.108 239.471 123.157C238.958 123.211 238.528 123.386 238.181 123.681C237.84 123.967 237.581 124.339 237.428 124.758C237.271 125.185 237.216 125.643 237.266 126.095L237.344 126.841C237.411 127.477 237.576 128.005 237.841 128.425C238.109 128.84 238.451 129.142 238.868 129.332C239.284 129.517 239.752 129.583 240.272 129.528C240.61 129.493 240.911 129.413 241.173 129.288C241.43 129.167 241.658 128.992 241.842 128.775C242.02 128.556 242.149 128.296 242.227 127.992L243.508 128.212C243.422 128.649 243.241 129.045 242.965 129.4C242.676 129.763 242.312 130.058 241.899 130.266C241.428 130.5 240.918 130.644 240.394 130.691ZM250.098 129.493L249.994 128.506L253.252 124.059C253.635 123.539 253.948 123.088 254.191 122.707C254.433 122.324 254.606 121.969 254.708 121.644C254.812 121.318 254.847 120.974 254.81 120.635C254.769 120.24 254.638 119.909 254.419 119.638C254.202 119.368 253.913 119.164 253.586 119.05C253.228 118.924 252.847 118.883 252.471 118.928C252.079 118.961 251.701 119.094 251.375 119.316C251.078 119.525 250.858 119.797 250.717 120.133C250.577 120.497 250.529 120.891 250.579 121.279L249.292 121.414C249.223 120.757 249.313 120.163 249.563 119.634C249.812 119.105 250.182 118.674 250.673 118.341C251.187 118.001 251.776 117.794 252.389 117.739C253.044 117.67 253.639 117.749 254.172 117.973C254.688 118.184 255.14 118.529 255.479 118.974C255.816 119.414 256.015 119.924 256.076 120.502C256.119 120.915 256.087 121.327 255.979 121.739C255.875 122.145 255.666 122.608 255.354 123.129C255.045 123.645 254.606 124.284 254.039 125.041L251.815 128.004L251.824 128.092L257.015 127.546L257.141 128.753L250.098 129.493Z" fill="white"/>
<path d="M197.224 146.206L148.972 151.278C146.852 151.501 145.315 153.41 145.54 155.543C145.764 157.675 147.664 159.224 149.784 159.001L198.036 153.929C200.156 153.707 201.693 151.797 201.469 149.664C201.244 147.532 199.344 145.984 197.224 146.206Z" fill="#484848"/>
<path d="M377.723 111.394L336.868 115.688C334.704 115.915 333.135 117.865 333.364 120.042L334.321 129.15C334.55 131.327 336.489 132.907 338.653 132.68L379.509 128.386C381.673 128.158 383.242 126.209 383.013 124.032L382.056 114.924C381.827 112.747 379.887 111.166 377.723 111.394Z" fill="#3E3E3E"/>
<path d="M377.723 111.394L336.868 115.688C334.704 115.915 333.135 117.865 333.364 120.042L334.321 129.15C334.55 131.327 336.489 132.907 338.653 132.68L379.509 128.386C381.673 128.158 383.242 126.209 383.013 124.032L382.056 114.924C381.827 112.747 379.887 111.166 377.723 111.394Z" stroke="#696969" stroke-width="0.945651"/>
<path d="M340.17 127.278L339.449 120.419L341.752 120.177C342.287 120.12 342.735 120.171 343.094 120.33C343.457 120.486 343.736 120.72 343.935 121.03C344.134 121.342 344.255 121.699 344.297 122.103C344.34 122.507 344.296 122.883 344.166 123.23C344.039 123.578 343.817 123.867 343.497 124.099C343.179 124.329 342.754 124.472 342.224 124.528L340.572 124.701L340.495 123.965L342.119 123.795C342.485 123.756 342.773 123.661 342.982 123.511C343.19 123.361 343.333 123.172 343.41 122.944C343.49 122.701 343.516 122.443 343.485 122.189C343.456 121.913 343.38 121.673 343.255 121.468C343.13 121.259 342.94 121.099 342.715 121.01C342.478 120.908 342.174 120.877 341.803 120.916L340.352 121.069L340.996 127.189L340.17 127.276L340.17 127.278ZM346.119 126.652L345.399 119.793L347.701 119.551C348.234 119.495 348.681 119.541 349.042 119.688C349.403 119.833 349.682 120.056 349.879 120.355C350.077 120.655 350.197 121.007 350.24 121.411C350.282 121.814 350.238 122.182 350.106 122.511C349.97 122.848 349.733 123.133 349.428 123.328C349.106 123.54 348.682 123.674 348.154 123.729L346.291 123.925L346.212 123.175L348.049 122.982C348.413 122.943 348.7 122.859 348.91 122.728C349.109 122.614 349.263 122.436 349.348 122.222C349.429 122.012 349.456 121.771 349.427 121.496C349.398 121.221 349.321 120.987 349.198 120.793C349.071 120.595 348.881 120.445 348.659 120.369C348.423 120.277 348.121 120.252 347.753 120.291L346.302 120.443L346.945 126.563L346.119 126.65L346.119 126.652ZM349.004 123.234L351.005 126.139L350.047 126.24L348.072 123.332L349.004 123.234ZM352.219 119.078L352.939 125.936L352.115 126.022L351.394 119.163L352.219 119.076L352.219 119.078ZM354.153 118.874L356.784 124.434L356.863 124.426L358.281 118.44L359.146 118.349L357.363 125.471L356.511 125.56L353.288 118.965L354.153 118.874ZM360.623 125.128L359.756 125.219L361.539 118.098L362.391 118.008L365.614 124.603L364.749 124.694L362.105 119.135L362.052 119.141L360.623 125.128ZM360.66 122.416L364.147 122.049L364.225 122.785L360.737 123.152L360.66 122.416ZM364.864 118.494L364.786 117.756L369.899 117.218L369.976 117.955L367.832 118.181L368.475 124.301L367.65 124.387L367.007 118.27L364.864 118.494ZM371.893 123.943L371.172 117.086L375.285 116.653L375.363 117.39L372.075 117.736L372.319 120.053L375.394 119.729L375.471 120.466L372.396 120.79L372.641 123.12L375.983 122.769L376.06 123.506L371.893 123.943Z" fill="#D8D8D8"/>
</g>
</g>
<g clip-path="url(#clip2_193_1026)">
<g clip-path="url(#clip3_193_1026)">
<path d="M357.026 32.6679L49.2968 27.2965C45.9033 27.2373 43.1047 29.921 43.0458 33.2908L42.0995 87.5038C42.0407 90.8736 44.744 93.6534 48.1375 93.7126L355.867 99.084C359.26 99.1433 362.059 96.4595 362.118 93.0898L363.064 38.8767C363.123 35.5069 360.42 32.7272 357.026 32.6679Z" fill="#303030"/>
<path d="M357.026 32.6679L49.2968 27.2965C45.9033 27.2373 43.1047 29.921 43.0458 33.2908L42.0995 87.5038C42.0407 90.8736 44.744 93.6534 48.1375 93.7126L355.867 99.084C359.26 99.1433 362.059 96.4595 362.118 93.0898L363.064 38.8767C363.123 35.5069 360.42 32.7272 357.026 32.6679Z" stroke="#484848" stroke-width="0.816439"/>
<path d="M85.8455 44.1331L66.7753 43.8003C62.5787 43.727 59.1178 47.0459 59.045 51.2133L58.7145 70.1508C58.6418 74.3181 61.9848 77.7558 66.1813 77.8291L85.2516 78.162C89.4481 78.2352 92.9091 74.9163 92.9818 70.7489L93.3124 51.8114C93.3851 47.6441 90.0421 44.2064 85.8455 44.1331Z" fill="#303B32"/>
<path d="M85.8455 44.1331L66.7753 43.8003C62.5787 43.727 59.1178 47.0459 59.045 51.2133L58.7145 70.1508C58.6418 74.3181 61.9848 77.7558 66.1813 77.8291L85.2516 78.162C89.4481 78.2352 92.9091 74.9163 92.9818 70.7489L93.3124 51.8114C93.3851 47.6441 90.0421 44.2064 85.8455 44.1331Z" stroke="#2E5235" stroke-width="1.00983"/>
<path d="M82.2397 58.0238L74.522 57.8891C74.1127 57.8819 73.7173 58.0366 73.4228 58.319C73.1283 58.6014 72.9589 58.9884 72.9518 59.3949L72.818 67.0588C72.8109 67.4653 72.9667 67.858 73.2512 68.1505C73.5356 68.443 73.9254 68.6114 74.3348 68.6185L82.0524 68.7532C82.4617 68.7604 82.8572 68.6057 83.1516 68.3233C83.4461 68.0409 83.6156 67.6539 83.6227 67.2474L83.7564 59.5835C83.7635 59.177 83.6077 58.7843 83.3233 58.4918C83.0388 58.1993 82.649 58.0309 82.2397 58.0238Z" stroke="#A2CEAD" stroke-width="1.09884" stroke-linecap="round" stroke-linejoin="round"/>
<path d="M69.7869 63.9394C68.938 63.9246 68.2554 63.2227 68.2701 62.3797L68.4039 54.7158C68.4186 53.8728 69.1253 53.1951 69.9742 53.21L77.6918 53.3447C78.5407 53.3595 79.2233 54.0614 79.2086 54.9044" stroke="#A2CEAD" stroke-width="1.09884" stroke-linecap="square" stroke-linejoin="round"/>
<path d="M107.874 47.5951L107.895 46.3984L116.314 46.5454L116.293 47.742L112.763 47.6804L112.589 57.6314L111.231 57.6077L111.405 47.6578L107.875 47.5962L107.874 47.5951ZM120.348 57.9409C119.537 57.9268 118.841 57.7361 118.258 57.37C117.678 56.9981 117.217 56.4686 116.93 55.8443C116.627 55.1928 116.483 54.439 116.498 53.5828C116.513 52.7267 116.684 51.974 117.009 51.327C117.338 50.6756 117.79 50.172 118.362 49.8151C118.939 49.455 119.607 49.2816 120.368 49.2949C120.807 49.3026 121.237 49.3824 121.663 49.5354C122.088 49.6874 122.472 49.9307 122.818 50.2631C123.163 50.5922 123.435 51.0251 123.633 51.562C123.834 52.0999 123.926 52.7575 123.912 53.5381L123.903 54.0823L117.413 53.969L117.433 52.8588L122.607 52.9491C122.622 52.5115 122.532 52.0765 122.343 51.6807C122.171 51.3167 121.9 51.0082 121.559 50.7909C121.219 50.5714 120.815 50.457 120.348 50.4489C119.832 50.4398 119.384 50.5591 119.004 50.8065C118.631 51.046 118.328 51.3788 118.126 51.7714C117.918 52.1703 117.807 52.612 117.802 53.0613L117.789 53.8014C117.778 54.4331 117.879 54.9704 118.089 55.4133C118.304 55.8518 118.607 56.1889 118.998 56.4257C119.389 56.6571 119.846 56.7778 120.368 56.787C120.708 56.7929 121.016 56.7512 121.291 56.6607C121.571 56.567 121.814 56.4267 122.018 56.2386C122.222 56.045 122.381 55.8058 122.496 55.5165L123.74 55.8875C123.6 56.3057 123.373 56.6719 123.057 56.9861C122.741 57.296 122.352 57.5367 121.893 57.7061C121.433 57.8734 120.918 57.9509 120.348 57.9409ZM131.882 51.477L130.714 51.7841C130.639 51.5808 130.534 51.3899 130.401 51.2179C130.254 51.0202 130.061 50.8599 129.839 50.7503C129.599 50.6257 129.291 50.5612 128.916 50.5546C128.4 50.5456 127.969 50.6564 127.621 50.8857C127.277 51.1119 127.103 51.4046 127.096 51.7637C127.091 52.0834 127.203 52.3383 127.434 52.5274C127.664 52.7165 128.027 52.8773 128.521 53.0086L129.766 53.3359C130.516 53.5296 131.072 53.8175 131.434 54.1973C131.797 54.5738 131.973 55.0544 131.963 55.639C131.954 56.1175 131.808 56.5431 131.524 56.916C131.244 57.2889 130.855 57.5789 130.357 57.7882C129.86 57.9985 129.284 58.0969 128.631 58.0855C127.771 58.0705 127.065 57.872 126.508 57.4932C125.952 57.1133 125.605 56.5663 125.467 55.852L126.7 55.569C126.809 56.02 127.025 56.3621 127.346 56.5923C127.671 56.8235 128.099 56.9438 128.628 56.953C129.231 56.9636 129.712 56.8449 130.071 56.5971C130.434 56.345 130.618 56.0405 130.624 55.6803C130.63 55.5442 130.607 55.4086 130.556 55.282C130.505 55.1555 130.429 55.0409 130.331 54.9457C130.129 54.7429 129.817 54.5885 129.396 54.4837L127.998 54.1318C127.229 53.9377 126.669 53.6465 126.314 53.2592C125.962 52.8675 125.791 52.3848 125.801 51.8068C125.809 51.336 125.95 50.9201 126.223 50.5624C126.516 50.1923 126.901 49.9045 127.34 49.7276C127.846 49.5226 128.389 49.4261 128.934 49.4444C129.768 49.459 130.42 49.6511 130.887 50.0228C131.36 50.3936 131.692 50.879 131.882 51.477ZM137.677 49.7054L137.658 50.7937L133.295 50.7176L133.314 49.6293L137.677 49.7054ZM134.62 47.6479L135.915 47.6705L135.775 55.6409C135.769 56.0022 135.817 56.2769 135.92 56.4594C136.027 56.6387 136.163 56.7615 136.33 56.8257C136.501 56.8868 136.682 56.9195 136.871 56.9228C137.015 56.9253 137.131 56.9197 137.222 56.907L137.443 56.8671L137.686 58.0256C137.374 58.1271 137.046 58.1729 136.718 58.161C136.347 58.1534 135.982 58.0671 135.648 57.9079C135.303 57.7453 135.008 57.494 134.795 57.1801C134.573 56.8564 134.466 56.4515 134.475 55.9654L134.62 47.6479ZM145.548 47.0556L145.353 58.2033L143.994 58.1795L144.188 47.0319L145.548 47.0556ZM149.284 53.2407L149.197 58.2703L147.903 58.2478L148.049 49.8865L149.299 49.9083L149.276 51.2144L149.386 51.2164C149.591 50.7961 149.895 50.4597 150.302 50.2095C150.709 49.9548 151.23 49.8336 151.866 49.8447C152.436 49.8546 152.933 49.9794 153.356 50.219C153.78 50.4553 154.107 50.8092 154.336 51.2809C154.566 51.7503 154.673 52.3403 154.661 53.0509L154.568 58.3641L153.275 58.3415L153.366 53.1159C153.378 52.459 153.215 51.9447 152.878 51.5719C152.541 51.1959 152.072 51.0026 151.473 50.9922C151.061 50.985 150.689 51.0672 150.362 51.2389C150.037 51.4117 149.778 51.6668 149.586 52.004C149.393 52.3423 149.293 52.7546 149.284 53.2407ZM160.739 50.108L160.72 51.1963L156.358 51.1201L156.377 50.0319L160.739 50.108ZM157.683 48.0505L158.977 48.0731L158.838 56.0435C158.832 56.4048 158.88 56.6794 158.983 56.8619C159.073 57.0275 159.218 57.157 159.393 57.2283C159.563 57.2893 159.743 57.322 159.934 57.3254C160.076 57.3278 160.193 57.3222 160.285 57.3096L160.505 57.2696L160.749 58.4282C160.437 58.5296 160.109 58.5755 159.781 58.5635C159.41 58.556 159.045 58.4697 158.71 58.3105C158.365 58.1483 158.071 57.8969 157.857 57.5826C157.636 57.259 157.529 56.8541 157.538 56.368L157.683 48.0505ZM165.976 58.7374C165.165 58.7232 164.468 58.5325 163.886 58.1664C163.306 57.7949 162.845 57.2652 162.559 56.6407C162.256 55.9893 162.111 55.2354 162.126 54.3793C162.141 53.5231 162.312 52.7704 162.638 52.1234C162.967 51.472 163.418 50.9685 163.991 50.6116C164.567 50.2515 165.235 50.0781 165.996 50.0913C166.434 50.099 166.866 50.1788 167.291 50.3319C167.716 50.4839 168.101 50.7271 168.446 51.0595C168.791 51.3886 169.064 51.8216 169.262 52.3584C169.461 52.8963 169.554 53.554 169.541 54.3346L169.531 54.8787L163.04 54.7654L163.06 53.6552L168.235 53.7456C168.243 53.2737 168.155 52.8516 167.972 52.4772C167.8 52.113 167.527 51.8045 167.186 51.5873C166.847 51.3678 166.443 51.2535 165.976 51.2453C165.46 51.2363 165.012 51.3555 164.632 51.603C164.258 51.8419 163.955 52.1748 163.754 52.5678C163.546 52.9668 163.435 53.4086 163.43 53.8577L163.417 54.5979C163.406 55.2296 163.506 55.7669 163.718 56.2097C163.933 56.6483 164.236 56.9854 164.626 57.2222C165.017 57.4535 165.474 57.5743 165.997 57.5834C166.336 57.5893 166.645 57.5476 166.92 57.4572C167.199 57.3635 167.441 57.2231 167.645 57.035C167.85 56.8415 168.01 56.6022 168.124 56.3129L169.368 56.684C169.229 57.1021 169.002 57.4683 168.685 57.7826C168.369 58.0925 167.981 58.3332 167.521 58.5026C167.025 58.6746 166.502 58.7542 165.976 58.7374ZM171.434 58.6574L171.58 50.2972L172.829 50.319L172.807 51.5825L172.895 51.584C173.055 51.1728 173.339 50.8416 173.745 50.5913C174.155 50.3399 174.63 50.2138 175.111 50.2285C175.207 50.2302 175.325 50.2345 175.467 50.2402C175.61 50.246 175.718 50.2534 175.791 50.2623L175.768 51.5685C175.669 51.5463 175.568 51.5281 175.467 51.5139C175.306 51.485 175.144 51.4693 174.98 51.4671C174.571 51.4599 174.204 51.539 173.88 51.7041C173.562 51.8582 173.294 52.0979 173.106 52.3959C172.919 52.6939 172.819 53.0383 172.819 53.3897L172.727 58.6811L171.434 58.6574ZM181.599 50.4721L181.58 51.5604L177.041 51.4812L177.06 50.3929L181.599 50.4721ZM178.274 58.7779L178.44 49.2638C178.448 48.7842 178.569 48.3866 178.8 48.0708C179.033 47.7562 179.332 47.5216 179.696 47.368C180.059 47.2152 180.451 47.1406 180.846 47.1494C181.163 47.1549 181.423 47.1846 181.623 47.2396C181.823 47.2934 181.972 47.3431 182.07 47.3876L181.677 48.4923C181.587 48.4612 181.496 48.4322 181.405 48.4054C181.259 48.3662 181.108 48.347 180.956 48.3483C180.528 48.3408 180.218 48.4427 180.024 48.654C179.834 48.8643 179.735 49.1768 179.728 49.5907L179.567 58.8005L178.274 58.7779ZM185.499 59.1C184.966 59.0907 184.483 58.9815 184.052 58.7747C183.635 58.5764 183.281 58.2669 183.031 57.8807C182.782 57.4909 182.662 57.0245 182.671 56.4803C182.68 56.0008 182.782 55.6149 182.977 55.3204C183.172 55.0226 183.431 54.7917 183.751 54.6264C184.072 54.4612 184.425 54.3403 184.81 54.2638C185.199 54.183 185.59 54.1208 185.981 54.0761C186.494 54.0205 186.91 53.9785 187.228 53.9523C187.551 53.9207 187.786 53.8656 187.933 53.7839C188.084 53.7033 188.162 53.5601 188.165 53.3531L188.166 53.3093C188.175 52.7729 188.035 52.3521 187.744 52.0502C187.457 51.7473 187.016 51.5907 186.419 51.5802C185.802 51.5695 185.316 51.6946 184.96 51.9578C184.605 52.2199 184.353 52.5024 184.206 52.8043L182.985 52.3482C183.213 51.843 183.512 51.4528 183.883 51.1768C184.244 50.9026 184.658 50.7059 185.099 50.5989C185.523 50.4921 185.959 50.4408 186.396 50.4463C186.666 50.451 186.977 50.4893 187.326 50.5611C187.679 50.6297 188.019 50.7638 188.344 50.9655C188.673 51.1684 188.944 51.4688 189.156 51.8668C189.369 52.2669 189.469 52.7987 189.457 53.4622L189.361 58.9714L188.068 58.9488L188.087 57.8168L188.022 57.8156C187.931 57.9948 187.781 58.1871 187.573 58.3893C187.365 58.5938 187.089 58.7642 186.747 58.9039C186.405 59.0425 185.989 59.1086 185.499 59.1ZM185.716 57.9495C186.228 57.9585 186.662 57.8653 187.016 57.6721C187.352 57.4983 187.634 57.2357 187.83 56.9131C188.017 56.601 188.114 56.2709 188.12 55.9216L188.141 54.7458C188.085 54.8105 187.963 54.8686 187.776 54.9201C187.566 54.9729 187.353 55.0145 187.138 55.0448C186.725 55.1006 186.311 55.1478 185.897 55.1863C185.56 55.2242 185.244 55.2888 184.95 55.3822C184.681 55.4588 184.437 55.6028 184.24 55.8002C184.062 55.9855 183.97 56.2412 183.965 56.5686C183.957 57.0142 184.116 57.3543 184.445 57.5889C184.778 57.8203 185.201 57.9405 185.716 57.9495ZM195.139 59.2464C194.35 59.2326 193.674 59.0347 193.111 58.6557C192.542 58.2697 192.095 57.7314 191.822 57.1033C191.526 56.4476 191.385 55.7037 191.4 54.8684C191.415 54.0199 191.586 53.2726 191.911 52.6289C192.213 52.0118 192.681 51.4902 193.264 51.1226C193.841 50.7625 194.509 50.589 195.268 50.6023C195.86 50.6126 196.392 50.7314 196.864 50.9565C197.335 51.1827 197.719 51.4938 198.015 51.8911C198.311 52.2883 198.492 52.7492 198.556 53.2727L197.262 53.2502C197.17 52.8674 196.956 52.5264 196.622 52.226C196.291 51.9234 195.84 51.7666 195.27 51.7566C194.766 51.7478 194.322 51.8715 193.937 52.1254C193.557 52.3762 193.256 52.7356 193.036 53.2038C192.819 53.6687 192.705 54.2165 192.694 54.8471C192.683 55.4931 192.775 56.0576 192.972 56.5407C193.172 57.0228 193.458 57.4002 193.829 57.6717C194.205 57.9433 194.648 58.0835 195.16 58.0925C195.474 58.1019 195.787 58.0477 196.079 57.9333C196.353 57.8253 196.598 57.6544 196.794 57.4346C196.989 57.2147 197.129 56.9522 197.203 56.6683L198.496 56.6908C198.419 57.1762 198.222 57.6349 197.922 58.0259C197.623 58.4169 197.23 58.7279 196.779 58.9312C196.308 59.1529 195.761 59.2573 195.139 59.2464ZM203.872 59.3988C203.06 59.3847 202.363 59.194 201.782 58.8279C201.201 58.4561 200.74 57.9265 200.454 57.3022C200.151 56.6507 200.006 55.8969 200.021 55.0407C200.036 54.1846 200.207 53.4319 200.533 52.7849C200.862 52.1335 201.313 51.6299 201.886 51.2731C202.462 50.9129 203.131 50.7395 203.891 50.7528C204.329 50.7604 204.761 50.8403 205.186 50.9933C205.611 51.1453 205.997 51.3886 206.341 51.721C206.686 52.0501 206.959 52.4831 207.158 53.0199C207.356 53.5578 207.449 54.2154 207.436 54.996L207.426 55.5402L200.937 55.4269L200.956 54.3167L206.13 54.407C206.146 53.9694 206.055 53.5344 205.867 53.1386C205.695 52.7744 205.423 52.4659 205.082 52.2488C204.742 52.0293 204.339 51.9149 203.871 51.9068C203.355 51.8978 202.907 52.017 202.527 52.2644C202.154 52.5037 201.851 52.8365 201.649 53.2293C201.441 53.6283 201.33 54.07 201.325 54.5192L201.312 55.2593C201.301 55.891 201.401 56.4283 201.613 56.8712C201.828 57.3097 202.131 57.6468 202.522 57.8836C202.912 58.115 203.369 58.2358 203.892 58.2449C204.231 58.2508 204.54 58.2091 204.815 58.1186C205.094 58.0249 205.336 57.8846 205.54 57.6965C205.745 57.5029 205.905 57.2637 206.019 56.9744L207.263 57.3455C207.124 57.7636 206.897 58.1298 206.58 58.444C206.264 58.7539 205.876 58.9947 205.416 59.1641C204.92 59.3361 204.397 59.4157 203.872 59.3988ZM217.789 48.3166L217.595 59.4642L216.235 59.4405L216.405 49.7074L216.339 49.7062L213.566 51.4649L213.59 50.0942L216.43 48.2929L217.789 48.3166Z" fill="white"/>
<path d="M188.08 69.9008L110.779 68.5515C108.561 68.5128 106.733 70.2666 106.694 72.4688C106.656 74.671 108.422 76.4876 110.64 76.5263L187.941 77.8756C190.158 77.9143 191.987 76.1605 192.026 73.9583C192.064 71.7561 190.298 69.9395 188.08 69.9008Z" fill="#484848"/>
<path d="M342.525 57.1996L305.861 56.5597C303.686 56.5217 301.891 58.2423 301.854 60.4028L301.696 69.4407C301.658 71.6012 303.391 73.3834 305.567 73.4213L342.231 74.0613C344.407 74.0993 346.201 72.3787 346.239 70.2182L346.396 61.1803C346.434 59.0198 344.701 57.2376 342.525 57.1996Z" fill="#2E5235" fill-opacity="0.3"/>
<path d="M342.525 57.1996L305.861 56.5597C303.686 56.5217 301.891 58.2423 301.854 60.4028L301.696 69.4407C301.658 71.6012 303.391 73.3834 305.567 73.4213L342.231 74.0613C344.407 74.0993 346.201 72.3787 346.239 70.2182L346.396 61.1803C346.434 59.0198 344.701 57.2376 342.525 57.1996Z" stroke="#3A523E" stroke-width="0.939509"/>
<path d="M307.73 68.3117L307.849 61.5062L310.164 61.5466C310.702 61.556 311.139 61.66 311.478 61.8587C311.817 62.0551 312.068 62.318 312.227 62.646C312.387 62.9752 312.462 63.3401 312.455 63.7408C312.448 64.1415 312.36 64.5047 312.189 64.8291C312.02 65.1547 311.764 65.412 311.419 65.6009C311.074 65.7877 310.636 65.8764 310.102 65.8671L308.443 65.8381L308.456 65.1068L310.088 65.1353C310.457 65.1417 310.753 65.0833 310.978 64.9613C311.204 64.8393 311.368 64.6713 311.472 64.4585C311.578 64.2424 311.635 63.9992 311.639 63.7266C311.648 63.4745 311.6 63.2236 311.498 62.9925C311.399 62.7736 311.231 62.5931 311.018 62.4793C310.795 62.3516 310.498 62.284 310.125 62.2775L308.666 62.252L308.56 68.3262L307.73 68.3117ZM318.327 61.6891L319.156 61.7036L319.078 66.2099C319.07 66.6752 318.952 67.0883 318.725 67.4501C318.496 67.8131 318.17 68.1055 317.783 68.2945C317.38 68.4955 316.91 68.5913 316.373 68.582C315.835 68.5726 315.368 68.4604 314.973 68.2454C314.592 68.0422 314.275 67.7388 314.057 67.3686C313.842 66.9869 313.736 66.554 313.751 66.117L313.83 61.6106L314.66 61.6251L314.583 66.0647C314.577 66.3964 314.645 66.6944 314.788 66.9553C314.93 67.2152 315.137 67.4214 315.406 67.575C315.678 67.7254 316.005 67.8045 316.386 67.8112C316.768 67.8179 317.097 67.7502 317.374 67.6094C317.651 67.4653 317.864 67.2664 318.013 67.0116C318.165 66.7558 318.244 66.4604 318.25 66.1287L318.327 61.6891ZM320.695 68.538L320.813 61.7325L323.209 61.7743C323.687 61.7826 324.079 61.8716 324.387 62.0413C324.694 62.2087 324.92 62.4306 325.068 62.7081C325.214 62.9833 325.285 63.2868 325.279 63.6186C325.274 63.9109 325.218 64.1519 325.11 64.3406C325.011 64.5216 324.868 64.6748 324.693 64.7857C324.524 64.8934 324.339 64.973 324.144 65.0214L324.143 65.0871C324.352 65.105 324.561 65.182 324.771 65.3182C324.98 65.4554 325.154 65.649 325.293 65.899C325.431 66.15 325.498 66.4545 325.491 66.8136C325.485 67.1541 325.402 67.4604 325.241 67.7292C325.08 68.0002 324.829 68.2116 324.49 68.3644C324.15 68.5184 323.711 68.5907 323.171 68.5813L320.695 68.538ZM321.538 67.8212L323.184 67.8499C323.726 67.8594 324.113 67.7621 324.343 67.558C324.455 67.4649 324.545 67.3489 324.606 67.218C324.668 67.0871 324.701 66.9444 324.702 66.7998C324.706 66.5699 324.65 66.3554 324.536 66.1584C324.417 65.9564 324.246 65.7904 324.039 65.6789C323.802 65.5498 323.536 65.4829 323.266 65.4847L321.579 65.4552L321.538 67.8212ZM321.591 64.7381L323.131 64.765C323.381 64.7693 323.607 64.724 323.809 64.63C324.006 64.5426 324.175 64.4031 324.298 64.2268C324.424 64.0439 324.491 63.8274 324.49 63.6059C324.495 63.4643 324.471 63.3232 324.419 63.1912C324.368 63.0592 324.289 62.9391 324.189 62.8384C323.983 62.6245 323.652 62.5136 323.196 62.5057L321.631 62.4783L321.591 64.7381ZM326.824 68.645L326.942 61.8395L327.771 61.8539L327.665 67.9281L330.852 67.9837L330.839 68.7151L326.824 68.645ZM333.072 61.9465L332.954 68.752L332.123 68.7375L332.242 61.932L333.072 61.9465ZM340.213 64.199L339.383 64.1846C339.305 63.7481 339.062 63.3581 338.702 63.095C338.531 62.9673 338.339 62.8695 338.135 62.8058C337.923 62.7396 337.703 62.7044 337.48 62.7013C337.066 62.6941 336.688 62.7926 336.348 62.9948C335.995 63.2132 335.711 63.5274 335.532 63.9005C335.328 64.3021 335.222 64.7986 335.211 65.3876C335.201 65.9766 335.291 66.4754 335.48 66.885C335.671 67.2936 335.933 67.6048 336.264 67.8187C336.597 68.0325 336.971 68.1442 337.385 68.1515C337.614 68.1554 337.832 68.1275 338.043 68.0698C338.254 68.0111 338.446 67.9235 338.62 67.8039C338.988 67.5519 339.245 67.1703 339.339 66.7366L340.168 66.7511C340.107 67.079 339.986 67.3931 339.811 67.678C339.479 68.2151 338.958 68.6109 338.349 68.7892C338.043 68.8836 337.718 68.9283 337.372 68.9222C336.788 68.912 336.271 68.7606 335.82 68.4691C335.36 68.1662 334.996 67.7408 334.768 67.2417C334.515 66.7138 334.396 66.0918 334.409 65.3736C334.421 64.6565 334.562 64.038 334.833 63.5192C335.103 63.0015 335.467 62.6049 335.928 62.3292C336.4 62.0501 336.944 61.9117 337.494 61.9306C337.84 61.9366 338.163 61.9926 338.466 62.0976C338.77 62.2025 339.043 62.3529 339.284 62.5499C339.527 62.7458 339.728 62.9815 339.888 63.2592C340.048 63.5347 340.157 63.8476 340.213 64.199Z" fill="#A2CEAD"/>
</g>
</g>
<defs>
<clipPath id="clip0_193_1026">
<rect width="321.984" height="69.8923" fill="white" transform="translate(75.4199 116.6) rotate(-5.99997)"/>
</clipPath>
<clipPath id="clip1_193_1026">
<rect width="321.984" height="69.8923" fill="white" transform="translate(75.4199 116.6) rotate(-5.99997)"/>
</clipPath>
<clipPath id="clip2_193_1026">
<rect width="321.989" height="67.8903" fill="white" transform="translate(42.3203 26.2) rotate(0.999999)"/>
</clipPath>
<clipPath id="clip3_193_1026">
<rect width="321.989" height="67.8903" fill="white" transform="translate(42.3203 26.2) rotate(0.999999)"/>
</clipPath>
</defs>
</svg>
