<svg width="21" height="22" viewBox="0 0 21 22" fill="none" xmlns="http://www.w3.org/2000/svg">
<g clip-path="url(#clip0_193_1744)">
<g clip-path="url(#clip1_193_1744)">
<path d="M4.80161 13.6591C4.80003 14.2156 4.57827 14.7488 4.18478 15.1423C3.7913 15.5358 3.25808 15.7575 2.70161 15.7591C2.14497 15.7581 1.61138 15.5367 1.21749 15.1433C0.823608 14.75 0.601459 14.2167 0.599609 13.6601C0.599609 12.5031 1.54461 11.5591 2.70061 11.5591H4.80161V13.6591ZM5.85961 13.6591C5.85961 12.5021 6.80461 11.5581 7.96161 11.5581C9.11761 11.5581 10.0616 12.5021 10.0616 13.6581V18.9201C10.0606 19.4768 9.839 20.0105 9.44543 20.4042C9.05186 20.798 8.51833 21.0198 7.96161 21.0211C7.40497 21.0198 6.87149 20.7981 6.47779 20.4046C6.08409 20.0111 5.86219 19.4777 5.86061 18.9211V13.6601L5.85961 13.6591Z" fill="#E01E5A"/>
<path d="M7.96161 5.22226C7.40497 5.22094 6.87149 4.9993 6.47779 4.60579C6.08409 4.21228 5.86219 3.6789 5.86061 3.12226C5.86114 2.56546 6.08236 2.03157 6.47579 1.63757C6.86923 1.24357 7.40281 1.02159 7.95961 1.02026C9.11661 1.02026 10.0606 1.96526 10.0606 3.12126V5.22226H7.96161ZM7.96161 6.28026C9.11761 6.28026 10.0616 7.22526 10.0616 8.38226C10.06 8.93873 9.83827 9.47195 9.44478 9.86544C9.0513 10.2589 8.51808 10.4807 7.96161 10.4823H2.70161C2.14497 10.4812 1.61138 10.2598 1.21749 9.8665C0.823608 9.47317 0.601459 8.9399 0.599609 8.38326C0.599609 7.22626 1.54461 6.28226 2.70061 6.28226H7.96061L7.96161 6.28026Z" fill="#36C5F0"/>
<path d="M16.3977 8.38226C16.3977 7.22526 17.3427 6.28126 18.4987 6.28126C19.6557 6.28126 20.5997 7.22526 20.5997 8.38126C20.5986 8.93808 20.3771 9.47181 19.9836 9.86573C19.59 10.2596 19.0565 10.4817 18.4997 10.4833H16.3977V8.38226ZM15.3397 8.38226C15.3397 9.53826 14.3947 10.4823 13.2377 10.4823C12.0817 10.4823 11.1377 9.53826 11.1377 8.38226V3.12226C11.1377 1.96526 12.0817 1.02026 13.2377 1.02026C14.3947 1.02026 15.3387 1.96526 15.3387 3.12126V8.38126L15.3397 8.38226Z" fill="#2EB67D"/>
<path d="M13.2377 16.8181C14.3947 16.8181 15.3387 17.7631 15.3387 18.9181C15.3377 19.4749 15.1161 20.0087 14.7226 20.4026C14.3291 20.7965 13.7955 21.0185 13.2387 21.0201C12.6818 21.0188 12.1481 20.797 11.7542 20.4033C11.3603 20.0096 11.1383 19.476 11.1367 18.9191V16.8181H13.2377ZM13.2377 15.7601C12.0817 15.7601 11.1377 14.8151 11.1377 13.6591C11.1377 12.5021 12.0817 11.5581 13.2377 11.5581H18.4997C19.6557 11.5581 20.6007 12.5021 20.6007 13.6581C20.5997 14.2151 20.378 14.749 19.9842 15.1429C19.5905 15.5369 19.0567 15.7588 18.4997 15.7601H13.2397H13.2377Z" fill="#ECB22E"/>
</g>
</g>
<defs>
<clipPath id="clip0_193_1744">
<rect width="21" height="21" fill="white" transform="translate(0 0.420166)"/>
</clipPath>
<clipPath id="clip1_193_1744">
<rect width="21" height="21" fill="white" transform="translate(0 0.420166)"/>
</clipPath>
</defs>
</svg>
